# Blender v3.0.1 OBJ File: 'floor.blend'
# www.blender.org
o Plane
v 23.500000 20.500002 -0.020000
v -7.500002 20.499998 -0.020000
v 23.500004 -4.499998 -0.020000
v -7.499998 -4.500002 -0.020000
v 16.177670 20.500000 -0.020000
v -2.177671 20.500000 -0.020000
v -2.177668 -4.500000 -0.020000
v 16.177673 -4.500000 -0.020000
v 23.500004 -1.164148 -0.020000
v 23.500000 17.164154 -0.020000
v -7.500002 17.164148 -0.020000
v -7.499998 -1.164154 -0.020000
v 16.177670 17.164150 -0.020000
v 16.177673 -1.164152 -0.020000
v -2.177671 17.164150 -0.020000
v -2.177668 -1.164152 -0.020000
vt 0.666992 0.911133
vt 0.579102 1.000000
vt 0.579102 0.911133
vt 0.088867 0.911133
vt 0.000000 1.000000
vt 0.000000 0.911133
vt 0.088867 1.000000
vt 0.579102 0.333008
vt 0.088867 0.421875
vt 0.088867 0.333008
vt 0.000000 0.421875
vt 0.000000 0.333008
vt 0.666992 0.333008
vt 0.579102 0.421875
vt 0.666992 0.421875
vt 0.666992 1.000000
vn 0.0000 0.0000 1.0000
s off
f 12/1/1 7/2/1 16/3/1
f 14/4/1 3/5/1 9/6/1
f 16/3/1 8/7/1 14/4/1
f 6/8/1 13/9/1 5/10/1
f 13/9/1 16/3/1 14/4/1
f 5/10/1 10/11/1 1/12/1
f 13/9/1 9/6/1 10/11/1
f 2/13/1 15/14/1 6/8/1
f 11/15/1 16/3/1 15/14/1
f 12/1/1 4/16/1 7/2/1
f 14/4/1 8/7/1 3/5/1
f 16/3/1 7/2/1 8/7/1
f 6/8/1 15/14/1 13/9/1
f 13/9/1 15/14/1 16/3/1
f 5/10/1 13/9/1 10/11/1
f 13/9/1 14/4/1 9/6/1
f 2/13/1 11/15/1 15/14/1
f 11/15/1 12/1/1 16/3/1
o Cube
v 14.500002 6.500001 -0.020000
v 14.350002 6.350002 0.980000
v 14.500004 -0.490001 -0.020000
v 14.350002 -0.340001 0.980000
v 13.500002 6.500001 -0.020000
v 13.650002 6.350001 0.980000
v 13.500004 -0.490001 -0.020000
v 13.650003 -0.340001 0.980000
v -1.540070 16.500000 -0.020000
v -1.690067 16.349998 0.980000
v -1.540066 -0.490001 -0.020000
v -1.690063 -0.340001 0.980000
v -2.540070 16.500000 -0.020000
v -2.390068 16.349998 0.980000
v -2.540066 -0.490001 -0.020000
v -2.390064 -0.340001 0.980000
v 13.500000 15.500001 -0.020000
v 13.650001 15.650002 0.980000
v -1.540000 15.499998 -0.020000
v -1.689998 15.649999 0.980000
v 13.500000 16.500000 -0.020000
v 13.650000 16.350002 0.980000
v -1.540001 16.500000 -0.020000
v -1.689999 16.349998 0.980000
v 13.500003 -0.490001 -0.020000
v 13.650003 -0.339999 0.980000
v -1.539997 -0.490001 -0.020000
v -1.689995 -0.340001 0.980000
v 13.500002 0.510000 -0.020000
v 13.650002 0.360001 0.980000
v -1.539998 0.509998 -0.020000
v -1.689996 0.359999 0.980000
v 14.500000 16.500000 -0.020000
v 14.350002 16.350002 0.980000
v 14.500002 8.510000 -0.020000
v 14.350002 8.660000 0.980000
v 13.500000 16.500000 -0.020000
v 13.650001 16.350002 0.980000
v 13.500002 8.510000 -0.020000
v 13.650002 8.660000 0.980000
vt 0.640625 0.160156
vt 0.480469 -0.000000
vt 0.640625 -0.000000
vt 0.480469 0.160156
vt 0.320312 0.000000
vt 0.160156 0.160156
vt 0.160156 0.000000
vt 0.000000 0.000000
vt 0.320312 0.320312
vt 0.320312 0.160156
vt 0.640625 0.160156
vt 0.480469 -0.000000
vt 0.640625 -0.000000
vt 0.320312 0.160156
vt 0.320312 0.000000
vt 0.160156 0.160156
vt 0.160156 0.000000
vt 0.000000 0.000000
vt 0.320312 0.320312
vt 0.640625 -0.000000
vt 0.480469 0.160156
vt 0.480469 -0.000000
vt 0.320312 0.160156
vt 0.320312 0.000000
vt 0.160156 0.000000
vt 0.000000 0.160156
vt 0.000000 0.000000
vt 0.320312 0.320312
vt 0.160156 0.160156
vt 0.640625 -0.000000
vt 0.480469 0.160156
vt 0.480469 -0.000000
vt 0.320312 0.000000
vt 0.320312 0.160156
vt 0.160156 0.000000
vt 0.000000 0.160156
vt 0.000000 0.000000
vt 0.320312 0.320312
vt 0.160156 0.160156
vt 0.640625 -0.000000
vt 0.480469 0.160156
vt 0.480469 -0.000000
vt 0.320312 0.000000
vt 0.320312 0.160156
vt 0.160156 0.000000
vt 0.160156 0.160156
vt 0.000000 0.000000
vt 0.320312 0.320312
vt 0.000000 0.160156
vt 0.160156 0.320312
vt 0.480469 0.160156
vt 0.000000 0.160156
vt 0.160156 0.320312
vt 0.640625 0.160156
vt 0.160156 0.320312
vt 0.640625 0.160156
vt 0.160156 0.320312
vt 0.640625 0.160156
vt 0.000000 0.160156
vt 0.160156 0.320312
vn 0.9889 0.0000 0.1483
vn 0.0000 -0.9889 0.1483
vn -0.9889 -0.0000 0.1483
vn -0.0000 0.9889 0.1483
vn 0.0000 0.0000 1.0000
vn -0.9889 -0.0000 -0.1483
vn 0.9889 0.0000 -0.1483
s off
f 18/17/2 19/18/2 17/19/2
f 20/20/3 23/21/3 19/18/3
f 23/21/4 22/22/4 21/23/4
f 22/22/5 17/24/5 21/23/5
f 20/25/6 22/22/6 24/26/6
f 26/27/2 27/28/2 25/29/2
f 27/28/3 32/30/3 31/31/3
f 31/31/4 30/32/4 29/33/4
f 30/32/5 25/34/5 29/33/5
f 28/35/6 30/32/6 32/30/6
f 33/36/3 36/37/3 35/38/3
f 35/38/7 40/39/7 39/40/7
f 40/39/5 37/41/5 39/40/5
f 37/41/8 34/42/8 33/43/8
f 36/44/6 38/45/6 40/39/6
f 41/46/3 44/47/3 43/48/3
f 44/47/7 47/49/7 43/48/7
f 48/50/5 45/51/5 47/49/5
f 45/51/8 42/52/8 41/53/8
f 44/54/6 46/55/6 48/50/6
f 49/56/2 52/57/2 51/58/2
f 52/57/3 55/59/3 51/58/3
f 56/60/4 53/61/4 55/59/4
f 54/62/5 49/63/5 53/61/5
f 52/64/6 54/62/6 56/60/6
f 18/17/2 20/20/2 19/18/2
f 20/20/3 24/26/3 23/21/3
f 23/21/4 24/26/4 22/22/4
f 22/22/5 18/65/5 17/24/5
f 20/25/6 18/66/6 22/22/6
f 26/27/2 28/67/2 27/28/2
f 27/28/3 28/67/3 32/30/3
f 31/31/4 32/30/4 30/32/4
f 30/32/5 26/68/5 25/34/5
f 28/35/6 26/69/6 30/32/6
f 33/36/3 34/70/3 36/37/3
f 35/38/7 36/37/7 40/39/7
f 40/39/5 38/45/5 37/41/5
f 37/41/8 38/45/8 34/42/8
f 36/44/6 34/71/6 38/45/6
f 41/46/3 42/72/3 44/47/3
f 44/47/7 48/50/7 47/49/7
f 48/50/5 46/55/5 45/51/5
f 45/51/8 46/55/8 42/52/8
f 44/54/6 42/73/6 46/55/6
f 49/56/2 50/74/2 52/57/2
f 52/57/3 56/60/3 55/59/3
f 56/60/4 54/62/4 53/61/4
f 54/62/5 50/75/5 49/63/5
f 52/64/6 50/76/6 54/62/6
