# Blender v3.0.1 OBJ File: 'skathian_village.blend'
# www.blender.org
o Plane.004
v -0.843137 -0.843137 0.000000
v 0.843137 -0.843137 0.000000
v -0.843137 0.843137 0.000000
v 0.843137 0.843137 0.000000
v -1.000000 -1.000000 1.400000
v 1.000000 -1.000000 1.400000
v -1.000000 1.000000 1.400000
v 1.000000 1.000000 1.400000
v -0.300000 0.300000 2.000000
v -0.300000 -0.300000 2.000000
v 0.300000 -0.300000 2.000000
v 0.300000 0.300000 2.000000
v 0.796315 0.796315 1.700000
v 0.796315 -0.796315 1.700000
v -0.796315 -0.796315 1.700000
v -0.796315 0.796315 1.700000
v 0.621376 0.621376 1.867246
v -0.621376 -0.621376 1.867246
v 0.621376 -0.621376 1.867246
v -0.621376 0.621376 1.867246
v 0.843137 0.843137 1.400000
v 0.843137 -0.843137 1.400000
v -0.843137 -0.843137 1.400000
v -0.843137 0.843137 1.400000
v -0.298133 -0.843137 0.000000
v 0.298133 -0.843137 0.000000
v 0.298133 -0.843137 0.916888
v -0.298133 -0.843137 0.916888
v -0.298133 -0.614045 0.000000
v 0.298133 -0.614045 0.000000
v 0.298133 -0.614045 0.916888
v -0.298133 -0.614045 0.916888
vt 0.480469 0.042969
vt 0.796875 0.015625
vt 0.773438 0.042969
vt 0.773438 0.332031
vt 0.457031 0.355469
vt 0.480469 0.332031
vt 0.457031 0.015625
vt 0.796875 0.355469
vt 0.300781 0.453125
vt 0.207031 0.609375
vt 0.207031 0.453125
vt 0.949219 0.675781
vt 0.714844 0.382812
vt 0.949219 0.382812
vt 0.691406 0.675781
vt 0.453125 0.382812
vt 0.691406 0.382812
vt 0.691406 0.988281
vt 0.453125 0.699219
vt 0.691406 0.699219
vt 0.312500 0.460938
vt 0.355469 0.617188
vt 0.312500 0.617188
vt 0.011719 0.695312
vt 0.300781 0.695312
vt 0.011719 0.453125
vt 0.105469 0.609375
vt 0.355469 0.718750
vt 0.312500 0.718750
vt 0.355469 0.875000
vt 0.312500 0.875000
vt 0.714844 0.675781
vt 0.453125 0.675781
vt 0.453125 0.988281
vt 0.355469 0.460938
vt 0.105469 0.453125
vt 0.175781 0.261719
vt 0.265625 0.179688
vt 0.261719 0.265625
vt 0.128906 0.121094
vt 0.121094 0.312500
vt 0.312500 0.320312
vt 0.320312 0.128906
vt 0.179688 0.175781
vt 0.019531 0.421875
vt 0.355469 0.359375
vt 0.421875 0.421875
vt 0.421875 0.019531
vt 0.085938 0.082031
vt 0.019531 0.019531
vt 0.359375 0.085938
vt 0.082031 0.355469
vt 0.007812 0.707031
vt 0.164062 0.808594
vt 0.007812 0.808594
vt 0.164062 0.707031
vn -0.0000 0.0000 -1.0000
vn 0.0000 -1.0000 0.0000
vn 0.0000 1.0000 0.0000
vn -1.0000 0.0000 0.0000
vn 1.0000 0.0000 0.0000
vn 0.1478 -0.1478 0.9779
vn -0.1478 0.1478 0.9779
vn -0.1478 -0.1478 0.9779
vn 0.3415 0.3415 0.8756
vn 0.3415 -0.3415 0.8756
vn -0.3415 -0.3415 0.8756
vn -0.3415 0.3415 0.8756
vn 0.1478 0.1478 0.9779
vn 0.6759 -0.6759 -0.2940
vn -0.4750 -0.4750 0.7408
vn -0.6759 -0.6759 -0.2940
vn -0.6759 0.6759 -0.2940
vn 0.4750 0.4750 0.7408
vn 0.6759 0.6759 -0.2940
vn -0.4750 0.4750 0.7408
vn 0.4750 -0.4750 0.7408
s off
f 21/1/1 6/2/1 22/3/1
f 23/4/1 7/5/1 24/6/1
f 24/6/1 8/7/1 21/1/1
f 22/3/1 5/8/1 23/4/1
f 2/9/2 27/10/2 26/11/2
f 3/12/3 21/13/3 4/14/3
f 1/15/4 24/16/4 3/17/4
f 4/18/5 22/19/5 2/20/5
f 25/21/5 32/22/5 28/23/5
f 23/24/2 27/10/2 22/25/2
f 1/26/2 28/27/2 23/24/2
f 28/23/1 31/28/1 27/29/1
f 27/29/4 30/30/4 26/31/4
f 21/1/1 8/7/1 6/2/1
f 23/4/1 5/8/1 7/5/1
f 24/6/1 7/5/1 8/7/1
f 22/3/1 6/2/1 5/8/1
f 2/9/2 22/25/2 27/10/2
f 3/12/3 24/32/3 21/13/3
f 1/15/4 23/33/4 24/16/4
f 4/18/5 21/34/5 22/19/5
f 25/21/5 29/35/5 32/22/5
f 23/24/2 28/27/2 27/10/2
f 1/26/2 25/36/2 28/27/2
f 28/23/1 32/22/1 31/28/1
f 27/29/4 31/28/4 30/30/4
s 1
f 11/37/6 9/38/7 10/39/8
f 17/40/9 11/37/6 19/41/10
f 18/42/11 9/38/7 20/43/12
f 20/43/12 12/44/13 17/40/9
f 19/41/10 10/39/8 18/42/11
f 6/45/14 15/46/15 5/47/16
f 7/48/17 13/49/18 8/50/19
f 5/47/16 16/51/20 7/48/17
f 8/50/19 14/52/21 6/45/14
f 14/52/21 18/42/11 15/46/15
f 16/51/20 17/40/9 13/49/18
f 15/46/15 20/43/12 16/51/20
f 13/49/18 19/41/10 14/52/21
f 11/37/6 12/44/13 9/38/7
f 17/40/9 12/44/13 11/37/6
f 18/42/11 10/39/8 9/38/7
f 20/43/12 9/38/7 12/44/13
f 19/41/10 11/37/6 10/39/8
f 6/45/14 14/52/21 15/46/15
f 7/48/17 16/51/20 13/49/18
f 5/47/16 15/46/15 16/51/20
f 8/50/19 13/49/18 14/52/21
f 14/52/21 19/41/10 18/42/11
f 16/51/20 20/43/12 17/40/9
f 15/46/15 18/42/11 20/43/12
f 13/49/18 17/40/9 19/41/10
s off
f 30/53/2 32/54/2 29/55/2
f 30/53/2 31/56/2 32/54/2
