# Blender v3.0.1 OBJ File: 'blaster_bolt.blend'
# www.blender.org
o bolt_Sphere
v -0.000000 0.016837 0.014107
v -0.000000 0.043669 0.022825
v -0.000000 0.074023 0.014107
v 0.012217 0.016837 0.007053
v 0.019767 0.028837 0.011413
v 0.019767 0.043669 0.011413
v 0.012217 0.074023 0.007053
v 0.012217 0.016837 -0.007053
v 0.019767 0.028837 -0.011413
v 0.019767 0.043669 -0.011413
v 0.012217 0.074023 -0.007053
v -0.000000 0.016837 -0.014107
v -0.000000 0.028837 -0.022825
v -0.000000 0.043669 -0.022825
v -0.000000 0.074023 -0.014107
v -0.000000 0.105006 -0.000000
v -0.000000 0.012253 -0.000000
v -0.012217 0.016837 -0.007053
v -0.019767 0.028837 -0.011413
v -0.019767 0.043669 -0.011413
v -0.012217 0.074023 -0.007053
v -0.012217 0.016837 0.007053
v -0.019767 0.028837 0.011413
v -0.019767 0.043669 0.011413
v -0.012217 0.074023 0.007053
v 0.000000 0.028837 0.022825
v -0.000000 0.026986 0.008464
v -0.000000 0.043086 0.013695
v -0.000000 0.061297 0.008464
v 0.007330 0.026986 0.004232
v 0.011860 0.034186 0.006848
v 0.011860 0.043086 0.006848
v 0.007330 0.061297 0.004232
v 0.007330 0.026986 -0.004232
v 0.011860 0.034186 -0.006848
v 0.011860 0.043086 -0.006848
v 0.007330 0.061297 -0.004232
v -0.000000 0.026986 -0.008464
v -0.000000 0.034186 -0.013695
v -0.000000 0.043086 -0.013695
v -0.000000 0.061297 -0.008464
v -0.000000 0.079888 -0.000000
v -0.000000 0.024236 -0.000000
v -0.007330 0.026986 -0.004232
v -0.011860 0.034186 -0.006848
v -0.011860 0.043086 -0.006848
v -0.007330 0.061297 -0.004232
v -0.007330 0.026986 0.004232
v -0.011860 0.034186 0.006848
v -0.011860 0.043086 0.006848
v -0.007330 0.061297 0.004232
v 0.000000 0.034186 0.013695
v -0.000000 0.014653 0.012079
v -0.000000 0.009853 0.012079
v 0.026029 0.031137 0.045084
v 0.010461 0.014653 0.006039
v 0.010461 0.009853 0.006039
v 0.052059 0.031137 -0.000000
v 0.010461 0.014653 -0.006039
v 0.010461 0.009853 -0.006039
v 0.026029 0.031137 -0.045084
v -0.000000 0.014653 -0.012079
v -0.000000 0.009853 -0.012079
v -0.026029 0.031137 -0.045084
v -0.010461 0.014653 -0.006039
v -0.010461 0.009853 -0.006039
v -0.052059 0.031137 -0.000000
v -0.010461 0.014653 0.006039
v -0.010461 0.009853 0.006039
v -0.026029 0.031137 0.045084
v -0.000000 0.008338 -0.000000
v -0.000000 0.000077 -0.000000
vt 0.765625 0.046875
vt 0.765625 0.015625
vt 0.968750 0.125000
vt 0.609375 0.546875
vt 0.500000 0.343750
vt 0.531250 0.343750
vt 0.609375 0.140625
vt 0.640625 0.546875
vt 0.531250 0.343750
vt 0.562500 0.343750
vt 0.640625 0.140625
vt 0.968750 0.859375
vt 0.765625 0.968750
vt 0.765625 0.937500
vt 0.546875 0.859375
vt 0.968750 0.812500
vt 0.765625 0.921875
vt 0.765625 0.906250
vt 0.546875 0.812500
vt 0.968750 0.781250
vt 0.765625 0.875000
vt 0.765625 0.859375
vt 0.578125 0.593750
vt 0.734375 0.578125
vt 0.781250 0.593750
vt 0.546875 0.781250
vt 0.562500 0.125000
vt 0.828125 0.578125
vt 1.000000 0.593750
vt 0.968750 0.421875
vt 0.828125 0.359375
vt 0.796875 0.312500
vt 0.750000 0.312500
vt 0.625000 0.218750
vt 0.968750 0.218750
vt 0.843750 0.312500
vt 0.828125 0.625000
vt 0.890625 0.781250
vt 0.671875 0.421875
vt 0.781250 0.546875
vt 0.781250 0.640625
vt 0.671875 0.781250
vt 0.781250 0.359375
vt 0.625000 0.421875
vt 0.796875 0.125000
vt 0.828125 0.281250
vt 0.890625 0.421875
vt 0.734375 0.625000
vt 0.796875 0.515625
vt 0.781250 0.281250
vt 0.296875 0.015625
vt 0.328125 0.109375
vt 0.250000 0.109375
vt 0.328125 0.296875
vt 0.250000 0.203125
vt 0.328125 0.203125
vt 0.328125 0.390625
vt 0.296875 0.484375
vt 0.250000 0.390625
vt 0.250000 0.296875
vt 0.171875 0.203125
vt 0.171875 0.109375
vt 0.171875 0.296875
vt 0.203125 0.015625
vt 0.203125 0.484375
vt 0.171875 0.390625
vt 0.093750 0.203125
vt 0.093750 0.109375
vt 0.093750 0.296875
vt 0.125000 0.015625
vt 0.125000 0.484375
vt 0.093750 0.390625
vt 0.015625 0.109375
vt 0.015625 0.390625
vt 0.015625 0.296875
vt 0.046875 0.015625
vt 0.015625 0.203125
vt 0.046875 0.484375
vt 0.484375 0.203125
vt 0.406250 0.109375
vt 0.484375 0.109375
vt 0.484375 0.296875
vt 0.406250 0.390625
vt 0.406250 0.296875
vt 0.453125 0.015625
vt 0.406250 0.203125
vt 0.484375 0.390625
vt 0.453125 0.484375
vt 0.375000 0.015625
vt 0.375000 0.484375
vt 0.296875 0.515625
vt 0.328125 0.609375
vt 0.250000 0.609375
vt 0.328125 0.796875
vt 0.250000 0.703125
vt 0.328125 0.703125
vt 0.328125 0.890625
vt 0.296875 0.984375
vt 0.250000 0.890625
vt 0.250000 0.796875
vt 0.171875 0.609375
vt 0.171875 0.796875
vt 0.203125 0.515625
vt 0.171875 0.703125
vt 0.203125 0.984375
vt 0.171875 0.890625
vt 0.093750 0.609375
vt 0.093750 0.796875
vt 0.125000 0.515625
vt 0.093750 0.703125
vt 0.125000 0.984375
vt 0.093750 0.890625
vt 0.015625 0.609375
vt 0.015625 0.796875
vt 0.046875 0.515625
vt 0.015625 0.703125
vt 0.046875 0.984375
vt 0.015625 0.890625
vt 0.484375 0.703125
vt 0.406250 0.609375
vt 0.484375 0.609375
vt 0.484375 0.890625
vt 0.406250 0.796875
vt 0.484375 0.796875
vt 0.453125 0.515625
vt 0.406250 0.703125
vt 0.453125 0.984375
vt 0.406250 0.890625
vt 0.375000 0.515625
vt 0.375000 0.984375
vn -0.7852 0.0000 0.6192
vn 0.9289 0.0000 -0.3704
vn 0.1437 0.0000 0.9896
vn 0.1437 0.0000 -0.9896
vn 0.9289 0.0000 0.3704
vn -0.7852 0.0000 -0.6192
vn 0.7852 0.0000 -0.6192
vn -0.9289 0.0000 0.3704
vn -0.1437 0.0000 -0.9896
vn -0.1437 0.0000 0.9896
vn -0.4578 -0.7673 -0.4491
vn -0.9289 0.0000 -0.3704
vn 0.7852 -0.0000 0.6192
vn 0.4578 -0.7673 -0.4491
vn -0.4142 0.8859 -0.2088
vn -0.0262 0.8859 0.4631
vn -0.0262 0.8859 -0.4631
vn 0.6178 -0.7673 0.1719
vn 0.1600 -0.7673 -0.6210
vn 0.1600 -0.7673 0.6210
vn -0.4142 0.8859 0.2088
vn 0.3880 0.8859 -0.2543
vn 0.6178 -0.7673 -0.1719
vn -0.4578 -0.7673 0.4491
vn -0.3880 0.8859 -0.2543
vn 0.4142 0.8859 0.2088
vn 0.0262 0.8859 -0.4631
vn 0.4578 -0.7673 0.4491
vn -0.6178 -0.7673 -0.1719
vn -0.1600 -0.7673 0.6210
vn 0.0262 0.8859 0.4631
vn 0.4142 0.8859 -0.2088
vn -0.1600 -0.7673 -0.6210
vn -0.6178 -0.7673 0.1719
vn -0.3880 0.8859 0.2543
vn 0.3880 0.8859 0.2543
vn 0.0000 1.0000 0.0000
vn 0.0000 0.3387 0.9409
vn 0.8148 0.3387 0.4704
vn 0.0000 -0.2834 0.9590
vn 0.8582 0.1336 0.4955
vn 0.0000 0.1336 0.9910
vn 0.0000 -0.7628 0.6466
vn 0.0000 -1.0000 0.0000
vn 0.5600 -0.7628 0.3233
vn 0.8305 -0.2834 0.4795
vn 0.8582 0.1336 -0.4955
vn 0.8148 0.3387 -0.4704
vn 0.8305 -0.2834 -0.4795
vn 0.5600 -0.7628 -0.3233
vn 0.0000 0.1336 -0.9910
vn 0.0000 0.3387 -0.9409
vn 0.0000 -0.2834 -0.9590
vn 0.0000 -0.7628 -0.6466
vn -0.8148 0.3387 -0.4704
vn -0.5600 -0.7628 -0.3233
vn -0.8305 -0.2834 -0.4795
vn -0.8582 0.1336 -0.4955
vn -0.8148 0.3387 0.4704
vn -0.5600 -0.7628 0.3233
vn -0.8305 -0.2834 0.4795
vn -0.8582 0.1336 0.4955
s off
f 53/1/1 54/2/1 55/3/1
f 55/4/2 57/5/2 56/6/2
f 56/6/3 57/5/3 58/7/3
f 58/8/4 60/9/4 59/10/4
f 59/10/5 60/9/5 61/11/5
f 61/12/6 63/13/6 62/14/6
f 62/14/7 63/13/7 64/15/7
f 64/16/8 66/17/8 65/18/8
f 65/18/9 66/17/9 67/19/9
f 67/20/10 69/21/10 68/22/10
f 67/23/11 66/24/11 72/25/11
f 68/22/12 69/21/12 70/26/12
f 70/27/13 54/2/13 53/1/13
f 60/28/14 58/29/14 72/25/14
f 55/30/15 56/31/15 71/32/15
f 62/33/16 64/34/16 71/32/16
f 70/35/17 53/36/17 71/32/17
f 57/37/18 55/38/18 72/25/18
f 64/39/19 63/40/19 72/25/19
f 54/41/20 70/42/20 72/25/20
f 59/43/21 61/44/21 71/32/21
f 67/45/22 68/46/22 71/32/22
f 61/47/23 60/28/23 72/25/23
f 69/48/24 67/23/24 72/25/24
f 56/31/25 58/49/25 71/32/25
f 64/34/26 65/50/26 71/32/26
f 53/36/27 55/30/27 71/32/27
f 58/29/28 57/37/28 72/25/28
f 66/24/29 64/39/29 72/25/29
f 55/38/30 54/41/30 72/25/30
f 61/44/31 62/33/31 71/32/31
f 68/46/32 70/35/32 71/32/32
f 63/40/33 61/47/33 72/25/33
f 70/42/34 69/48/34 72/25/34
f 58/49/35 59/43/35 71/32/35
f 65/50/36 67/45/36 71/32/36
s 1
f 16/51/37 3/52/38 7/53/39
f 26/54/40 6/55/41 2/56/42
f 1/57/43 17/58/44 4/59/45
f 3/52/38 6/55/41 7/53/39
f 1/57/43 5/60/46 26/54/40
f 7/53/39 10/61/47 11/62/48
f 4/59/45 9/63/49 5/60/46
f 16/64/37 7/53/39 11/62/48
f 5/60/46 10/61/47 6/55/41
f 4/59/45 17/65/44 8/66/50
f 11/62/48 14/67/51 15/68/52
f 8/66/50 13/69/53 9/63/49
f 16/70/37 11/62/48 15/68/52
f 10/61/47 13/69/53 14/67/51
f 8/66/50 17/71/44 12/72/54
f 14/67/51 21/73/55 15/68/52
f 13/69/53 18/74/56 19/75/57
f 16/76/37 15/68/52 21/73/55
f 13/69/53 20/77/58 14/67/51
f 12/72/54 17/78/44 18/74/56
f 20/79/58 25/80/59 21/81/55
f 19/82/57 22/83/60 23/84/61
f 16/85/37 21/81/55 25/80/59
f 19/82/57 24/86/62 20/79/58
f 18/87/56 17/88/44 22/83/60
f 25/80/59 2/56/42 3/52/38
f 23/84/61 1/57/43 26/54/40
f 16/89/37 25/80/59 3/52/38
f 23/84/61 2/56/42 24/86/62
f 22/83/60 17/90/44 1/57/43
f 26/54/40 5/60/46 6/55/41
f 3/52/38 2/56/42 6/55/41
f 1/57/43 4/59/45 5/60/46
f 7/53/39 6/55/41 10/61/47
f 4/59/45 8/66/50 9/63/49
f 5/60/46 9/63/49 10/61/47
f 11/62/48 10/61/47 14/67/51
f 8/66/50 12/72/54 13/69/53
f 10/61/47 9/63/49 13/69/53
f 14/67/51 20/77/58 21/73/55
f 13/69/53 12/72/54 18/74/56
f 13/69/53 19/75/57 20/77/58
f 20/79/58 24/86/62 25/80/59
f 19/82/57 18/87/56 22/83/60
f 19/82/57 23/84/61 24/86/62
f 25/80/59 24/86/62 2/56/42
f 23/84/61 22/83/60 1/57/43
f 23/84/61 26/54/40 2/56/42
f 42/91/37 29/92/38 33/93/39
f 52/94/40 32/95/41 28/96/42
f 27/97/43 43/98/44 30/99/45
f 29/92/38 32/95/41 33/93/39
f 52/94/40 30/99/45 31/100/46
f 32/95/41 37/101/48 33/93/39
f 30/99/45 35/102/49 31/100/46
f 42/103/37 33/93/39 37/101/48
f 32/95/41 35/102/49 36/104/47
f 30/99/45 43/105/44 34/106/50
f 36/104/47 41/107/52 37/101/48
f 34/106/50 39/108/53 35/102/49
f 42/109/37 37/101/48 41/107/52
f 35/102/49 40/110/51 36/104/47
f 34/106/50 43/111/44 38/112/54
f 40/110/51 47/113/55 41/107/52
f 38/112/54 45/114/57 39/108/53
f 42/115/37 41/107/52 47/113/55
f 40/110/51 45/114/57 46/116/58
f 38/112/54 43/117/44 44/118/56
f 46/119/58 51/120/59 47/121/55
f 44/122/56 49/123/61 45/124/57
f 42/125/37 47/121/55 51/120/59
f 46/119/58 49/123/61 50/126/62
f 44/122/56 43/127/44 48/128/60
f 51/120/59 28/96/42 29/92/38
f 49/123/61 27/97/43 52/94/40
f 42/129/37 51/120/59 29/92/38
f 49/123/61 28/96/42 50/126/62
f 48/128/60 43/130/44 27/97/43
f 52/94/40 31/100/46 32/95/41
f 29/92/38 28/96/42 32/95/41
f 52/94/40 27/97/43 30/99/45
f 32/95/41 36/104/47 37/101/48
f 30/99/45 34/106/50 35/102/49
f 32/95/41 31/100/46 35/102/49
f 36/104/47 40/110/51 41/107/52
f 34/106/50 38/112/54 39/108/53
f 35/102/49 39/108/53 40/110/51
f 40/110/51 46/116/58 47/113/55
f 38/112/54 44/118/56 45/114/57
f 40/110/51 39/108/53 45/114/57
f 46/119/58 50/126/62 51/120/59
f 44/122/56 48/128/60 49/123/61
f 46/119/58 45/124/57 49/123/61
f 51/120/59 50/126/62 28/96/42
f 49/123/61 48/128/60 27/97/43
f 49/123/61 52/94/40 28/96/42
