# Blender v3.0.1 OBJ File: 'dart.blend'
# www.blender.org
o Plane
v -0.030961 -0.070099 -0.060035
v -0.031250 -0.075640 -0.000000
v -0.029514 -0.144955 0.000000
v -0.030961 -0.070099 0.060035
v 0.030961 -0.070099 -0.060035
v 0.031250 -0.075640 -0.000000
v 0.029514 -0.144955 0.000000
v 0.030961 -0.070099 0.060035
v 0.000000 -0.000000 0.120069
v 0.000000 -0.059253 -0.000000
v 0.000000 -0.000000 -0.120069
v -0.000000 -0.282843 0.000000
v 0.000000 0.320464 0.022484
v 0.000000 -0.129219 0.022484
v 0.019472 0.320464 0.011242
v 0.019472 -0.129219 0.011242
v 0.019472 0.320464 -0.011242
v 0.019472 -0.129219 -0.011242
v -0.000000 0.320464 -0.022484
v -0.000000 -0.129219 -0.022484
v -0.019472 0.320464 -0.011242
v -0.019472 -0.129219 -0.011242
v -0.019472 0.320464 0.011242
v -0.019472 -0.129219 0.011242
vt 0.372075 0.371208
vt 0.302426 0.229609
vt 0.406413 0.172304
vt 0.302426 0.229610
vt 0.372075 0.371209
vt 0.193562 0.277000
vt 0.267872 0.159361
vt 0.406413 0.172304
vt 0.499888 0.631056
vt 0.499888 0.000112
vt 0.000112 0.245939
vt 0.499888 0.000112
vt 0.193562 0.277000
vt 0.000112 0.245939
vt 0.975000 0.975000
vt 0.875000 0.675000
vt 0.975000 0.675000
vt 0.875000 0.975000
vt 0.775000 0.675000
vt 0.775000 0.975000
vt 0.675000 0.675000
vt 0.675000 0.975000
vt 0.575000 0.675000
vt 0.475000 0.975000
vt 0.475000 0.675000
vt 0.375000 0.675000
vt 0.700292 0.453000
vt 0.700292 0.597000
vt 0.949708 0.597000
vt 0.575000 0.975000
vt 0.375000 0.975000
vt 0.825000 0.669000
vt 0.949708 0.453000
vt 0.825000 0.381000
vn -0.9997 -0.0250 -0.0071
vn 0.9997 -0.0250 -0.0071
vn 0.4630 0.8828 -0.0793
vn 0.9514 -0.2036 -0.2310
vn 0.6690 -0.2904 0.6841
vn 0.7608 0.5820 0.2872
vn -0.7608 0.5820 0.2872
vn -0.6690 -0.2904 0.6841
vn -0.9514 -0.2036 -0.2310
vn -0.4630 0.8828 -0.0793
vn 0.5000 0.0000 0.8660
vn 1.0000 0.0000 0.0000
vn 0.5000 0.0000 -0.8660
vn -0.5000 -0.0000 -0.8660
vn -1.0000 0.0000 0.0000
vn -0.5000 0.0000 0.8660
vn 0.0000 1.0000 0.0000
vn -0.9997 -0.0250 0.0071
vn 0.9997 -0.0250 0.0071
vn 0.7608 0.5820 -0.2872
vn 0.6690 -0.2904 -0.6841
vn 0.9514 -0.2036 0.2310
vn 0.4630 0.8828 0.0793
vn -0.4630 0.8828 0.0793
vn -0.9514 -0.2036 0.2310
vn -0.6690 -0.2904 -0.6841
vn -0.7608 0.5820 -0.2872
s off
f 3/1/1 2/2/1 1/3/1
f 6/4/2 7/5/2 5/6/2
f 10/7/3 8/8/3 6/4/3
f 12/9/4 5/6/4 7/5/4
f 12/9/5 8/8/5 9/10/5
f 10/7/6 5/6/6 11/11/6
f 1/3/7 10/7/7 11/12/7
f 4/13/8 12/9/8 9/14/8
f 1/3/9 12/9/9 3/1/9
f 4/13/10 10/7/10 2/2/10
f 14/15/11 15/16/11 13/17/11
f 16/18/12 17/19/12 15/16/12
f 18/20/13 19/21/13 17/19/13
f 20/22/14 21/23/14 19/21/14
f 21/23/15 24/24/15 23/25/15
f 24/24/16 13/26/16 23/25/16
f 21/27/17 23/28/17 15/29/17
f 3/1/18 4/13/18 2/2/18
f 6/4/19 8/8/19 7/5/19
f 10/7/20 9/10/20 8/8/20
f 12/9/21 11/11/21 5/6/21
f 12/9/22 7/5/22 8/8/22
f 10/7/23 6/4/23 5/6/23
f 1/3/24 2/2/24 10/7/24
f 4/13/25 3/1/25 12/9/25
f 1/3/26 11/12/26 12/9/26
f 4/13/27 9/14/27 10/7/27
f 14/15/11 16/18/11 15/16/11
f 16/18/12 18/20/12 17/19/12
f 18/20/13 20/22/13 19/21/13
f 20/22/14 22/30/14 21/23/14
f 21/23/15 22/30/15 24/24/15
f 24/24/16 14/31/16 13/26/16
f 23/28/17 13/32/17 15/29/17
f 15/29/17 17/33/17 19/34/17
f 19/34/17 21/27/17 15/29/17
