# Blender v3.0.1 OBJ File: 'cave_tiles.blend'
# www.blender.org
o Plane
v -0.500000 -0.500000 0.000000
v 0.500000 -0.500000 0.000000
v -0.500000 0.500000 0.000000
v 0.500000 0.500000 0.000000
v -0.500000 0.500000 1.000000
v 0.500000 0.500000 1.000000
v -0.500000 -0.500000 1.000000
v 0.500000 -0.500000 1.000000
vt 0.997500 0.002500
vt 0.502500 0.497500
vt 0.502500 0.002500
vt 1.000000 0.000000
vt 0.500000 0.500000
vt 0.500000 0.000000
vt 0.997500 0.497500
vt 1.000000 0.500000
vn 0.0000 0.0000 1.0000
vn 0.0000 -0.0000 -1.0000
s off
f 2/1/1 3/2/1 1/3/1
f 6/4/2 7/5/2 5/6/2
f 2/1/1 4/7/1 3/2/1
f 6/4/2 8/8/2 7/5/2
o Plane.002_Plane.007
v 0.300000 0.500000 0.000000
v 0.300000 -0.500000 0.000000
v 0.300000 0.500000 1.000000
v 0.300000 -0.500000 1.000000
v 0.422840 0.500000 0.863176
v 0.480366 0.500000 0.652923
v 0.500000 0.500000 0.500000
v 0.480366 0.500000 0.319590
v 0.433245 0.500000 0.119546
v 0.433246 -0.500000 0.119546
v 0.480366 -0.500000 0.319590
v 0.480366 -0.500000 0.652923
v 0.422840 -0.500000 0.863177
v 0.374608 0.333333 0.000000
v 0.100000 0.166667 0.000000
v 0.127487 -0.000000 0.000000
v 0.100000 -0.166667 0.000000
v 0.300000 -0.333333 0.000000
v 0.300000 -0.333333 1.000000
v 0.100000 -0.166667 1.000000
v 0.100000 -0.000000 1.000000
v 0.100000 0.166667 1.000000
v 0.374608 0.333333 1.000000
v 0.450245 -0.333333 0.129608
v 0.280783 -0.166667 0.144112
v 0.246716 -0.000000 0.145890
v 0.286868 0.166667 0.144112
v 0.456872 0.333333 0.129608
v 0.515249 -0.333333 0.317136
v 0.356674 -0.166667 0.316584
v 0.312876 -0.000000 0.316495
v 0.363225 0.166667 0.316584
v 0.511322 0.333333 0.317136
v 0.533410 -0.333333 0.496564
v 0.376397 -0.166667 0.493267
v 0.331897 -0.000000 0.492857
v 0.383906 0.166667 0.493267
v 0.529483 0.333333 0.496564
v 0.503395 -0.333333 0.660089
v 0.349536 -0.166667 0.665663
v 0.308423 -0.000000 0.666364
v 0.360745 0.166667 0.665663
v 0.510022 0.333333 0.660089
v 0.400229 -0.333333 0.853998
v 0.263699 -0.166667 0.842778
v 0.233519 -0.000000 0.841399
v 0.280998 0.166667 0.842778
v 0.449067 0.333333 0.853998
v 0.326795 -0.600000 0.000000
v 0.326795 -0.600000 1.000000
v 0.442189 -0.533377 0.119546
v 0.482997 -0.509817 0.319590
v 0.500000 -0.500000 0.500000
v 0.482997 -0.509817 0.652923
v 0.433177 -0.538580 0.863177
v 0.400000 -0.673205 0.000000
v 0.400000 -0.673205 1.000000
v 0.466623 -0.557811 0.119546
v 0.490183 -0.517003 0.319590
v 0.490183 -0.517003 0.652923
v 0.461420 -0.566823 0.863177
v 0.500000 -0.700000 0.000000
v 0.500000 -0.700000 1.000000
v 0.500000 -0.566754 0.119546
v 0.500000 -0.519634 0.319590
v 0.500000 -0.519634 0.652923
v 0.500000 -0.577160 0.863177
v -0.300000 -0.500000 0.000000
v -0.300000 0.500000 0.000000
v -0.300000 -0.500000 1.000000
v -0.300000 0.500000 1.000000
v -0.422840 -0.500000 0.863176
v -0.480366 -0.500000 0.652923
v -0.500000 -0.500000 0.500000
v -0.480366 -0.500000 0.319590
v -0.433246 -0.500000 0.119546
v -0.433246 0.500000 0.119546
v -0.480366 0.500000 0.319590
v -0.480366 0.500000 0.652923
v -0.422840 0.500000 0.863177
v -0.374608 -0.333333 0.000000
v -0.100000 -0.166667 0.000000
v -0.127487 0.000000 0.000000
v -0.100000 0.166667 0.000000
v -0.300000 0.333333 0.000000
v -0.300000 0.333333 1.000000
v -0.100000 0.166667 1.000000
v -0.100000 0.000000 1.000000
v -0.100000 -0.166667 1.000000
v -0.374608 -0.333333 1.000000
v -0.450245 0.333333 0.129608
v -0.280783 0.166667 0.144112
v -0.246716 0.000000 0.145890
v -0.286868 -0.166667 0.144112
v -0.456872 -0.333333 0.129608
v -0.515249 0.333333 0.317136
v -0.356674 0.166667 0.316584
v -0.312876 0.000000 0.316495
v -0.363225 -0.166667 0.316584
v -0.511322 -0.333333 0.317136
v -0.533410 0.333333 0.496564
v -0.376397 0.166667 0.493267
v -0.331897 0.000000 0.492857
v -0.383906 -0.166667 0.493267
v -0.529483 -0.333333 0.496564
v -0.503395 0.333333 0.660089
v -0.349536 0.166667 0.665663
v -0.308423 0.000000 0.666364
v -0.360745 -0.166667 0.665663
v -0.510022 -0.333333 0.660089
v -0.400229 0.333333 0.853998
v -0.263699 0.166667 0.842778
v -0.233519 0.000000 0.841399
v -0.280998 -0.166667 0.842778
v -0.449067 -0.333333 0.853998
v -0.326795 0.600000 0.000000
v -0.326795 0.600000 1.000000
v -0.442189 0.533377 0.119546
v -0.482997 0.509817 0.319590
v -0.500000 0.500000 0.500000
v -0.482997 0.509817 0.652923
v -0.433177 0.538580 0.863177
v -0.400000 0.673205 0.000000
v -0.400000 0.673205 1.000000
v -0.466623 0.557811 0.119546
v -0.490183 0.517003 0.319590
v -0.490183 0.517003 0.652923
v -0.461420 0.566823 0.863177
v -0.500000 0.700000 0.000000
v -0.500000 0.700000 1.000000
v -0.500000 0.566754 0.119546
v -0.500000 0.519634 0.319590
v -0.500000 0.519634 0.652923
v -0.500000 0.577160 0.863177
vt 0.416289 0.916289
vt 0.497500 0.997500
vt 0.416289 0.997500
vt 0.416289 0.502500
vt 0.497500 0.583711
vt 0.416289 0.583711
vt 0.497500 0.668789
vt 0.416289 0.668789
vt 0.497500 0.750000
vt 0.416289 0.750000
vt 0.416289 0.831211
vt 0.497500 0.831211
vt 0.002500 0.831211
vt 0.083711 0.916289
vt 0.002500 0.916289
vt 0.168789 0.831211
vt 0.083711 0.831211
vt 0.250000 0.831211
vt 0.168789 0.916289
vt 0.331211 0.916289
vt 0.250000 0.916289
vt 0.331211 0.831211
vt 0.002500 0.750000
vt 0.168789 0.750000
vt 0.083711 0.750000
vt 0.250000 0.750000
vt 0.331211 0.750000
vt 0.083711 0.668789
vt 0.002500 0.668789
vt 0.168789 0.668789
vt 0.331211 0.668789
vt 0.250000 0.668789
vt 0.083711 0.583711
vt 0.002500 0.583711
vt 0.168789 0.583711
vt 0.331211 0.583711
vt 0.250000 0.583711
vt 0.083711 0.502500
vt 0.002500 0.502500
vt 0.168789 0.502500
vt 0.331211 0.502500
vt 0.250000 0.502500
vt 0.083711 0.997500
vt 0.002500 0.997500
vt 0.168789 0.997500
vt 0.331211 0.997500
vt 0.250000 0.997500
vt 0.489766 0.831211
vt 0.489766 0.668789
vt 0.497500 0.916289
vt 0.485898 0.916289
vt 0.470430 0.997500
vt 0.470430 0.502500
vt 0.485898 0.583711
vt 0.466563 0.916289
vt 0.482031 0.668789
vt 0.466563 0.583711
vt 0.482031 0.831211
vt 0.435625 0.997500
vt 0.447227 0.916289
vt 0.478164 0.668789
vt 0.435625 0.502500
vt 0.447227 0.583711
vt 0.478164 0.831211
vt 0.416289 0.997500
vt 0.416289 0.916289
vt 0.497500 0.997500
vt 0.416289 0.997500
vt 0.416289 0.502500
vt 0.497500 0.583711
vt 0.416289 0.583711
vt 0.497500 0.668789
vt 0.416289 0.668789
vt 0.497500 0.750000
vt 0.416289 0.750000
vt 0.416289 0.831211
vt 0.497500 0.831211
vt 0.002500 0.831211
vt 0.083711 0.916289
vt 0.002500 0.916289
vt 0.168789 0.831211
vt 0.083711 0.831211
vt 0.250000 0.831211
vt 0.168789 0.916289
vt 0.331211 0.916289
vt 0.250000 0.916289
vt 0.331211 0.831211
vt 0.002500 0.750000
vt 0.168789 0.750000
vt 0.083711 0.750000
vt 0.250000 0.750000
vt 0.331211 0.750000
vt 0.083711 0.668789
vt 0.002500 0.668789
vt 0.168789 0.668789
vt 0.331211 0.668789
vt 0.250000 0.668789
vt 0.083711 0.583711
vt 0.002500 0.583711
vt 0.168789 0.583711
vt 0.331211 0.583711
vt 0.250000 0.583711
vt 0.083711 0.502500
vt 0.002500 0.502500
vt 0.168789 0.502500
vt 0.331211 0.502500
vt 0.250000 0.502500
vt 0.083711 0.997500
vt 0.002500 0.997500
vt 0.168789 0.997500
vt 0.331211 0.997500
vt 0.250000 0.997500
vt 0.489766 0.831211
vt 0.489766 0.668789
vt 0.485898 0.916289
vt 0.497500 0.916289
vt 0.470430 0.997500
vt 0.470430 0.502500
vt 0.485898 0.583711
vt 0.466563 0.916289
vt 0.482031 0.668789
vt 0.466563 0.583711
vt 0.482031 0.831211
vt 0.435625 0.997500
vt 0.478164 0.831211
vt 0.447227 0.916289
vt 0.478164 0.668789
vt 0.416289 0.502500
vt 0.447227 0.583711
vt 0.416289 0.997500
vt 0.497500 0.502500
vt 0.416289 0.502500
vt 0.497500 0.502500
vt 0.435625 0.502500
vn -0.8161 -0.3391 -0.4680
vn -0.7614 -0.1274 -0.6356
vn -0.7426 -0.3632 -0.5626
vn -0.6063 -0.3599 0.7091
vn -0.8429 -0.0895 0.5306
vn -0.8126 -0.2943 0.5031
vn -0.9820 -0.0404 0.1845
vn -0.9435 -0.2605 0.2047
vn -0.9942 0.1040 -0.0271
vn -0.9634 -0.2654 -0.0370
vn -0.9156 -0.2682 -0.2994
vn -0.9697 -0.0876 -0.2281
vn -0.9642 -0.1703 -0.2031
vn -0.8870 0.2898 -0.3595
vn -0.8856 -0.1858 -0.4256
vn -0.8354 0.4992 -0.2297
vn -0.9449 0.2577 -0.2017
vn -0.9588 0.0350 -0.2817
vn -0.7046 0.5108 -0.4925
vn -0.7467 -0.4145 -0.5201
vn -0.8210 0.0319 -0.5700
vn -0.8444 -0.4609 -0.2731
vn -0.9839 -0.1781 -0.0107
vn -0.8672 0.4979 -0.0072
vn -0.9654 0.2608 -0.0079
vn -0.9996 0.0232 -0.0144
vn -0.8689 -0.4944 -0.0220
vn -0.9488 0.2573 0.1831
vn -0.9688 -0.1690 0.1811
vn -0.8388 0.4993 0.2171
vn -0.8408 -0.4939 0.2215
vn -0.9669 0.0177 0.2545
vn -0.8752 0.2938 0.3841
vn -0.8702 -0.1685 0.4630
vn -0.6945 0.4974 0.5199
vn -0.7035 -0.4437 0.5552
vn -0.8188 0.0112 0.5740
vn -0.7255 0.3150 0.6118
vn -0.6398 -0.2864 0.7131
vn -0.6499 0.2809 0.7062
vn -0.6598 -0.2431 0.7110
vn -0.7743 0.0000 0.6328
vn -0.7781 0.3090 -0.5469
vn -0.7060 -0.3160 -0.6338
vn -0.6621 0.3358 -0.6699
vn -0.6893 -0.2950 -0.6617
vn -0.7650 0.0000 -0.6440
vn -0.8488 -0.4900 -0.1983
vn -0.8533 -0.4926 0.1708
vn -0.8584 -0.1866 -0.4778
vn -0.7522 -0.4343 -0.4955
vn -0.6444 -0.3721 -0.6681
vn -0.5783 -0.3339 0.7443
vn -0.7326 -0.4230 0.5332
vn -0.4343 -0.7522 -0.4955
vn -0.4926 -0.8533 0.1708
vn -0.4230 -0.7326 0.5332
vn -0.4901 -0.8488 -0.1983
vn -0.3721 -0.6444 -0.6681
vn -0.2267 -0.8459 -0.4827
vn -0.2553 -0.9527 0.1651
vn -0.3339 -0.5783 0.7443
vn -0.2210 -0.8250 0.5200
vn -0.2540 -0.9480 -0.1918
vn -0.1955 -0.7297 -0.6551
vn 0.8161 0.3391 -0.4680
vn 0.7614 0.1274 -0.6356
vn 0.7426 0.3632 -0.5626
vn 0.6063 0.3599 0.7091
vn 0.8429 0.0895 0.5306
vn 0.8126 0.2943 0.5031
vn 0.9820 0.0404 0.1845
vn 0.9435 0.2605 0.2047
vn 0.9942 -0.1040 -0.0271
vn 0.9634 0.2654 -0.0370
vn 0.9156 0.2682 -0.2994
vn 0.9697 0.0876 -0.2281
vn 0.9642 0.1703 -0.2031
vn 0.8870 -0.2898 -0.3595
vn 0.8856 0.1858 -0.4256
vn 0.8354 -0.4992 -0.2297
vn 0.9449 -0.2577 -0.2017
vn 0.9588 -0.0350 -0.2817
vn 0.7046 -0.5108 -0.4925
vn 0.7467 0.4145 -0.5201
vn 0.8210 -0.0319 -0.5700
vn 0.8444 0.4609 -0.2731
vn 0.9839 0.1781 -0.0107
vn 0.8672 -0.4979 -0.0072
vn 0.9654 -0.2608 -0.0079
vn 0.9996 -0.0232 -0.0144
vn 0.8689 0.4944 -0.0220
vn 0.9488 -0.2573 0.1831
vn 0.9688 0.1690 0.1811
vn 0.8388 -0.4993 0.2171
vn 0.8408 0.4939 0.2215
vn 0.9669 -0.0177 0.2545
vn 0.8752 -0.2938 0.3841
vn 0.8702 0.1685 0.4630
vn 0.6945 -0.4974 0.5199
vn 0.7035 0.4437 0.5552
vn 0.8188 -0.0112 0.5740
vn 0.7255 -0.3150 0.6118
vn 0.6398 0.2864 0.7131
vn 0.6499 -0.2809 0.7062
vn 0.6598 0.2431 0.7110
vn 0.7743 0.0000 0.6328
vn 0.7781 -0.3090 -0.5469
vn 0.7060 0.3160 -0.6338
vn 0.6621 -0.3358 -0.6699
vn 0.6893 0.2950 -0.6617
vn 0.7650 0.0000 -0.6440
vn 0.8488 0.4900 -0.1983
vn 0.8533 0.4926 0.1708
vn 0.7522 0.4343 -0.4956
vn 0.8584 0.1866 -0.4778
vn 0.6444 0.3721 -0.6681
vn 0.5783 0.3339 0.7443
vn 0.7326 0.4230 0.5332
vn 0.4343 0.7522 -0.4956
vn 0.4927 0.8533 0.1708
vn 0.4230 0.7326 0.5332
vn 0.4901 0.8488 -0.1983
vn 0.3721 0.6444 -0.6681
vn 0.2540 0.9480 -0.1918
vn 0.2267 0.8459 -0.4827
vn 0.2553 0.9527 0.1651
vn 0.1761 0.6573 0.7327
vn 0.2210 0.8250 0.5200
vn 0.1955 0.7297 -0.6551
vn -0.6655 -0.0826 0.7418
vn -0.1761 -0.6573 0.7327
vn 0.6655 0.0826 0.7418
vn 0.3339 0.5783 0.7443
s 1
f 52/9/3 12/10/4 27/11/5
f 26/12/6 18/13/7 32/14/8
f 32/14/8 19/15/9 37/16/10
f 37/16/10 61/17/11 42/18/12
f 61/17/11 47/19/13 42/18/12
f 20/20/14 52/9/3 47/19/13
f 14/21/15 56/22/16 13/23/17
f 50/24/18 56/22/16 51/25/19
f 49/26/20 55/27/21 50/24/18
f 49/26/20 53/28/22 54/29/23
f 48/30/24 52/9/3 53/28/22
f 15/31/25 51/25/19 14/21/15
f 45/32/26 51/25/19 46/33/27
f 44/34/28 50/24/18 45/32/26
f 44/34/28 48/30/24 49/26/20
f 43/35/29 47/19/13 48/30/24
f 41/36/30 15/31/25 16/37/31
f 41/36/30 45/32/26 46/33/27
f 40/38/32 44/34/28 45/32/26
f 38/39/33 44/34/28 39/40/34
f 37/16/10 43/35/29 38/39/33
f 36/41/35 16/37/31 17/42/36
f 36/41/35 40/38/32 41/36/30
f 35/43/37 39/40/34 40/38/32
f 33/44/38 39/40/34 34/45/39
f 32/14/8 38/39/33 33/44/38
f 22/46/40 17/42/36 9/47/41
f 22/46/40 35/43/37 36/41/35
f 23/48/42 34/45/39 35/43/37
f 25/49/43 34/45/39 24/50/44
f 26/12/6 33/44/38 25/49/43
f 13/23/17 31/51/45 11/52/46
f 55/27/21 31/51/45 56/22/16
f 54/29/23 30/53/47 55/27/21
f 54/29/23 28/54/48 29/55/49
f 53/28/22 27/11/5 28/54/48
f 20/20/14 61/17/11 62/56/50
f 18/13/7 60/57/51 19/15/9
f 21/58/52 62/56/50 63/59/53
f 12/10/4 63/59/53 58/60/54
f 61/17/11 19/15/9 60/57/51
f 18/13/7 57/61/55 59/62/56
f 62/56/50 69/63/57 63/59/53
f 61/17/11 60/57/51 67/64/58
f 57/61/55 66/65/59 59/62/56
f 62/56/50 61/17/11 68/66/60
f 59/62/56 67/64/58 60/57/51
f 63/59/53 65/67/61 58/60/54
f 68/66/60 75/68/62 69/63/57
f 61/17/11 67/64/58 73/69/63
f 64/70/64 72/71/65 66/65/59
f 68/66/60 61/17/11 74/72/66
f 67/64/58 72/71/65 73/69/63
f 69/63/57 71/73/67 65/67/61
f 119/74/68 79/75/69 94/76/70
f 93/77/71 85/78/72 99/79/73
f 99/79/73 86/80/74 104/81/75
f 104/81/75 128/82/76 109/83/77
f 128/82/76 114/84/78 109/83/77
f 87/85/79 119/74/68 114/84/78
f 81/86/80 123/87/81 80/88/82
f 117/89/83 123/87/81 118/90/84
f 116/91/85 122/92/86 117/89/83
f 116/91/85 120/93/87 121/94/88
f 115/95/89 119/74/68 120/93/87
f 82/96/90 118/90/84 81/86/80
f 112/97/91 118/90/84 113/98/92
f 111/99/93 117/89/83 112/97/91
f 111/99/93 115/95/89 116/91/85
f 110/100/94 114/84/78 115/95/89
f 108/101/95 82/96/90 83/102/96
f 108/101/95 112/97/91 113/98/92
f 107/103/97 111/99/93 112/97/91
f 105/104/98 111/99/93 106/105/99
f 104/81/75 110/100/94 105/104/98
f 103/106/100 83/102/96 84/107/101
f 103/106/100 107/103/97 108/101/95
f 102/108/102 106/105/99 107/103/97
f 100/109/103 106/105/99 101/110/104
f 99/79/73 105/104/98 100/109/103
f 89/111/105 84/107/101 76/112/106
f 89/111/105 102/108/102 103/106/100
f 90/113/107 101/110/104 102/108/102
f 92/114/108 101/110/104 91/115/109
f 93/77/71 100/109/103 92/114/108
f 80/88/82 98/116/110 78/117/111
f 122/92/86 98/116/110 123/87/81
f 121/94/88 97/118/112 122/92/86
f 121/94/88 95/119/113 96/120/114
f 120/93/87 94/76/70 95/119/113
f 87/85/79 128/82/76 129/121/115
f 85/78/72 127/122/116 86/80/74
f 87/85/79 130/123/117 88/124/118
f 79/75/69 130/123/117 125/125/119
f 128/82/76 86/80/74 127/122/116
f 85/78/72 124/126/120 126/127/121
f 129/121/115 136/128/122 130/123/117
f 128/82/76 127/122/116 134/129/123
f 124/126/120 133/130/124 126/127/121
f 129/121/115 128/82/76 135/131/125
f 126/127/121 134/129/123 127/122/116
f 130/123/117 132/132/126 125/125/119
f 136/128/122 141/133/127 142/134/128
f 128/82/76 134/129/123 140/135/129
f 133/130/124 137/136/130 139/137/131
f 135/131/125 128/82/76 141/133/127
f 133/130/124 140/135/129 134/129/123
f 132/132/126 142/134/128 138/138/132
f 52/9/3 21/58/52 12/10/4
f 26/12/6 10/139/133 18/13/7
f 32/14/8 18/13/7 19/15/9
f 37/16/10 19/15/9 61/17/11
f 61/17/11 20/20/14 47/19/13
f 20/20/14 21/58/52 52/9/3
f 14/21/15 51/25/19 56/22/16
f 50/24/18 55/27/21 56/22/16
f 49/26/20 54/29/23 55/27/21
f 49/26/20 48/30/24 53/28/22
f 48/30/24 47/19/13 52/9/3
f 15/31/25 46/33/27 51/25/19
f 45/32/26 50/24/18 51/25/19
f 44/34/28 49/26/20 50/24/18
f 44/34/28 43/35/29 48/30/24
f 43/35/29 42/18/12 47/19/13
f 41/36/30 46/33/27 15/31/25
f 41/36/30 40/38/32 45/32/26
f 40/38/32 39/40/34 44/34/28
f 38/39/33 43/35/29 44/34/28
f 37/16/10 42/18/12 43/35/29
f 36/41/35 41/36/30 16/37/31
f 36/41/35 35/43/37 40/38/32
f 35/43/37 34/45/39 39/40/34
f 33/44/38 38/39/33 39/40/34
f 32/14/8 37/16/10 38/39/33
f 22/46/40 36/41/35 17/42/36
f 22/46/40 23/48/42 35/43/37
f 23/48/42 24/50/44 34/45/39
f 25/49/43 33/44/38 34/45/39
f 26/12/6 32/14/8 33/44/38
f 13/23/17 56/22/16 31/51/45
f 55/27/21 30/53/47 31/51/45
f 54/29/23 29/55/49 30/53/47
f 54/29/23 53/28/22 28/54/48
f 53/28/22 52/9/3 27/11/5
f 18/13/7 59/62/56 60/57/51
f 21/58/52 20/20/14 62/56/50
f 12/10/4 21/58/52 63/59/53
f 18/13/7 10/139/133 57/61/55
f 62/56/50 68/66/60 69/63/57
f 57/61/55 64/70/64 66/65/59
f 59/62/56 66/65/59 67/64/58
f 63/59/53 69/63/57 65/67/61
f 68/66/60 74/72/66 75/68/62
f 64/70/64 70/140/134 72/71/65
f 67/64/58 66/65/59 72/71/65
f 69/63/57 75/68/62 71/73/67
f 119/74/68 88/124/118 79/75/69
f 93/77/71 77/141/135 85/78/72
f 99/79/73 85/78/72 86/80/74
f 104/81/75 86/80/74 128/82/76
f 128/82/76 87/85/79 114/84/78
f 87/85/79 88/124/118 119/74/68
f 81/86/80 118/90/84 123/87/81
f 117/89/83 122/92/86 123/87/81
f 116/91/85 121/94/88 122/92/86
f 116/91/85 115/95/89 120/93/87
f 115/95/89 114/84/78 119/74/68
f 82/96/90 113/98/92 118/90/84
f 112/97/91 117/89/83 118/90/84
f 111/99/93 116/91/85 117/89/83
f 111/99/93 110/100/94 115/95/89
f 110/100/94 109/83/77 114/84/78
f 108/101/95 113/98/92 82/96/90
f 108/101/95 107/103/97 112/97/91
f 107/103/97 106/105/99 111/99/93
f 105/104/98 110/100/94 111/99/93
f 104/81/75 109/83/77 110/100/94
f 103/106/100 108/101/95 83/102/96
f 103/106/100 102/108/102 107/103/97
f 102/108/102 101/110/104 106/105/99
f 100/109/103 105/104/98 106/105/99
f 99/79/73 104/81/75 105/104/98
f 89/111/105 103/106/100 84/107/101
f 89/111/105 90/113/107 102/108/102
f 90/113/107 91/115/109 101/110/104
f 92/114/108 100/109/103 101/110/104
f 93/77/71 99/79/73 100/109/103
f 80/88/82 123/87/81 98/116/110
f 122/92/86 97/118/112 98/116/110
f 121/94/88 96/120/114 97/118/112
f 121/94/88 120/93/87 95/119/113
f 120/93/87 119/74/68 94/76/70
f 85/78/72 126/127/121 127/122/116
f 87/85/79 129/121/115 130/123/117
f 79/75/69 88/124/118 130/123/117
f 85/78/72 77/141/135 124/126/120
f 129/121/115 135/131/125 136/128/122
f 124/126/120 131/142/136 133/130/124
f 126/127/121 133/130/124 134/129/123
f 130/123/117 136/128/122 132/132/126
f 136/128/122 135/131/125 141/133/127
f 133/130/124 131/142/136 137/136/130
f 133/130/124 139/137/131 140/135/129
f 132/132/126 136/128/122 142/134/128
