# Blender v3.0.1 OBJ File: 'cave_tiles.blend'
# www.blender.org
o Plane.001
v -0.500000 -0.700000 0.000000
v 0.500000 -0.700000 0.000000
v -0.500000 -0.700000 1.000000
v 0.500000 -0.700000 1.000000
v -0.500000 -0.577160 0.863176
v -0.500000 -0.519634 0.652923
v -0.500000 -0.500000 0.500000
v -0.500000 -0.519634 0.319590
v -0.500000 -0.566754 0.119546
v 0.500000 -0.566754 0.119546
v 0.500000 -0.519634 0.319590
v 0.500000 -0.519634 0.652923
v 0.500000 -0.577160 0.863177
v -0.333333 -0.625392 0.000000
v -0.166667 -0.700000 0.000000
v 0.000000 -0.672513 0.000000
v 0.166667 -0.700000 0.000000
v 0.333333 -0.700000 0.000000
v 0.333333 -0.700000 1.000000
v 0.166667 -0.700000 1.000000
v -0.000000 -0.700000 1.000000
v -0.166667 -0.700000 1.000000
v -0.333333 -0.625392 1.000000
v 0.333333 -0.482330 0.119546
v 0.166667 -0.566754 0.119546
v -0.000000 -0.539267 0.119546
v -0.166667 -0.539267 0.119546
v -0.333333 -0.492147 0.119546
v 0.333333 -0.435209 0.319590
v 0.166667 -0.519634 0.319590
v -0.000000 -0.492147 0.319590
v -0.166667 -0.492147 0.319590
v -0.333333 -0.445026 0.319590
v 0.333333 -0.415575 0.500000
v 0.166667 -0.500000 0.500000
v -0.000000 -0.472513 0.500000
v -0.166667 -0.472513 0.500000
v -0.333333 -0.425392 0.500000
v 0.333333 -0.435209 0.652923
v 0.166667 -0.519634 0.652923
v -0.000000 -0.492147 0.652923
v -0.166667 -0.492147 0.652923
v -0.333333 -0.445026 0.652923
v 0.333333 -0.577160 0.863177
v 0.166667 -0.577160 0.863177
v -0.000000 -0.549673 0.863177
v -0.166667 -0.549673 0.863177
v -0.333333 -0.502552 0.863176
v 0.600000 -0.673205 0.000000
v 0.600000 -0.673205 1.000000
v 0.533377 -0.557811 0.119546
v 0.509817 -0.517003 0.319590
v 0.500000 -0.500000 0.500000
v 0.509817 -0.517003 0.652923
v 0.538580 -0.566823 0.863177
v 0.673205 -0.600000 0.000000
v 0.673205 -0.600000 1.000000
v 0.557811 -0.533377 0.119546
v 0.517003 -0.509817 0.319590
v 0.517003 -0.509817 0.652923
v 0.566823 -0.538580 0.863177
v 0.700000 -0.500000 0.000000
v 0.700000 -0.500000 1.000000
v 0.566754 -0.500000 0.119546
v 0.519634 -0.500000 0.319590
v 0.519634 -0.500000 0.652923
v 0.577160 -0.500000 0.863177
vt 0.497500 0.916289
vt 0.416289 0.997500
vt 0.416289 0.916289
vt 0.416289 0.502500
vt 0.497500 0.583711
vt 0.416289 0.583711
vt 0.497500 0.668789
vt 0.416289 0.668789
vt 0.497500 0.750000
vt 0.416289 0.750000
vt 0.416289 0.831211
vt 0.497500 0.831211
vt 0.002500 0.831211
vt 0.083711 0.916289
vt 0.002500 0.916289
vt 0.168789 0.831211
vt 0.083711 0.831211
vt 0.250000 0.831211
vt 0.168789 0.916289
vt 0.331211 0.831211
vt 0.250000 0.916289
vt 0.331211 0.916289
vt 0.002500 0.750000
vt 0.168789 0.750000
vt 0.083711 0.750000
vt 0.250000 0.750000
vt 0.331211 0.750000
vt 0.083711 0.668789
vt 0.002500 0.668789
vt 0.250000 0.668789
vt 0.168789 0.668789
vt 0.331211 0.668789
vt 0.083711 0.583711
vt 0.002500 0.583711
vt 0.168789 0.583711
vt 0.250000 0.583711
vt 0.331211 0.583711
vt 0.083711 0.502500
vt 0.002500 0.502500
vt 0.250000 0.502500
vt 0.168789 0.502500
vt 0.331211 0.502500
vt 0.083711 0.997500
vt 0.002500 0.997500
vt 0.168789 0.997500
vt 0.250000 0.997500
vt 0.331211 0.997500
vt 0.489766 0.831211
vt 0.485898 0.583711
vt 0.489766 0.668789
vt 0.485898 0.916289
vt 0.497500 0.997500
vt 0.470430 0.997500
vt 0.470430 0.502500
vt 0.466563 0.916289
vt 0.482031 0.668789
vt 0.466563 0.583711
vt 0.482031 0.831211
vt 0.435625 0.997500
vt 0.447227 0.916289
vt 0.478164 0.668789
vt 0.435625 0.502500
vt 0.447227 0.583711
vt 0.478164 0.831211
vt 0.416289 0.997500
vt 0.497500 0.502500
vt 0.416289 0.502500
vn 0.1160 -0.8673 -0.4840
vn 0.0000 -0.7441 -0.6681
vn 0.0000 -0.8428 -0.5382
vn 0.0000 -0.5823 0.8130
vn -0.0398 -0.8137 0.5799
vn 0.0000 -0.8325 0.5541
vn -0.1036 -0.9799 0.1704
vn 0.0000 -0.9861 0.1662
vn -0.3660 -0.9305 -0.0106
vn 0.0000 -0.9999 -0.0093
vn 0.0000 -0.9430 -0.3327
vn -0.0502 -0.9662 -0.2529
vn 0.4017 -0.8973 -0.1828
vn 0.0640 -0.8865 -0.4581
vn 0.3601 -0.8046 -0.4721
vn -0.1355 -0.9713 -0.1954
vn 0.0706 -0.9787 -0.1928
vn -0.0798 -0.9776 -0.1948
vn -0.1356 -0.8457 -0.5162
vn 0.0991 -0.9629 -0.2511
vn -0.0695 -0.8543 -0.5151
vn -0.0561 -0.8661 -0.4966
vn 0.4086 -0.9127 -0.0091
vn -0.1387 -0.9903 -0.0096
vn 0.0708 -0.9974 -0.0094
vn -0.0811 -0.9966 -0.0096
vn 0.1557 -0.9877 -0.0097
vn 0.0709 -0.9835 0.1664
vn 0.4035 -0.9014 0.1572
vn -0.0802 -0.9825 0.1680
vn -0.1361 -0.9763 0.1683
vn 0.1521 -0.9738 0.1690
vn 0.0627 -0.8734 0.4828
vn 0.3507 -0.7834 0.5131
vn -0.1196 -0.8341 0.5385
vn -0.0701 -0.8617 0.5025
vn 0.0832 -0.8146 0.5741
vn 0.0316 -0.6488 0.7603
vn 0.2864 -0.6398 0.7131
vn -0.0274 -0.6482 0.7609
vn -0.0676 -0.5954 0.8005
vn -0.0526 -0.6669 0.7433
vn 0.0335 -0.7250 -0.6879
vn 0.3160 -0.7060 -0.6338
vn -0.1300 -0.6674 -0.7332
vn -0.0261 -0.6924 -0.7210
vn 0.4900 -0.8488 -0.1983
vn 0.4230 -0.7326 0.5332
vn 0.4926 -0.8533 0.1708
vn 0.4343 -0.7522 -0.4956
vn 0.0925 -0.7409 -0.6652
vn 0.3721 -0.6444 -0.6681
vn 0.3339 -0.5783 0.7443
vn 0.7522 -0.4343 -0.4955
vn 0.8533 -0.4926 0.1708
vn 0.7326 -0.4230 0.5332
vn 0.8488 -0.4900 -0.1983
vn 0.6444 -0.3721 -0.6681
vn 0.8459 -0.2267 -0.4827
vn 0.9527 -0.2553 0.1651
vn 0.5783 -0.3339 0.7443
vn 0.8250 -0.2210 0.5200
vn 0.9480 -0.2540 -0.1918
vn 0.7297 -0.1955 -0.6551
vn 0.0826 -0.6655 0.7418
vn 0.6573 -0.1761 0.7327
s 1
f 13/1/1 19/2/2 44/3/3
f 18/4/4 10/5/5 24/6/6
f 24/6/6 11/7/7 29/8/8
f 29/8/8 53/9/9 34/10/10
f 53/9/9 39/11/11 34/10/10
f 12/12/12 44/3/3 39/11/11
f 6/13/13 48/14/14 5/15/15
f 42/16/16 48/14/14 43/17/17
f 41/18/18 47/19/19 42/16/16
f 40/20/20 46/21/21 41/18/18
f 40/20/20 44/3/3 45/22/22
f 7/23/23 43/17/17 6/13/13
f 37/24/24 43/17/17 38/25/25
f 36/26/26 42/16/16 37/24/24
f 35/27/27 41/18/18 36/26/26
f 35/27/27 39/11/11 40/20/20
f 33/28/28 7/23/23 8/29/29
f 33/28/28 37/24/24 38/25/25
f 31/30/30 37/24/24 32/31/31
f 31/30/30 35/27/27 36/26/26
f 29/8/8 35/27/27 30/32/32
f 28/33/33 8/29/29 9/34/34
f 28/33/33 32/31/31 33/28/28
f 27/35/35 31/30/30 32/31/31
f 26/36/36 30/32/32 31/30/30
f 24/6/6 30/32/32 25/37/37
f 14/38/38 9/34/34 1/39/39
f 14/38/38 27/35/35 28/33/33
f 16/40/40 27/35/35 15/41/41
f 16/40/40 25/37/37 26/36/36
f 18/4/4 25/37/37 17/42/42
f 5/15/15 23/43/43 3/44/44
f 47/19/19 23/43/43 48/14/14
f 46/21/21 22/45/45 47/19/19
f 45/22/22 21/46/46 46/21/21
f 44/3/3 20/47/2 45/22/22
f 12/12/12 53/9/9 54/48/47
f 11/7/7 51/49/48 52/50/49
f 13/1/1 54/48/47 55/51/50
f 4/52/51 55/51/50 50/53/52
f 53/9/9 11/7/7 52/50/49
f 10/5/5 49/54/53 51/49/48
f 54/48/47 61/55/54 55/51/50
f 53/9/9 52/50/49 59/56/55
f 49/54/53 58/57/56 51/49/48
f 54/48/47 53/9/9 60/58/57
f 51/49/48 59/56/55 52/50/49
f 55/51/50 57/59/58 50/53/52
f 60/58/57 67/60/59 61/55/54
f 53/9/9 59/56/55 65/61/60
f 56/62/61 64/63/62 58/57/56
f 60/58/57 53/9/9 66/64/63
f 58/57/56 65/61/60 59/56/55
f 61/55/54 63/65/64 57/59/58
f 13/1/1 4/52/51 19/2/2
f 18/4/4 2/66/65 10/5/5
f 24/6/6 10/5/5 11/7/7
f 29/8/8 11/7/7 53/9/9
f 53/9/9 12/12/12 39/11/11
f 12/12/12 13/1/1 44/3/3
f 6/13/13 43/17/17 48/14/14
f 42/16/16 47/19/19 48/14/14
f 41/18/18 46/21/21 47/19/19
f 40/20/20 45/22/22 46/21/21
f 40/20/20 39/11/11 44/3/3
f 7/23/23 38/25/25 43/17/17
f 37/24/24 42/16/16 43/17/17
f 36/26/26 41/18/18 42/16/16
f 35/27/27 40/20/20 41/18/18
f 35/27/27 34/10/10 39/11/11
f 33/28/28 38/25/25 7/23/23
f 33/28/28 32/31/31 37/24/24
f 31/30/30 36/26/26 37/24/24
f 31/30/30 30/32/32 35/27/27
f 29/8/8 34/10/10 35/27/27
f 28/33/33 33/28/28 8/29/29
f 28/33/33 27/35/35 32/31/31
f 27/35/35 26/36/36 31/30/30
f 26/36/36 25/37/37 30/32/32
f 24/6/6 29/8/8 30/32/32
f 14/38/38 28/33/33 9/34/34
f 14/38/38 15/41/41 27/35/35
f 16/40/40 26/36/36 27/35/35
f 16/40/40 17/42/42 25/37/37
f 18/4/4 24/6/6 25/37/37
f 5/15/15 48/14/14 23/43/43
f 47/19/19 22/45/45 23/43/43
f 46/21/21 21/46/46 22/45/45
f 45/22/22 20/47/2 21/46/46
f 44/3/3 19/2/2 20/47/2
f 11/7/7 10/5/5 51/49/48
f 13/1/1 12/12/12 54/48/47
f 4/52/51 13/1/1 55/51/50
f 10/5/5 2/66/65 49/54/53
f 54/48/47 60/58/57 61/55/54
f 49/54/53 56/62/61 58/57/56
f 51/49/48 58/57/56 59/56/55
f 55/51/50 61/55/54 57/59/58
f 60/58/57 66/64/63 67/60/59
f 56/62/61 62/67/66 64/63/62
f 58/57/56 64/63/62 65/61/60
f 61/55/54 67/60/59 63/65/64
