# Blender v3.0.1 OBJ File: 'downstairs.blend'
# www.blender.org
o Cube
v -0.300000 -0.500000 0.000000
v -0.300000 -0.400000 0.000000
v -0.500000 0.493987 0.000000
v -0.500000 0.493987 1.000000
v 0.300000 -0.500000 0.000000
v 0.300000 -0.400000 0.000000
v 0.500000 0.493987 0.000000
v 0.500000 0.493987 1.000000
v -0.300000 -0.400000 -0.100000
v 0.300000 -0.400000 -0.100000
v -0.300000 -0.300000 -0.100000
v 0.300000 -0.300000 -0.100000
v -0.300000 -0.300000 -0.200000
v 0.300000 -0.300000 -0.200000
v -0.300000 -0.200000 -0.200000
v 0.300000 -0.200000 -0.200000
v -0.300000 -0.200000 -0.300000
v 0.300000 -0.200000 -0.300000
v -0.300000 -0.100000 -0.300000
v 0.300000 -0.100000 -0.300000
v -0.300000 -0.100000 -0.400000
v 0.300000 -0.100000 -0.400000
v -0.300000 -0.000000 -0.400000
v 0.300000 0.000000 -0.400000
v -0.300000 -0.500000 -1.000000
v -0.300000 -0.500000 0.000000
v -0.300000 0.500000 -1.000000
v -0.300000 0.500000 0.000000
v 0.300000 0.500000 -1.000000
v 0.300000 0.500000 0.000000
v 0.300000 -0.500000 -1.000000
v 0.300000 -0.500000 0.000000
v -0.500000 0.500000 -1.000000
v -0.500000 0.500000 0.000000
v 0.500000 0.500000 -1.000000
v 0.500000 0.500000 0.000000
v -0.500000 0.500000 1.000000
v -0.500000 -0.500000 1.000000
v 0.500000 0.500000 1.000000
v 0.500000 -0.500000 1.000000
v 0.300000 -0.500000 0.000000
v 0.300000 0.500000 0.000000
v -0.500000 -0.500000 0.000000
v -0.500000 0.500000 0.000000
v 0.500000 0.500000 0.000000
v 0.500000 -0.500000 0.000000
v 0.500000 0.500000 0.000000
v -0.300000 0.000000 -0.500000
v -0.300000 0.100000 -0.500000
v 0.300000 0.000000 -0.500000
v 0.300000 0.100000 -0.500000
v -0.300000 0.100000 -0.600000
v 0.300000 0.100000 -0.600000
v -0.300000 0.200000 -0.600000
v 0.300000 0.200000 -0.600000
v -0.300000 0.200000 -0.700000
v 0.300000 0.200000 -0.700000
v -0.300000 0.300000 -0.700000
v 0.300000 0.300000 -0.700000
v -0.300000 0.300000 -0.800000
v 0.300000 0.300000 -0.800000
v -0.300000 0.400000 -0.800000
v 0.300000 0.400000 -0.800000
v -0.300000 0.400000 -0.900000
v 0.300000 0.400000 -0.900000
v -0.300000 0.500000 -0.900000
v 0.300000 0.500000 -0.900000
v 0.300000 0.000000 -0.500000
v -0.500000 0.493987 0.000000
v -0.500000 0.493987 1.000000
v 0.500000 0.493987 0.000000
v 0.500000 0.493987 1.000000
v -0.500000 0.499987 0.000000
v -0.500000 0.499987 1.000000
v 0.500000 0.499987 0.000000
v 0.500000 0.499987 1.000000
v 0.499987 0.500000 0.000000
v 0.499987 0.500000 1.000000
v 0.499987 -0.500000 0.000000
v 0.499987 -0.500000 1.000000
v -0.499987 -0.500000 0.000000
v -0.499987 -0.500000 1.000000
v -0.499987 0.500000 0.000000
v -0.499987 0.500000 1.000000
vt 0.000000 0.600000
vt 0.500000 0.700000
vt 0.000000 0.700000
vt 0.000000 0.501953
vt 0.500000 1.000000
vt 0.501953 0.500000
vt 0.500000 1.000000
vt 0.000000 0.900000
vt 0.000000 1.000000
vt 0.500000 0.600000
vt 0.000000 0.500000
vt 0.500000 0.500000
vt 0.500000 0.900000
vt 0.000000 0.800000
vt 0.000000 0.900000
vt 0.500000 0.700000
vt 0.000000 0.800000
vt 0.000000 0.700000
vt 0.500000 0.800000
vt 0.000000 0.700000
vt 0.000000 0.800000
vt 0.500000 0.900000
vt 0.000000 0.900000
vt 0.500000 0.700000
vt 0.000000 0.600000
vt 0.000000 0.700000
vt 0.000000 0.900000
vt 0.500000 1.000000
vt 0.000000 1.000000
vt 0.000000 0.501953
vt 0.500000 1.000000
vt 0.501953 0.500000
vt 0.000000 0.501953
vt 0.500000 1.000000
vt 0.501953 0.500000
vt 0.000000 0.001953
vt 0.500000 0.500000
vt 0.501953 0.000000
vt 0.000000 0.501953
vt 0.500000 1.000000
vt 0.501953 0.500000
vt 0.000000 0.000000
vt 0.000000 0.000000
vt 0.000000 0.000000
vt 0.500000 0.900000
vt -0.000000 1.000000
vt -0.000000 0.900000
vt 0.000000 0.600000
vt 0.500000 0.500000
vt 0.500000 0.600000
vt 0.000000 0.600000
vt 0.500000 0.700000
vt 0.000000 0.700000
vt 0.500000 1.000000
vt 0.000000 0.900000
vt 0.000000 1.000000
vt 0.500000 0.600000
vt 0.000000 0.500000
vt 0.500000 0.500000
vt 0.500000 0.900000
vt 0.000000 0.800000
vt 0.000000 0.900000
vt 0.500000 0.700000
vt 0.000000 0.800000
vt 0.000000 0.700000
vt 0.500000 0.800000
vt 0.000000 0.700000
vt 0.000000 0.800000
vt 0.500000 0.900000
vt 0.000000 0.900000
vt 0.500000 0.700000
vt 0.000000 0.600000
vt 0.000000 0.700000
vt 0.000000 0.900000
vt 0.500000 1.000000
vt 0.000000 1.000000
vt 0.000000 0.501953
vt 0.500000 1.000000
vt 0.501953 0.500000
vt 0.000000 0.501953
vt 0.500000 1.000000
vt 0.501953 0.500000
vt 0.000000 0.501953
vt 0.500000 1.000000
vt 0.501953 0.500000
vt 0.000000 0.501953
vt 0.500000 1.000000
vt 0.501953 0.500000
vt 0.500000 0.600000
vt 0.000000 1.000000
vt 0.500000 0.900000
vt 0.000000 0.600000
vt 0.500000 0.800000
vt 0.500000 0.700000
vt 0.500000 0.800000
vt 0.500000 0.600000
vt 0.500000 0.900000
vt 0.000000 1.000000
vt 0.000000 1.000000
vt 0.000000 0.500000
vt 0.000000 1.000000
vt 0.000000 0.000000
vt 0.500000 1.000000
vt 0.000000 0.500000
vt 0.500000 0.600000
vt 0.500000 0.900000
vt 0.000000 0.600000
vt 0.500000 0.800000
vt 0.500000 0.700000
vt 0.500000 0.800000
vt 0.500000 0.600000
vt 0.500000 0.900000
vt 0.000000 1.000000
vt 0.000000 1.000000
vt 0.000000 1.000000
vt 0.000000 1.000000
vn 0.0000 0.0000 1.0000
vn 0.0000 -1.0000 0.0000
vn -0.0000 1.0000 0.0000
vn 1.0000 0.0000 0.0000
vn -1.0000 -0.0000 0.0000
vn 0.0000 -0.0000 -1.0000
s off
f 9/1/1 12/2/1 11/3/1
f 7/4/2 4/5/2 3/6/2
f 6/7/3 9/8/3 2/9/3
f 6/10/1 1/11/1 5/12/1
f 12/13/3 13/14/3 11/15/3
f 14/16/1 15/17/1 13/18/1
f 16/19/3 17/20/3 15/17/3
f 17/21/1 20/22/1 19/23/1
f 20/24/3 21/25/3 19/26/3
f 21/27/1 24/28/1 23/29/1
f 27/30/4 26/31/4 25/32/4
f 31/33/5 30/34/5 29/35/5
f 35/36/2 34/37/2 33/38/2
f 39/39/6 38/40/6 37/41/6
f 30/42/1 47/43/1 45/44/1
f 32/45/1 45/46/1 30/47/1
f 28/48/1 43/49/1 26/50/1
f 52/51/1 55/52/1 54/53/1
f 51/54/3 52/55/3 49/56/3
f 51/57/1 48/58/1 50/59/1
f 55/60/3 56/61/3 54/62/3
f 57/63/1 58/64/1 56/65/1
f 59/66/3 60/67/3 58/64/3
f 60/68/1 63/69/1 62/70/1
f 63/71/3 64/72/3 62/73/3
f 64/74/1 67/75/1 66/76/1
f 71/77/2 70/78/2 69/79/2
f 75/80/2 74/81/2 73/82/2
f 79/83/5 78/84/5 77/85/5
f 83/86/4 82/87/4 81/88/4
f 9/1/1 10/89/1 12/2/1
f 7/4/2 8/90/2 4/5/2
f 6/7/3 10/91/3 9/8/3
f 6/10/1 2/92/1 1/11/1
f 12/13/3 14/93/3 13/14/3
f 14/16/1 16/19/1 15/17/1
f 16/19/3 18/94/3 17/20/3
f 17/21/1 18/95/1 20/22/1
f 20/24/3 22/96/3 21/25/3
f 21/27/1 22/97/1 24/28/1
f 27/30/4 28/98/4 26/31/4
f 31/33/5 32/99/5 30/34/5
f 35/36/2 36/100/2 34/37/2
f 39/39/6 40/101/6 38/40/6
f 30/42/1 42/102/1 47/43/1
f 32/45/1 46/103/1 45/46/1
f 28/48/1 44/104/1 43/49/1
f 52/51/1 53/105/1 55/52/1
f 51/54/3 53/106/3 52/55/3
f 51/57/1 49/107/1 48/58/1
f 55/60/3 57/108/3 56/61/3
f 57/63/1 59/66/1 58/64/1
f 59/66/3 61/109/3 60/67/3
f 60/68/1 61/110/1 63/69/1
f 63/71/3 65/111/3 64/72/3
f 64/74/1 65/112/1 67/75/1
f 71/77/2 72/113/2 70/78/2
f 75/80/2 76/114/2 74/81/2
f 79/83/5 80/115/5 78/84/5
f 83/86/4 84/116/4 82/87/4
l 5 41
l 50 68
