# Blender v3.0.1 OBJ File: 'tech_tiles.blend'
# www.blender.org
o Plane.002
v -0.500000 -0.500000 0.000000
v 0.500000 -0.500000 0.000000
v -0.500000 0.500000 0.000000
v 0.500000 0.500000 0.000000
v -0.500000 -0.500000 1.000000
v 0.500000 -0.500000 1.000000
v -0.500000 0.500000 1.000000
v 0.500000 0.500000 1.000000
v 0.400000 0.500000 0.000000
v 0.400000 0.500000 1.000000
v 0.500000 -0.500000 0.100000
v 0.500000 -0.500000 0.900000
v 0.400000 -0.500000 0.000000
v 0.400000 -0.500000 1.000000
v 0.500000 0.500000 0.900000
v 0.500000 0.500000 0.100000
v 0.500000 0.500000 0.000000
v 0.500000 0.500000 1.000000
v 0.500000 -0.500000 0.000000
v 0.500000 -0.500000 1.000000
v -0.400000 -0.500000 0.000000
v -0.400000 -0.500000 1.000000
v -0.500000 0.500000 0.100000
v -0.500000 0.500000 0.900000
v -0.400000 0.500000 0.000000
v -0.400000 0.500000 1.000000
v -0.500000 -0.500000 0.900000
v -0.500000 -0.500000 0.100000
v -0.500000 -0.500000 0.000000
v -0.500000 -0.500000 1.000000
v -0.500000 0.500000 0.000000
v -0.500000 0.500000 1.000000
v -0.500000 -0.000000 0.000000
v -0.500000 -0.000000 1.000000
v 0.500000 0.000000 0.000000
v 0.500000 0.000000 1.000000
v 0.400000 0.100000 0.000000
v 0.400000 0.100000 1.000000
v 0.500000 -0.100000 0.100000
v 0.500000 -0.100000 0.900000
v 0.400000 -0.100000 0.000000
v 0.400000 -0.100000 1.000000
v 0.500000 0.100000 0.900000
v 0.500000 0.100000 0.100000
v -0.400000 -0.100000 0.000000
v -0.400000 -0.100000 1.000000
v -0.500000 0.100000 0.100000
v -0.500000 0.100000 0.900000
v -0.400000 0.100000 0.000000
v -0.400000 0.100000 1.000000
v -0.500000 -0.100000 0.900000
v -0.500000 -0.100000 0.100000
v 0.400000 0.100000 0.900000
v 0.300000 0.100000 1.000000
v 0.400000 -0.100000 0.900000
v 0.400000 -0.100000 0.100000
v 0.400000 0.100000 0.100000
v 0.300000 -0.100000 1.000000
v 0.300000 0.100000 0.000000
v 0.300000 -0.100000 0.000000
v -0.400000 -0.100000 0.900000
v -0.300000 -0.100000 1.000000
v -0.400000 0.100000 0.900000
v -0.400000 0.100000 0.100000
v -0.400000 -0.100000 0.100000
v -0.300000 0.100000 1.000000
v -0.300000 -0.100000 0.000000
v -0.300000 0.100000 0.000000
v -0.500000 -0.171000 0.269000
v -0.500000 -0.171000 0.109000
v -0.420000 -0.135000 0.220789
v -0.420000 -0.135000 0.157211
v -0.500000 -0.099000 0.269000
v -0.500000 -0.099000 0.109000
v -0.420000 -0.099000 0.220789
v -0.420000 -0.099000 0.157211
v -0.494325 -0.163067 0.248108
v -0.494325 -0.163067 0.129892
v -0.428000 -0.135000 0.212487
v -0.428000 -0.135000 0.165513
v -0.428000 -0.104704 0.212487
v -0.428000 -0.104704 0.165513
v -0.500000 -0.171000 0.889000
v -0.500000 -0.171000 0.729000
v -0.420000 -0.135000 0.840789
v -0.420000 -0.135000 0.777211
v -0.500000 -0.099000 0.889000
v -0.500000 -0.099000 0.729000
v -0.420000 -0.099000 0.840789
v -0.420000 -0.099000 0.777211
v -0.494325 -0.163067 0.868109
v -0.494325 -0.163067 0.749892
v -0.428000 -0.135000 0.832487
v -0.428000 -0.135000 0.785513
v -0.428000 -0.104704 0.832487
v -0.428000 -0.104704 0.785513
v -0.500000 -0.171000 0.579000
v -0.500000 -0.171000 0.419000
v -0.420000 -0.135000 0.530789
v -0.420000 -0.135000 0.467211
v -0.500000 -0.099000 0.579000
v -0.500000 -0.099000 0.419000
v -0.420000 -0.099000 0.530789
v -0.420000 -0.099000 0.467211
v -0.494325 -0.163067 0.558108
v -0.494325 -0.163067 0.439892
v -0.428000 -0.135000 0.522487
v -0.428000 -0.135000 0.475513
v -0.428000 -0.104704 0.522487
v -0.428000 -0.104704 0.475513
v 0.500000 -0.171000 0.269000
v 0.500000 -0.171000 0.109000
v 0.420000 -0.135000 0.220789
v 0.420000 -0.135000 0.157211
v 0.500000 -0.099000 0.269000
v 0.500000 -0.099000 0.109000
v 0.420000 -0.099000 0.220789
v 0.420000 -0.099000 0.157211
v 0.494325 -0.163067 0.248108
v 0.494325 -0.163067 0.129892
v 0.428000 -0.135000 0.212487
v 0.428000 -0.135000 0.165513
v 0.428000 -0.104704 0.212487
v 0.428000 -0.104704 0.165513
v 0.500000 -0.171000 0.889000
v 0.500000 -0.171000 0.729000
v 0.420000 -0.135000 0.840789
v 0.420000 -0.135000 0.777211
v 0.500000 -0.099000 0.889000
v 0.500000 -0.099000 0.729000
v 0.420000 -0.099000 0.840789
v 0.420000 -0.099000 0.777211
v 0.494325 -0.163067 0.868109
v 0.494325 -0.163067 0.749892
v 0.428000 -0.135000 0.832487
v 0.428000 -0.135000 0.785513
v 0.428000 -0.104704 0.832487
v 0.428000 -0.104704 0.785513
v 0.500000 -0.171000 0.579000
v 0.500000 -0.171000 0.419000
v 0.420000 -0.135000 0.530789
v 0.420000 -0.135000 0.467211
v 0.500000 -0.099000 0.579000
v 0.500000 -0.099000 0.419000
v 0.420000 -0.099000 0.530789
v 0.420000 -0.099000 0.467211
v 0.494325 -0.163067 0.558108
v 0.494325 -0.163067 0.439892
v 0.428000 -0.135000 0.522487
v 0.428000 -0.135000 0.475513
v 0.428000 -0.104704 0.522487
v 0.428000 -0.104704 0.475513
vt 1.000000 0.000000
vt 0.500000 0.500000
vt 0.500000 0.000000
vt 0.500000 0.500000
vt 1.000000 0.000000
vt 0.500000 0.000000
vt 0.500000 0.937500
vt 0.000000 0.562500
vt 0.500000 0.562500
vt 0.000000 0.500000
vt 0.500000 0.500000
vt 0.000000 1.000000
vt 0.000000 0.937500
vt 0.439453 0.500000
vt 0.500000 0.500000
vt 0.500000 0.562500
vt 0.500000 0.500000
vt 0.439453 0.500000
vt 0.439453 1.000000
vt 0.500000 1.000000
vt 0.500000 0.937500
vt 0.500000 1.000000
vt 0.439453 1.000000
vt 0.500000 0.937500
vt 0.000000 0.562500
vt 0.500000 0.562500
vt 0.500000 0.500000
vt 0.000000 0.500000
vt 0.500000 1.000000
vt 0.000000 0.937500
vt 0.439453 0.500000
vt 0.500000 0.500000
vt 0.500000 0.562500
vt 0.500000 0.500000
vt 0.439453 0.500000
vt 0.439453 1.000000
vt 0.500000 1.000000
vt 0.500000 0.937500
vt 0.500000 1.000000
vt 0.439453 1.000000
vt 0.000000 0.562500
vt 0.500000 0.937500
vt 0.500000 0.562500
vt 0.500000 0.500000
vt 0.000000 0.937500
vt 0.500000 1.000000
vt 0.000000 0.562500
vt 0.500000 0.937500
vt 0.500000 0.562500
vt 0.000000 0.500000
vt 0.500000 0.500000
vt 0.000000 1.000000
vt 0.500000 1.000000
vt 0.237500 0.937500
vt 0.137500 0.562500
vt 0.237500 0.562500
vt 0.237500 0.500000
vt 0.137500 0.500000
vt 0.237500 1.000000
vt 0.137500 0.937500
vt 0.237500 0.937500
vt 0.137500 0.562500
vt 0.237500 0.562500
vt 0.137500 0.500000
vt 0.237500 0.500000
vt 0.137500 1.000000
vt 0.137500 0.937500
vt 0.144135 0.998177
vt 0.144135 0.936539
vt 0.193859 0.998177
vt 0.095057 0.562575
vt 0.144781 0.936539
vt 0.095057 0.936539
vt 0.144781 0.500938
vt 0.144781 0.562575
vt 0.144781 0.500938
vt 0.144781 0.562575
vt 0.194505 0.500938
vt 0.144781 0.998177
vt 0.194505 0.998177
vt 0.094411 0.936539
vt 0.144135 0.562575
vt 0.094411 0.562575
vt 0.144135 0.998177
vt 0.144135 0.936539
vt 0.094411 0.562575
vt 0.094411 0.936539
vt 0.095057 0.936539
vt 0.095057 0.562575
vt 0.144135 0.500938
vt 0.144135 0.562575
vt 0.144781 0.998177
vt 0.144781 0.936539
vt 0.144135 0.500938
vt 0.193859 0.500938
vt 0.211233 0.992654
vt 0.115610 0.503419
vt 0.211233 0.503419
vt 0.539128 0.675994
vt 0.515447 0.596651
vt 0.526358 0.690511
vt 0.532314 0.609455
vt 0.572462 0.574771
vt 0.515447 0.596651
vt 0.532314 0.609455
vt 0.572462 0.574771
vt 0.539128 0.675994
vt 0.526358 0.690511
vt 0.678563 0.772182
vt 0.515447 0.835050
vt 0.678563 0.897919
vt 0.736624 0.772332
vt 0.899740 0.835201
vt 0.899740 0.709464
vt 0.671963 0.939572
vt 0.585419 0.999410
vt 0.634639 0.999410
vt 0.570488 0.942922
vt 0.652522 0.995831
vt 0.652522 0.942922
vt 0.719799 0.539259
vt 0.736480 0.772037
vt 0.736480 0.502871
vt 0.579576 0.701942
vt 0.719835 0.736323
vt 0.678563 0.772182
vt 0.515447 0.835050
vt 0.678563 0.897919
vt 0.736624 0.772332
vt 0.899740 0.835201
vt 0.899740 0.709464
vt 0.548095 0.939572
vt 0.634639 0.999410
vt 0.671963 0.939572
vt 0.570488 0.942922
vt 0.652522 0.995831
vt 0.652522 0.942922
vt 0.719799 0.539259
vt 0.736480 0.772037
vt 0.736480 0.502871
vt 0.579576 0.701942
vt 0.719835 0.736323
vt 0.532314 0.609455
vt 0.572462 0.574771
vt 0.515447 0.596651
vt 0.539128 0.675994
vt 0.526358 0.690511
vt 0.678563 0.772182
vt 0.515447 0.835050
vt 0.678563 0.897919
vt 0.736624 0.772332
vt 0.899740 0.835201
vt 0.899740 0.709464
vt 0.671963 0.939572
vt 0.585419 0.999410
vt 0.634639 0.999410
vt 0.570488 0.942922
vt 0.652522 0.995831
vt 0.652522 0.942922
vt 0.719799 0.539259
vt 0.736480 0.772037
vt 0.736480 0.502871
vt 0.579576 0.701942
vt 0.719835 0.736323
vt 0.515447 0.596651
vt 0.539128 0.675994
vt 0.526358 0.690511
vt 0.572462 0.574771
vt 0.532314 0.609455
vt 0.515447 0.596651
vt 0.572462 0.574771
vt 0.532314 0.609455
vt 0.539128 0.675994
vt 0.526358 0.690511
vt 0.515447 0.835050
vt 0.678563 0.772182
vt 0.678563 0.897919
vt 0.736624 0.772332
vt 0.899740 0.835201
vt 0.736624 0.835201
vt 0.634639 0.999410
vt 0.548095 0.939572
vt 0.671963 0.939572
vt 0.570488 0.942922
vt 0.652522 0.995831
vt 0.570488 0.995830
vt 0.736480 0.772037
vt 0.719799 0.539259
vt 0.736480 0.502871
vt 0.579576 0.701942
vt 0.587378 0.683777
vt 0.582389 0.593507
vt 0.719835 0.736323
vt 0.515447 0.835050
vt 0.678563 0.772182
vt 0.678563 0.897919
vt 0.736624 0.772332
vt 0.899740 0.835201
vt 0.736624 0.835201
vt 0.634639 0.999410
vt 0.548095 0.939572
vt 0.671963 0.939572
vt 0.570488 0.942922
vt 0.652522 0.995831
vt 0.570488 0.995830
vt 0.736480 0.772037
vt 0.719799 0.539259
vt 0.736480 0.502871
vt 0.579576 0.701942
vt 0.587378 0.683777
vt 0.582389 0.593507
vt 0.719835 0.736323
vt 0.572462 0.574771
vt 0.532314 0.609455
vt 0.515447 0.596651
vt 0.539128 0.675994
vt 0.526358 0.690511
vt 0.515447 0.835050
vt 0.678563 0.772182
vt 0.678563 0.897919
vt 0.736624 0.772332
vt 0.899740 0.835201
vt 0.736624 0.835201
vt 0.634639 0.999410
vt 0.548095 0.939572
vt 0.671963 0.939572
vt 0.570488 0.942922
vt 0.652522 0.995831
vt 0.570488 0.995830
vt 0.736480 0.772037
vt 0.719799 0.539259
vt 0.736480 0.502871
vt 0.579576 0.701942
vt 0.587378 0.683777
vt 0.582389 0.593507
vt 0.719835 0.736323
vt 1.000000 0.500000
vt 1.000000 0.500000
vt 0.500000 1.000000
vt 0.000000 1.000000
vt 0.000000 0.500000
vt 0.000000 1.000000
vt 0.000000 0.937500
vt 0.137500 1.000000
vt 0.237500 1.000000
vt 0.194505 0.500938
vt 0.193859 0.998177
vt 0.193859 0.500938
vt 0.194505 0.998177
vt 0.115610 0.992654
vt 0.582389 0.593507
vt 0.582389 0.593507
vt 0.515447 0.772182
vt 0.736624 0.835201
vt 0.548095 0.939572
vt 0.570488 0.995830
vt 0.587378 0.683777
vt 0.515447 0.772182
vt 0.736624 0.835201
vt 0.585419 0.999410
vt 0.570488 0.995830
vt 0.587378 0.683777
vt 0.582389 0.593507
vt 0.515447 0.772182
vt 0.736624 0.835201
vt 0.548095 0.939572
vt 0.570488 0.995830
vt 0.587378 0.683777
vt 0.515447 0.772182
vt 0.899740 0.709464
vt 0.585419 0.999410
vt 0.652522 0.942922
vt 0.515447 0.772182
vt 0.899740 0.709464
vt 0.585419 0.999410
vt 0.652522 0.942922
vt 0.515447 0.772182
vt 0.899740 0.709464
vt 0.585419 0.999410
vt 0.652522 0.942922
vn 0.0000 0.0000 1.0000
vn 0.0000 0.0000 -1.0000
vn -1.0000 -0.0000 0.0000
vn -0.7071 -0.0000 0.7071
vn -0.7071 -0.0000 -0.7071
vn 0.0000 -1.0000 0.0000
vn -0.0000 1.0000 0.0000
vn 1.0000 -0.0000 0.0000
vn 0.7071 -0.0000 0.7071
vn 0.7071 -0.0000 -0.7071
vn 0.5805 -0.8142 0.0000
vn 0.7201 0.0000 0.6939
vn 0.5162 0.0000 -0.8565
vn 0.5162 0.0000 0.8565
vn 0.3897 -0.9209 -0.0000
vn 0.8133 -0.5818 -0.0000
vn 0.7201 0.0000 -0.6939
vn 0.2450 -0.9266 0.2853
vn 0.2450 -0.9266 -0.2853
vn -0.5805 -0.8142 0.0000
vn -0.7201 0.0000 0.6939
vn -0.5162 0.0000 -0.8565
vn -0.5162 0.0000 0.8565
vn -0.3897 -0.9209 -0.0000
vn -0.8133 -0.5818 -0.0000
vn -0.7201 0.0000 -0.6939
vn -0.2600 -0.9325 0.2506
vn -0.2450 -0.9266 -0.2853
vn 0.2600 -0.9325 0.2506
vn 0.2600 -0.9325 -0.2506
vn -0.5805 -0.8143 -0.0000
vn -0.2450 -0.9266 0.2853
vn -0.2600 -0.9325 -0.2506
s off
f 2/1/1 3/2/1 1/3/1
f 7/4/2 6/5/2 5/6/2
f 12/7/3 16/8/3 11/9/3
f 11/9/4 9/10/4 13/11/4
f 12/7/5 10/12/5 15/13/5
f 13/14/6 19/15/6 11/9/6
f 16/16/7 17/17/7 9/18/7
f 10/19/7 18/20/7 15/21/7
f 12/7/6 20/22/6 14/23/6
f 24/24/8 28/25/8 23/26/8
f 25/27/9 28/25/9 21/28/9
f 26/29/10 27/30/10 24/24/10
f 25/31/7 31/32/7 23/26/7
f 28/33/6 29/34/6 21/35/6
f 22/36/6 30/37/6 27/38/6
f 24/24/7 32/39/7 26/40/7
f 44/41/8 40/42/8 39/43/8
f 41/44/10 44/41/10 39/43/10
f 43/45/9 42/46/9 40/42/9
f 52/47/3 48/48/3 47/49/3
f 45/50/5 47/49/5 49/51/5
f 48/48/4 46/52/4 50/53/4
f 55/54/3 57/55/3 56/56/3
f 60/57/4 57/55/4 59/58/4
f 58/59/5 53/60/5 55/54/5
f 63/61/8 65/62/8 64/63/8
f 64/63/9 67/64/9 68/65/9
f 63/61/10 62/66/10 61/67/10
f 38/68/7 53/69/7 54/70/7
f 52/71/6 61/72/6 51/73/6
f 45/74/6 65/75/6 52/71/6
f 49/76/7 64/77/7 68/78/7
f 46/79/6 61/72/6 62/80/6
f 40/81/6 56/82/6 39/83/6
f 42/84/6 55/85/6 40/81/6
f 44/86/7 53/69/7 43/87/7
f 48/88/7 64/77/7 47/89/7
f 37/90/7 57/91/7 44/86/7
f 50/92/7 63/93/7 48/88/7
f 41/94/6 56/82/6 60/95/6
f 8/96/6 3/97/6 4/98/6
f 81/99/11 76/100/11 75/101/11
f 96/102/12 86/103/12 90/104/12
f 82/105/12 72/106/12 76/100/12
f 95/107/11 90/104/11 89/108/11
f 74/109/13 72/110/13 70/111/13
f 71/112/14 73/113/14 69/114/14
f 77/115/15 80/116/15 79/117/15
f 80/118/8 81/119/8 79/120/8
f 78/121/16 69/122/16 70/123/16
f 71/124/17 81/99/17 75/101/17
f 72/106/18 78/121/18 70/123/18
f 77/125/19 71/124/19 69/122/19
f 88/126/13 86/127/13 84/128/13
f 85/129/14 87/130/14 83/131/14
f 92/132/15 93/133/15 91/134/15
f 94/135/8 95/136/8 93/137/8
f 92/138/16 83/139/16 84/140/16
f 85/141/17 95/107/17 89/108/17
f 86/103/18 92/138/18 84/140/18
f 91/142/19 85/141/19 83/139/19
f 110/143/12 100/144/12 104/145/12
f 109/146/11 104/145/11 103/147/11
f 102/148/13 100/149/13 98/150/13
f 99/151/14 101/152/14 97/153/14
f 105/154/15 108/155/15 107/156/15
f 108/157/8 109/158/8 107/159/8
f 106/160/16 97/161/16 98/162/16
f 99/163/17 109/146/17 103/147/17
f 100/144/18 106/160/18 98/162/18
f 105/164/19 99/163/19 97/161/19
f 118/165/20 123/166/20 117/167/20
f 128/168/21 138/169/21 132/170/21
f 114/171/21 124/172/21 118/165/21
f 132/170/20 137/173/20 131/174/20
f 114/175/22 116/176/22 112/177/22
f 113/178/23 115/179/23 117/180/23
f 121/181/24 120/182/24 119/183/24
f 122/184/3 123/185/3 124/186/3
f 111/187/25 120/188/25 112/189/25
f 113/190/26 123/166/26 121/191/26
f 114/171/27 120/188/27 122/192/27
f 113/190/28 119/193/28 111/187/28
f 128/194/22 130/195/22 126/196/22
f 127/197/23 129/198/23 131/199/23
f 135/200/24 134/201/24 133/202/24
f 136/203/3 137/204/3 138/205/3
f 125/206/25 134/207/25 126/208/25
f 127/209/26 137/173/26 135/210/26
f 128/168/27 134/207/27 136/211/27
f 127/209/28 133/212/28 125/206/28
f 142/213/21 152/214/21 146/215/21
f 146/215/20 151/216/20 145/217/20
f 142/218/22 144/219/22 140/220/22
f 141/221/23 143/222/23 145/223/23
f 149/224/24 148/225/24 147/226/24
f 150/227/3 151/228/3 152/229/3
f 139/230/25 148/231/25 140/232/25
f 141/233/26 151/216/26 149/234/26
f 142/213/27 148/231/27 150/235/27
f 141/233/28 147/236/28 139/230/28
f 2/1/1 4/237/1 3/2/1
f 7/4/2 8/238/2 6/5/2
f 12/7/3 15/13/3 16/8/3
f 11/9/4 16/8/4 9/10/4
f 12/7/5 14/239/5 10/12/5
f 24/24/8 27/30/8 28/25/8
f 25/27/9 23/26/9 28/25/9
f 26/29/10 22/240/10 27/30/10
f 44/41/8 43/45/8 40/42/8
f 41/44/10 37/241/10 44/41/10
f 43/45/9 38/242/9 42/46/9
f 52/47/3 51/243/3 48/48/3
f 45/50/5 52/47/5 47/49/5
f 48/48/4 51/243/4 46/52/4
f 55/54/3 53/60/3 57/55/3
f 60/57/4 56/56/4 57/55/4
f 58/59/5 54/244/5 53/60/5
f 63/61/8 61/67/8 65/62/8
f 64/63/9 65/62/9 67/64/9
f 63/61/10 66/245/10 62/66/10
f 38/68/7 43/87/7 53/69/7
f 52/71/6 65/75/6 61/72/6
f 45/74/6 67/246/6 65/75/6
f 49/76/7 47/89/7 64/77/7
f 46/79/6 51/73/6 61/72/6
f 40/81/6 55/85/6 56/82/6
f 42/84/6 58/247/6 55/85/6
f 44/86/7 57/91/7 53/69/7
f 48/88/7 63/93/7 64/77/7
f 37/90/7 59/248/7 57/91/7
f 50/92/7 66/249/7 63/93/7
f 41/94/6 39/83/6 56/82/6
f 8/96/6 7/250/6 3/97/6
f 81/99/11 82/105/11 76/100/11
f 96/102/12 94/251/12 86/103/12
f 82/105/12 80/252/12 72/106/12
f 95/107/11 96/102/11 90/104/11
f 74/109/13 76/253/13 72/110/13
f 71/112/14 75/254/14 73/113/14
f 77/115/15 78/255/15 80/116/15
f 80/118/8 82/256/8 81/119/8
f 78/121/16 77/125/16 69/122/16
f 71/124/17 79/257/17 81/99/17
f 72/106/29 80/252/29 78/121/29
f 77/125/30 79/257/30 71/124/30
f 88/126/13 90/258/13 86/127/13
f 85/129/14 89/259/14 87/130/14
f 92/132/15 94/260/15 93/133/15
f 94/135/8 96/261/8 95/136/8
f 92/138/16 91/142/16 83/139/16
f 85/141/17 93/262/17 95/107/17
f 86/103/29 94/251/29 92/138/29
f 91/142/30 93/262/30 85/141/30
f 110/143/12 108/263/12 100/144/12
f 109/146/11 110/143/11 104/145/11
f 102/148/13 104/264/13 100/149/13
f 99/151/14 103/265/14 101/152/14
f 105/154/15 106/266/15 108/155/15
f 108/157/8 110/267/8 109/158/8
f 106/160/16 105/164/16 97/161/16
f 99/163/17 107/268/17 109/146/17
f 100/144/29 108/263/29 106/160/29
f 105/164/30 107/268/30 99/163/30
f 118/165/20 124/172/20 123/166/20
f 128/168/21 136/211/21 138/169/21
f 114/171/21 122/192/21 124/172/21
f 132/170/31 138/169/31 137/173/31
f 114/175/22 118/269/22 116/176/22
f 113/178/23 111/270/23 115/179/23
f 121/181/24 122/271/24 120/182/24
f 122/184/3 121/272/3 123/185/3
f 111/187/25 119/193/25 120/188/25
f 113/190/26 117/167/26 123/166/26
f 114/171/32 112/189/32 120/188/32
f 113/190/33 121/191/33 119/193/33
f 128/194/22 132/273/22 130/195/22
f 127/197/23 125/274/23 129/198/23
f 135/200/24 136/275/24 134/201/24
f 136/203/3 135/276/3 137/204/3
f 125/206/25 133/212/25 134/207/25
f 127/209/26 131/174/26 137/173/26
f 128/168/32 126/208/32 134/207/32
f 127/209/33 135/210/33 133/212/33
f 142/213/21 150/235/21 152/214/21
f 146/215/20 152/214/20 151/216/20
f 142/218/22 146/277/22 144/219/22
f 141/221/23 139/278/23 143/222/23
f 149/224/24 150/279/24 148/225/24
f 150/227/3 149/280/3 151/228/3
f 139/230/25 147/236/25 148/231/25
f 141/233/26 145/217/26 151/216/26
f 142/213/32 140/232/32 148/231/32
f 141/233/33 149/234/33 147/236/33
