# Blender v3.0.1 OBJ File: 'bench.blend'
# www.blender.org
o Cube
v -0.500000 -0.124000 0.000000
v -0.500000 -0.084000 0.280000
v -0.500000 0.004000 0.000000
v -0.500000 -0.036000 0.280000
v 0.500000 -0.124000 0.000000
v 0.500000 -0.084000 0.280000
v 0.500000 0.004000 0.000000
v 0.500000 -0.036000 0.280000
v -0.500000 -0.140000 0.320000
v -0.500000 0.140000 0.320000
v 0.500000 -0.140000 0.320000
v 0.500000 0.140000 0.320000
v -0.500000 0.168000 0.280000
v 0.500000 0.168000 0.280000
v 0.500000 -0.168000 0.280000
v -0.500000 -0.168000 0.280000
v -0.500000 0.168000 0.320000
v 0.500000 0.168000 0.320000
v 0.500000 -0.168000 0.320000
v -0.500000 -0.168000 0.320000
vt 0.718750 0.843750
vt 0.125000 0.531250
vt 0.875000 0.531250
vt 1.000000 0.406250
vt 0.562500 0.250000
vt 1.000000 0.250000
vt 0.718750 0.843750
vt 0.125000 0.531250
vt 0.875000 0.531250
vt 1.000000 0.406250
vt 0.562500 0.250000
vt 1.000000 0.250000
vt 0.281250 0.843750
vt 0.875000 0.968750
vt 0.125000 0.968750
vt 0.468750 0.093750
vt 0.062500 0.406250
vt 0.062500 0.093750
vt 0.562500 0.468750
vt 0.562500 0.406250
vt 0.468750 0.093750
vt 0.125000 0.968750
vt 0.281250 0.843750
vt 0.062500 0.468750
vt 0.468750 0.437500
vt 0.468750 0.468750
vt 0.468750 0.031250
vt 0.062500 0.093750
vt 0.062500 0.031250
vt 0.062500 0.843750
vt 0.968750 0.843750
vt 0.968750 0.968750
vt 0.562500 0.468750
vt 0.562500 0.406250
vt 0.875000 0.968750
vt 0.968750 0.843750
vt 0.968750 0.968750
vt 0.062500 0.843750
vt 0.468750 0.406250
vt 0.062500 0.437500
vt 1.000000 0.468750
vt 0.062500 0.968750
vt 1.000000 0.468750
vt 0.062500 0.968750
vn -1.0000 0.0000 0.0000
vn 0.0000 0.9899 0.1414
vn 1.0000 0.0000 0.0000
vn 0.0000 -0.9899 0.1414
vn 0.0000 0.0000 1.0000
vn 0.0000 0.0000 -1.0000
vn 0.0000 -1.0000 0.0000
vn 0.0000 1.0000 0.0000
s off
f 2/1/1 3/2/1 1/3/1
f 4/4/2 7/5/2 3/6/2
f 8/7/3 5/8/3 7/9/3
f 6/10/4 1/11/4 5/12/4
f 4/13/1 9/14/1 10/15/1
f 10/16/5 11/17/5 12/18/5
f 6/10/6 16/19/6 2/20/6
f 12/18/5 17/21/5 10/16/5
f 8/7/3 11/22/3 6/23/3
f 15/24/7 20/25/7 16/26/7
f 13/27/8 18/28/8 14/29/8
f 11/22/3 15/30/3 6/23/3
f 9/14/1 16/31/1 20/32/1
f 4/4/6 14/33/6 8/34/6
f 12/35/3 14/36/3 18/37/3
f 10/15/1 13/38/1 4/13/1
f 9/39/5 19/40/5 11/17/5
f 2/1/1 4/13/1 3/2/1
f 4/4/2 8/34/2 7/5/2
f 8/7/3 6/23/3 5/8/3
f 6/10/4 2/20/4 1/11/4
f 4/13/1 2/1/1 9/14/1
f 10/16/5 9/39/5 11/17/5
f 6/10/6 15/41/6 16/19/6
f 12/18/5 18/28/5 17/21/5
f 8/7/3 12/35/3 11/22/3
f 15/24/7 19/40/7 20/25/7
f 13/27/8 17/21/8 18/28/8
f 11/22/3 19/42/3 15/30/3
f 9/14/1 2/1/1 16/31/1
f 4/4/6 13/43/6 14/33/6
f 12/35/3 8/7/3 14/36/3
f 10/15/1 17/44/1 13/38/1
f 9/39/5 20/25/5 19/40/5
