# Blender v3.0.1 OBJ File: 'command.blend'
# www.blender.org
o Cylinder
v -2.000000 1.732051 0.000000
v -0.820000 -1.900874 1.080000
v 2.000000 1.732051 0.000000
v 1.400000 1.212435 1.800000
v 3.000000 -0.000000 0.000000
v 2.100000 -0.000000 1.800000
v 2.000000 -1.732051 0.000000
v 0.820000 -1.900874 1.080000
v -2.000000 -1.732051 0.000000
v -1.400000 -1.212435 1.800000
v -3.000000 -0.000000 0.000000
v 0.820000 -1.420282 1.080000
v -1.400000 1.212435 1.800000
v -0.820000 -1.420282 1.080000
v -1.000000 -1.732051 0.000000
v 1.400000 -1.212436 1.800000
v 1.000000 -1.732051 0.000000
v -2.100000 -0.000000 1.800000
v -1.000000 -1.932051 0.000000
v 1.000000 -1.932051 0.000000
v -0.610000 -1.900874 0.880000
v 0.610000 -1.900874 0.880000
v -0.734891 -1.932051 0.000000
v 0.734891 -1.932051 0.000000
v -0.610000 -1.816463 0.880000
v 0.610000 -1.816463 0.880000
v -0.734891 -1.816463 0.000000
v 0.734891 -1.816463 0.000000
v 0.000000 1.000000 1.800000
v 0.000000 0.600000 2.981115
v 0.707107 0.707107 1.800000
v 0.424264 0.424264 2.981115
v 1.000000 -0.000000 1.800000
v 0.600000 -0.000000 2.981115
v 0.707107 -0.707107 1.800000
v 0.424264 -0.424264 2.981115
v -0.000000 -1.000000 1.800000
v -0.000000 -0.600000 2.981115
v -0.707107 -0.707107 1.800000
v -0.424264 -0.424264 2.981115
v -1.000000 0.000000 1.800000
v -0.600000 0.000000 2.981115
v -0.707107 0.707107 1.800000
v -0.424264 0.424264 2.981115
v -0.000000 1.327181 2.988918
v -0.000000 1.327181 3.773312
v 0.938459 0.938459 2.988918
v 0.938459 0.938459 3.773312
v 1.327181 -0.000000 2.988918
v 1.327181 -0.000000 3.773312
v 0.938459 -0.938459 2.988918
v 0.938459 -0.938459 3.773312
v -0.000000 -1.327181 2.988918
v -0.000000 -1.327181 3.773312
v -0.938459 -0.938459 2.988918
v -0.938459 -0.938459 3.773312
v -1.327181 -0.000000 2.988918
v -1.327181 -0.000000 3.773312
v -0.938459 0.938459 2.988918
v -0.938459 0.938459 3.773312
v 1.129936 1.129936 3.497891
v 1.129936 1.129936 3.264339
v 0.000000 1.597971 3.264339
v 0.000000 1.597971 3.497891
v 1.597971 -0.000000 3.497891
v 1.597971 -0.000000 3.264339
v 1.129936 -1.129936 3.497891
v 1.129936 -1.129936 3.264339
v -0.000000 -1.597971 3.497891
v -0.000000 -1.597971 3.264339
v -1.129936 -1.129936 3.497891
v -1.129936 -1.129936 3.264339
v -1.597971 0.000000 3.497891
v -1.597971 0.000000 3.264339
v -1.129936 1.129936 3.497891
v -1.129936 1.129936 3.264339
v -0.000000 1.530761 3.612364
v -0.000000 1.440498 3.704171
v 1.018586 1.018586 3.704171
v 1.082412 1.082412 3.612364
v 1.440498 -0.000000 3.704171
v 1.530761 -0.000000 3.612364
v 1.018586 -1.018586 3.704171
v 1.082412 -1.082412 3.612364
v -0.000000 -1.440498 3.704171
v -0.000000 -1.530761 3.612364
v -1.018586 -1.018586 3.704171
v -1.082411 -1.082412 3.612364
v -1.440498 -0.000000 3.704171
v -1.530761 -0.000000 3.612364
v -1.018586 1.018586 3.704171
v -1.082412 1.082411 3.612364
v 1.058859 1.058859 3.092339
v 1.497452 -0.000000 3.092339
v 1.058859 -1.058859 3.092339
v -0.000000 -1.497452 3.092339
v -1.058859 -1.058859 3.092339
v -1.497452 -0.000000 3.092339
v -1.058859 1.058859 3.092339
v -0.000000 1.497452 3.092339
vt 0.648438 0.445312
vt 0.765625 0.234375
vt 0.765625 0.476562
vt 0.617188 0.195312
vt 0.718750 0.125000
vt 0.632812 0.046875
vt 0.960938 0.554688
vt 0.890625 0.460938
vt 0.960938 0.468750
vt 0.632812 0.671875
vt 0.617188 0.523438
vt 0.718750 0.593750
vt 0.976562 0.070312
vt 0.976562 0.242188
vt 0.828125 0.070312
vt 0.960938 0.312500
vt 0.890625 0.406250
vt 0.851562 0.351562
vt 0.851562 0.515625
vt 0.937500 0.914062
vt 0.945312 0.851562
vt 0.953125 0.914062
vt 0.937500 0.734375
vt 0.945312 0.796875
vt 0.921875 0.796875
vt 0.921875 0.851562
vt 0.523438 0.804688
vt 0.539062 0.843750
vt 0.523438 0.859375
vt 0.593750 0.867188
vt 0.593750 0.851562
vt 0.593750 0.796875
vt 0.539062 0.820312
vt 0.375000 0.218750
vt 0.289062 0.257812
vt 0.367188 0.210938
vt 0.460938 0.226562
vt 0.468750 0.218750
vt 0.273438 0.351562
vt 0.257812 0.351562
vt 0.523438 0.289062
vt 0.531250 0.281250
vt 0.289062 0.437500
vt 0.375000 0.484375
vt 0.367188 0.492188
vt 0.664062 0.898438
vt 0.726562 0.750000
vt 0.875000 0.812500
vt 0.468750 0.484375
vt 0.460938 0.476562
vt 0.531250 0.421875
vt 0.335938 0.984375
vt 0.273438 0.835938
vt 0.421875 0.773438
vt 0.187500 0.085938
vt 0.289062 0.070312
vt 0.195312 0.101562
vt 0.179688 0.070312
vt 0.289062 0.054688
vt 0.125000 0.164062
vt 0.093750 0.140625
vt 0.109375 0.156250
vt 0.054688 0.242188
vt 0.078125 0.242188
vt 0.039062 0.234375
vt 0.039062 0.335938
vt 0.054688 0.335938
vt 0.023438 0.335938
vt 0.289062 0.601562
vt 0.187500 0.593750
vt 0.195312 0.578125
vt 0.289062 0.625000
vt 0.179688 0.609375
vt 0.062500 0.437500
vt 0.078125 0.429688
vt 0.039062 0.445312
vt 0.125000 0.515625
vt 0.109375 0.523438
vt 0.093750 0.539062
vt 0.093750 0.429688
vt 0.140625 0.500000
vt 0.203125 0.562500
vt 0.078125 0.335938
vt 0.289062 0.585938
vt 0.093750 0.250000
vt 0.132812 0.171875
vt 0.203125 0.117188
vt 0.289062 0.085938
vt 0.648438 0.273438
vt 0.554688 0.140625
vt 0.554688 0.578125
vt 0.898438 0.281250
vt 0.828125 0.242188
vt 0.898438 0.031250
vt 0.960938 0.398438
vt 0.953125 0.734375
vt 0.593750 0.812500
vt 0.296875 0.265625
vt 0.296875 0.437500
vt 0.664062 0.812500
vt 0.812500 0.750000
vt 0.875000 0.898438
vt 0.812500 0.960938
vt 0.726562 0.960938
vt 0.523438 0.414062
vt 0.273438 0.921875
vt 0.335938 0.773438
vt 0.484375 0.835938
vt 0.484375 0.921875
vt 0.421875 0.984375
vt 0.281250 0.031250
vt 0.281250 0.648438
vt 0.085938 0.664062
vt 0.101562 0.773438
vt 0.023438 0.734375
vt 0.023438 0.820312
vt 0.109375 0.796875
vt 0.085938 0.890625
vt 0.125000 0.812500
vt 0.179688 0.890625
vt 0.148438 0.804688
vt 0.242188 0.820312
vt 0.164062 0.781250
vt 0.242188 0.734375
vt 0.156250 0.757812
vt 0.179688 0.664062
vt 0.132812 0.742188
vt 0.109375 0.750000
vt 0.390625 0.554688
vt 0.492188 0.562500
vt 0.390625 0.570312
vt 0.390625 0.546875
vt 0.492188 0.554688
vt 0.296875 0.515625
vt 0.289062 0.523438
vt 0.304688 0.507812
vt 0.234375 0.437500
vt 0.226562 0.445312
vt 0.210938 0.343750
vt 0.203125 0.343750
vt 0.218750 0.343750
vt 0.492188 0.132812
vt 0.390625 0.117188
vt 0.492188 0.117188
vt 0.484375 0.140625
vt 0.390625 0.125000
vt 0.234375 0.242188
vt 0.226562 0.242188
vt 0.289062 0.156250
vt 0.304688 0.179688
vt 0.296875 0.164062
vt 0.484375 0.539062
vt 0.242188 0.437500
vt 0.390625 0.140625
vt 0.242188 0.250000
vt 0.812500 0.609375
vt 0.867188 0.578125
vt 0.867188 0.617188
vt 0.812500 0.578125
vt 0.421875 0.710938
vt 0.398438 0.718750
vt 0.398438 0.710938
vt 0.515625 0.710938
vt 0.476562 0.718750
vt 0.476562 0.710938
vt 0.343750 0.718750
vt 0.343750 0.710938
vt 0.421875 0.718750
vt 0.515625 0.718750
vn 0.0000 0.9608 0.2774
vn 0.7947 0.4588 0.3974
vn 0.7947 -0.4588 0.3974
vn 0.0000 -0.9608 0.2774
vn -0.7947 -0.4588 0.3974
vn -0.7947 0.4588 0.3974
vn 0.0000 0.0000 1.0000
vn 0.9864 0.0000 0.1644
vn -0.9864 0.0000 0.1644
vn 0.0000 -1.0000 0.0000
vn 0.0000 -0.9994 0.0354
vn 0.0237 -0.9994 0.0249
vn 0.5091 -0.2109 0.8344
vn 0.5091 0.2109 0.8344
vn 0.2109 -0.5091 0.8344
vn 0.2109 0.5091 0.8344
vn -0.2109 -0.5091 0.8344
vn -0.5091 -0.2109 0.8344
vn -0.5091 0.2109 0.8344
vn -0.2109 0.5091 0.8344
vn 0.0000 0.0000 -1.0000
vn -0.3367 0.8130 -0.4751
vn -0.3827 0.9239 0.0000
vn -0.8130 0.3367 -0.4751
vn -0.9239 0.3827 0.0000
vn -0.8130 -0.3367 -0.4751
vn -0.9239 -0.3827 0.0000
vn -0.3367 -0.8130 -0.4751
vn -0.3827 -0.9239 0.0000
vn 0.3367 0.8130 -0.4751
vn 0.3827 0.9239 0.0000
vn 0.3367 -0.8130 -0.4751
vn 0.3827 -0.9239 0.0000
vn 0.8130 0.3367 -0.4751
vn 0.9239 0.3827 0.0000
vn 0.8130 -0.3367 -0.4751
vn 0.9239 -0.3827 0.0000
vn 0.5075 -0.2102 -0.8356
vn 0.5075 0.2102 -0.8356
vn 0.2102 -0.5075 -0.8356
vn 0.2102 0.5075 -0.8356
vn -0.2102 -0.5075 -0.8356
vn -0.5075 -0.2102 -0.8356
vn -0.5075 0.2102 -0.8356
vn -0.2102 0.5075 -0.8356
vn 0.0000 -0.9608 0.2773
vn -0.0237 -0.9994 0.0249
vn 0.0000 0.9471 0.3207
vn 0.6697 0.6697 0.3207
vn 0.9471 0.0000 0.3207
vn 0.6697 -0.6697 0.3207
vn 0.0000 -0.9471 0.3207
vn -0.6697 -0.6697 0.3207
vn -0.9471 0.0000 0.3207
vn -0.6697 0.6697 0.3207
vn -0.3364 0.8121 0.4768
vn -0.2833 0.6839 0.6724
vn -0.8121 0.3364 0.4768
vn -0.6839 0.2833 0.6724
vn -0.8121 -0.3364 0.4768
vn -0.6839 -0.2833 0.6724
vn -0.3364 -0.8121 0.4768
vn -0.2833 -0.6839 0.6724
vn 0.3364 0.8121 0.4768
vn 0.2833 0.6839 0.6724
vn 0.3364 -0.8121 0.4768
vn 0.2833 -0.6839 0.6724
vn 0.8121 0.3364 0.4768
vn 0.6839 0.2833 0.6724
vn 0.8121 -0.3364 0.4768
vn 0.6839 -0.2833 0.6724
vn -0.9901 0.0000 -0.1405
vn 0.9901 0.0000 -0.1405
s off
f 13/1/1 3/2/1 1/3/1
f 3/2/2 6/4/2 5/5/2
f 6/4/3 7/6/3 5/5/3
f 7/7/4 12/8/4 17/9/4
f 9/10/5 18/11/5 11/12/5
f 18/11/6 1/3/6 11/12/6
f 10/13/7 16/14/7 13/15/7
f 9/16/4 14/17/4 10/18/4
f 10/18/4 12/8/4 16/19/4
f 17/20/8 8/21/8 20/22/8
f 15/23/9 2/24/9 14/25/9
f 14/25/7 8/21/7 12/26/7
f 2/27/10 22/28/10 8/29/10
f 20/30/11 22/28/11 24/31/11
f 19/32/12 21/33/12 2/27/12
f 50/34/13 83/35/13 81/36/13
f 48/37/14 81/36/14 79/38/14
f 83/35/15 54/39/15 85/40/15
f 46/41/16 79/38/16 78/42/16
f 54/39/17 87/43/17 85/40/17
f 87/43/18 58/44/18 89/45/18
f 60/46/7 56/47/7 52/48/7
f 58/44/19 91/49/19 89/45/19
f 60/50/20 78/51/20 91/49/20
f 53/52/21 57/53/21 45/54/21
f 76/55/22 100/56/22 99/57/22
f 75/58/23 63/59/23 76/55/23
f 98/60/24 76/55/24 99/57/24
f 73/61/25 76/55/25 74/62/25
f 72/63/26 98/60/26 97/64/26
f 71/65/27 74/62/27 72/63/27
f 70/66/28 97/64/28 96/67/28
f 69/68/29 72/63/29 70/66/29
f 100/69/30 62/70/30 93/71/30
f 63/72/31 61/73/31 62/70/31
f 68/74/32 96/67/32 95/75/32
f 67/76/33 70/66/33 68/74/33
f 62/70/34 94/77/34 93/71/34
f 61/73/35 66/78/35 62/70/35
f 66/78/36 95/75/36 94/77/36
f 65/79/37 68/74/37 66/78/37
f 94/77/38 51/80/38 49/81/38
f 93/71/39 49/81/39 47/82/39
f 95/75/40 53/83/40 51/80/40
f 100/69/41 47/82/41 45/84/41
f 96/67/42 55/85/42 53/83/42
f 97/64/43 57/86/43 55/85/43
f 98/60/44 59/87/44 57/86/44
f 99/57/45 45/88/45 59/87/45
f 13/1/1 4/89/1 3/2/1
f 3/2/2 4/89/2 6/4/2
f 6/4/3 16/90/3 7/6/3
f 7/7/4 16/19/4 12/8/4
f 9/10/5 10/91/5 18/11/5
f 18/11/6 13/1/6 1/3/6
f 6/92/7 4/93/7 16/14/7
f 4/93/7 13/15/7 16/14/7
f 13/15/7 18/94/7 10/13/7
f 9/16/46 15/95/46 14/17/46
f 10/18/4 14/17/4 12/8/4
f 17/20/8 12/26/8 8/21/8
f 15/23/9 19/96/9 2/24/9
f 14/25/7 2/24/7 8/21/7
f 2/27/10 21/33/10 22/28/10
f 20/30/47 8/29/47 22/28/47
f 19/32/11 23/97/11 21/33/11
f 50/34/13 52/98/13 83/35/13
f 48/37/14 50/34/14 81/36/14
f 83/35/15 52/98/15 54/39/15
f 46/41/16 48/37/16 79/38/16
f 54/39/17 56/99/17 87/43/17
f 87/43/18 56/99/18 58/44/18
f 60/46/7 58/100/7 56/47/7
f 56/47/7 54/101/7 52/48/7
f 52/48/7 50/102/7 60/46/7
f 50/102/7 48/103/7 60/46/7
f 48/103/7 46/104/7 60/46/7
f 58/44/19 60/50/19 91/49/19
f 60/50/20 46/105/20 78/51/20
f 53/52/21 55/106/21 57/53/21
f 57/53/21 59/107/21 45/54/21
f 45/54/21 47/108/21 53/52/21
f 47/108/21 49/109/21 53/52/21
f 49/109/21 51/110/21 53/52/21
f 76/55/22 63/59/22 100/56/22
f 75/58/23 64/111/23 63/59/23
f 98/60/24 74/62/24 76/55/24
f 73/61/25 75/58/25 76/55/25
f 72/63/26 74/62/26 98/60/26
f 71/65/27 73/61/27 74/62/27
f 70/66/28 72/63/28 97/64/28
f 69/68/29 71/65/29 72/63/29
f 100/69/30 63/72/30 62/70/30
f 63/72/31 64/112/31 61/73/31
f 68/74/32 70/66/32 96/67/32
f 67/76/33 69/68/33 70/66/33
f 62/70/34 66/78/34 94/77/34
f 61/73/35 65/79/35 66/78/35
f 66/78/36 68/74/36 95/75/36
f 65/79/37 67/76/37 68/74/37
f 94/77/38 95/75/38 51/80/38
f 93/71/39 94/77/39 49/81/39
f 95/75/40 96/67/40 53/83/40
f 100/69/41 93/71/41 47/82/41
f 96/67/42 97/64/42 55/85/42
f 97/64/43 98/60/43 57/86/43
f 98/60/44 99/57/44 59/87/44
f 99/57/45 100/56/45 45/88/45
s 1
f 29/113/48 32/114/49 31/115/49
f 32/114/49 33/116/50 31/115/49
f 34/117/50 35/118/51 33/116/50
f 36/119/51 37/120/52 35/118/51
f 38/121/52 39/122/53 37/120/52
f 40/123/53 41/124/54 39/122/53
f 42/125/54 43/126/55 41/124/54
f 44/127/55 29/113/48 43/126/55
f 29/113/48 30/128/48 32/114/49
f 32/114/49 34/117/50 33/116/50
f 34/117/50 36/119/51 35/118/51
f 36/119/51 38/121/52 37/120/52
f 38/121/52 40/123/53 39/122/53
f 40/123/53 42/125/54 41/124/54
f 42/125/54 44/127/55 43/126/55
f 44/127/55 30/128/48 29/113/48
s off
f 92/129/56 64/130/56 75/131/56
f 91/132/57 77/133/57 92/129/57
f 90/134/58 75/131/58 73/135/58
f 89/136/59 92/129/59 90/134/59
f 88/137/60 73/135/60 71/138/60
f 88/137/61 89/136/61 90/134/61
f 86/139/62 71/138/62 69/140/62
f 85/141/63 88/137/63 86/139/63
f 77/142/64 61/143/64 64/144/64
f 78/145/65 80/146/65 77/142/65
f 84/147/66 69/140/66 67/148/66
f 84/147/67 85/141/67 86/139/67
f 80/146/68 65/149/68 61/143/68
f 80/146/69 81/150/69 82/151/69
f 82/151/70 67/148/70 65/149/70
f 81/150/71 84/147/71 82/151/71
f 92/129/56 77/133/56 64/130/56
f 91/132/57 78/152/57 77/133/57
f 90/134/58 92/129/58 75/131/58
f 89/136/59 91/132/59 92/129/59
f 88/137/60 90/134/60 73/135/60
f 88/137/61 87/153/61 89/136/61
f 86/139/62 88/137/62 71/138/62
f 85/141/63 87/153/63 88/137/63
f 77/142/64 80/146/64 61/143/64
f 78/145/65 79/154/65 80/146/65
f 84/147/66 86/139/66 69/140/66
f 84/147/67 83/155/67 85/141/67
f 80/146/68 82/151/68 65/149/68
f 80/146/69 79/154/69 81/150/69
f 82/151/70 84/147/70 67/148/70
f 81/150/71 83/155/71 84/147/71
f 26/156/10 27/157/10 28/158/10
f 26/156/10 25/159/10 27/157/10
f 21/160/21 26/161/21 22/162/21
f 24/163/7 27/164/7 23/165/7
f 22/162/72 28/166/72 24/167/72
f 21/160/73 27/164/73 25/168/73
f 21/160/21 25/168/21 26/161/21
f 24/163/7 28/169/7 27/164/7
f 22/162/72 26/161/72 28/166/72
f 21/160/73 23/165/73 27/164/73
