# Blender v3.0.1 OBJ File: 'forest_tile.blend'
# www.blender.org
o Cylinder.004
v -0.126325 0.115271 0.000000
v -0.126325 0.115271 1.351737
v -0.007816 0.170835 0.000000
v -0.007816 0.170835 1.351737
v 0.115271 0.126325 0.000000
v 0.115271 0.126325 1.351737
v 0.170835 0.007816 0.000000
v 0.170835 0.007816 1.351737
v 0.126325 -0.115271 0.000000
v 0.126325 -0.115271 1.351737
v 0.007816 -0.170835 0.000000
v 0.007816 -0.170835 1.351737
v -0.115271 -0.126325 0.000000
v -0.115271 -0.126325 1.351737
v -0.170835 -0.007816 0.000000
v -0.170835 -0.007816 1.351737
v -0.542279 0.494827 0.309520
v 0.157393 0.717041 0.309520
v 0.699673 0.222214 0.309520
v 0.542279 -0.494827 0.309520
v -0.157393 -0.717041 0.309520
v -0.699673 -0.222214 0.309520
v 0.000000 0.000000 1.391520
v -0.419016 0.382350 0.920766
v 0.121617 0.554053 0.920766
v 0.540633 0.171703 0.920766
v 0.419016 -0.382350 0.920766
v -0.121617 -0.554053 0.920766
v -0.540633 -0.171703 0.920766
v 0.000000 0.000000 2.002766
v -0.292957 0.267321 1.555224
v 0.085029 0.387368 1.555224
v 0.377985 0.120047 1.555224
v 0.292957 -0.267321 1.555224
v -0.085029 -0.387368 1.555224
v -0.377985 -0.120047 1.555224
v 0.000000 0.000000 2.637224
vt 0.750000 0.490000
vt 0.750000 0.250000
vt 0.957846 0.370000
vt 0.750000 0.490000
vt 0.750000 0.250000
vt 0.957846 0.370000
vt 0.957846 0.130000
vt 0.750000 0.010000
vt 0.542154 0.130000
vt 0.542154 0.370000
vt 0.957846 0.130000
vt 0.750000 0.010000
vt 0.542154 0.130000
vt 0.542154 0.370000
vt 0.750000 0.490000
vt 0.750000 0.250000
vt 0.957846 0.370000
vt 0.957846 0.130000
vt 0.750000 0.010000
vt 0.542154 0.130000
vt 0.542154 0.370000
vt 1.000000 1.000000
vt 0.875000 0.500000
vt 1.000000 0.500000
vt 0.875000 1.000000
vt 0.750000 0.500000
vt 0.750000 1.000000
vt 0.625000 0.500000
vt 0.625000 1.000000
vt 0.500000 0.500000
vt 0.500000 1.000000
vt 0.375000 0.500000
vt 0.375000 1.000000
vt 0.250000 0.500000
vt 0.010000 0.250000
vt 0.250000 0.010000
vt 0.490000 0.250000
vt 0.250000 1.000000
vt 0.125000 0.500000
vt 0.125000 1.000000
vt 0.000000 0.500000
vt 0.419706 0.419706
vt 0.250000 0.490000
vt 0.080294 0.419706
vt 0.080294 0.080294
vt 0.419706 0.080294
vt 0.000000 1.000000
vn -0.6542 0.5970 0.4643
vn 0.0000 0.0000 1.0000
vn 0.1899 0.8650 0.4643
vn -0.6113 0.5578 0.5614
vn 0.1774 0.8083 0.5614
vn 0.7887 0.2505 0.5614
vn 0.6113 -0.5578 0.5614
vn -0.1774 -0.8083 0.5614
vn -0.7887 -0.2505 0.5614
vn 0.8441 0.2681 0.4643
vn 0.6542 -0.5970 0.4643
vn -0.1899 -0.8650 0.4643
vn -0.8441 -0.2681 0.4643
vn -0.6936 0.6329 0.3441
vn 0.2013 0.9171 0.3441
vn 0.8949 0.2842 0.3441
vn 0.6936 -0.6329 0.3441
vn -0.2013 -0.9171 0.3441
vn -0.8949 -0.2842 0.3441
vn -0.5735 0.5233 0.6302
vn -0.0457 0.9989 0.0000
vn -0.7387 0.6740 0.0000
vn -0.0355 0.7756 0.6302
vn 0.6740 0.7387 0.0000
vn 0.5233 0.5735 0.6302
vn 0.9989 0.0457 0.0000
vn 0.7756 0.0355 0.6302
vn 0.7387 -0.6740 0.0000
vn 0.5735 -0.5233 0.6302
vn 0.0457 -0.9989 0.0000
vn 0.0355 -0.7756 0.6302
vn -0.6740 -0.7387 0.0000
vn -0.5233 -0.5735 0.6302
vn -0.9989 -0.0457 0.0000
vn -0.7756 -0.0355 0.6302
s 1
f 24/1/1 30/2/2 25/3/3
f 17/4/4 23/5/2 18/6/5
f 18/6/5 23/5/2 19/7/6
f 19/7/6 23/5/2 20/8/7
f 20/8/7 23/5/2 21/9/8
f 21/9/8 23/5/2 22/10/9
f 22/10/9 23/5/2 17/4/4
f 25/3/3 30/2/2 26/11/10
f 26/11/10 30/2/2 27/12/11
f 27/12/11 30/2/2 28/13/12
f 28/13/12 30/2/2 29/14/13
f 29/14/13 30/2/2 24/1/1
f 31/15/14 37/16/2 32/17/15
f 32/17/15 37/16/2 33/18/16
f 33/18/16 37/16/2 34/19/17
f 34/19/17 37/16/2 35/20/18
f 35/20/18 37/16/2 36/21/19
f 36/21/19 37/16/2 31/15/14
f 2/22/20 3/23/21 1/24/22
f 4/25/23 5/26/24 3/23/21
f 6/27/25 7/28/26 5/26/24
f 8/29/27 9/30/28 7/28/26
f 10/31/29 11/32/30 9/30/28
f 12/33/31 13/34/32 11/32/30
f 14/35/33 10/36/29 6/37/25
f 14/38/33 15/39/34 13/34/32
f 16/40/35 1/41/22 15/39/34
f 2/22/20 4/25/23 3/23/21
f 4/25/23 6/27/25 5/26/24
f 6/27/25 8/29/27 7/28/26
f 8/29/27 10/31/29 9/30/28
f 10/31/29 12/33/31 11/32/30
f 12/33/31 14/38/33 13/34/32
f 6/37/25 4/42/23 2/43/20
f 2/43/20 16/44/35 6/37/25
f 16/44/35 14/35/33 6/37/25
f 14/35/33 12/45/31 10/36/29
f 10/36/29 8/46/27 6/37/25
f 14/38/33 16/40/35 15/39/34
f 16/40/35 2/47/20 1/41/22
