# Blender v3.0.1 OBJ File: 'house.blend'
# www.blender.org
o Cylinder
v 0.400000 0.692820 0.000000
v 0.400000 0.692820 0.736208
v 0.800000 -0.000000 0.000000
v 0.800000 -0.000000 0.736208
v 0.400000 -0.692820 0.000000
v 0.400000 -0.692820 0.736208
v -0.400000 -0.692820 0.000000
v -0.400000 -0.692820 0.736208
v -0.800000 0.000000 0.000000
v -0.800000 0.000000 0.736208
v -0.400000 0.692820 0.000000
v -0.400000 0.692820 0.736208
v 0.101660 0.176080 1.200000
v 0.203320 -0.000000 1.200000
v 0.101660 -0.176080 1.200000
v -0.101660 -0.176080 1.200000
v -0.203319 -0.000000 1.200000
v -0.101660 0.176080 1.200000
v 0.240000 -0.692820 0.000000
v 0.240000 -0.692820 0.456557
v -0.240000 -0.692820 0.000000
v -0.240000 -0.692820 0.456557
v 0.240000 -0.653197 0.000000
v 0.240000 -0.653197 0.456557
v -0.240000 -0.653197 0.000000
v -0.240000 -0.653197 0.456557
v -0.133333 -0.692820 0.736208
v 0.133333 -0.692820 0.736208
v -0.033887 -0.176080 1.200000
v 0.033887 -0.176080 1.200000
v 0.080000 -0.692820 0.000000
v -0.080000 -0.692820 0.000000
v -0.128000 -0.692820 0.656557
v 0.128000 -0.692820 0.656557
v 0.080000 -0.653197 0.000000
v -0.080000 -0.653197 0.000000
v -0.128000 -0.653197 0.656557
v 0.128000 -0.653197 0.656557
v -0.339428 -0.587906 1.000000
v -0.678855 0.000000 1.000000
v 0.678855 -0.000000 1.000000
v 0.339428 -0.587906 1.000000
v -0.339428 0.587906 1.000000
v 0.339428 0.587906 1.000000
v -0.113143 -0.587906 1.000000
v 0.113143 -0.587906 1.000000
v -0.243080 -0.421027 1.125842
v 0.486160 -0.000000 1.125842
v 0.243080 0.421027 1.125842
v -0.081027 -0.421027 1.125842
v 0.081027 -0.421027 1.125842
v -0.486160 0.000000 1.125842
v 0.243080 -0.421027 1.125842
v -0.243080 0.421027 1.125842
vt 0.969640 0.283385
vt 0.790583 0.058648
vt 0.992481 0.081488
vt 0.798928 0.232257
vt 0.570126 0.072657
vt 0.295571 0.232385
vt 0.419670 0.285944
vt 0.407656 0.404217
vt 0.153035 0.422729
vt 0.509618 0.449012
vt 0.473873 0.585438
vt 0.432237 0.576986
vt 0.307331 0.551632
vt 0.055102 0.662973
vt 0.258961 0.747756
vt 0.015197 0.943315
vt 0.610277 0.961865
vt 0.522015 0.910907
vt 0.522015 0.876935
vt 0.785049 0.335535
vt 0.653971 0.395332
vt 0.652021 0.361264
vt 0.444011 0.734573
vt 0.397749 0.737868
vt 0.918634 0.368739
vt 0.780423 0.369961
vt 0.605836 0.391029
vt 0.617501 0.418711
vt 0.466950 0.898209
vt 0.424542 0.915686
vt 0.813921 0.718654
vt 0.761250 0.868948
vt 0.761250 0.718654
vt 0.480682 0.306019
vt 0.499095 0.356148
vt 0.554097 0.205448
vt 0.526926 0.082179
vt 0.646169 0.259059
vt 0.541249 0.268639
vt 0.570842 0.307982
vt 0.919261 0.868948
vt 0.866591 0.718654
vt 0.919261 0.718654
vt 0.882392 0.934786
vt 0.560401 0.420331
vt 0.543605 0.463944
vt 0.580836 0.441726
vt 0.539965 0.398937
vt 0.475630 0.434081
vt 0.382134 0.933162
vt 0.297318 0.968116
vt 0.650070 0.327195
vt 0.594171 0.363347
vt 0.789675 0.301109
vt 0.351486 0.741164
vt 0.390602 0.568535
vt 0.325862 0.199510
vt 0.522015 0.808991
vt 0.610277 0.758033
vt 0.522015 0.842963
vt 0.698539 0.808991
vt 0.698539 0.910907
vt 0.901632 0.397191
vt 0.798119 0.934786
vt 0.935636 0.340288
vt 0.716042 0.667176
vt 0.669140 0.634789
vt 0.712440 0.644312
vt 0.809877 0.660714
vt 0.787202 0.504433
vt 0.809877 0.491421
vt 0.731974 0.454134
vt 0.738563 0.423265
vt 0.602558 0.527037
vt 0.649511 0.665804
vt 0.631756 0.442527
vt 0.629474 0.525465
vt 0.654689 0.463373
vt 0.751347 0.641867
vt 0.790253 0.639417
vt 0.763311 0.665905
vn 0.4898 0.8484 0.2006
vn 1.0000 0.0000 0.0000
vn 0.5000 0.8660 0.0000
vn 0.9796 0.0000 0.2006
vn 0.5000 -0.8660 0.0000
vn -0.5000 -0.8660 0.0000
vn 0.6190 -0.7686 -0.1615
vn -0.4898 -0.8484 0.2006
vn -1.0000 0.0000 0.0000
vn -0.2239 -0.3878 0.8941
vn -0.1692 0.0000 0.9856
vn -0.4478 0.0000 0.8941
vn -0.9796 0.0000 0.2006
vn -0.5000 0.8660 0.0000
vn -0.4898 0.8484 0.2006
vn -0.0846 -0.1465 0.9856
vn 0.0000 -0.1465 0.9892
vn 0.4478 0.0000 0.8941
vn 0.0846 -0.1465 0.9856
vn 0.2239 -0.3878 0.8941
vn -0.0846 0.1465 0.9856
vn -0.2239 0.3878 0.8941
vn 0.2239 0.3878 0.8941
vn 0.1692 0.0000 0.9856
vn 0.0000 -0.4529 0.8915
vn 0.0846 0.1465 0.9856
vn 0.0000 -0.7071 0.7071
vn 0.7316 -0.6544 -0.1909
vn 0.5773 -0.5773 0.5773
vn 0.2741 -0.8403 -0.4676
vn 0.0000 -0.9821 0.1881
vn -0.6190 -0.7686 -0.1615
vn -0.5773 -0.5773 0.5773
vn 0.4898 -0.8484 0.2006
vn -0.2741 -0.8403 -0.4676
vn -0.7316 -0.6544 -0.1909
vn -0.4010 -0.6090 -0.6843
vn 0.0000 -0.7951 0.6065
vn -0.3955 -0.6851 0.6117
vn 0.3955 0.6851 0.6117
vn 0.3955 -0.6851 0.6117
vn 0.7910 0.0000 0.6117
vn -0.3955 0.6851 0.6117
vn -0.7910 0.0000 0.6117
vn 0.4010 -0.6090 -0.6843
vn 0.0000 0.0000 1.0000
s 1
f 2/1/1 3/2/2 1/3/3
f 4/4/4 5/5/5 3/2/2
f 7/6/6 22/7/7 8/8/8
f 8/8/8 9/9/9 7/6/6
f 47/10/10 17/11/11 52/12/12
f 10/13/13 11/14/14 9/9/9
f 12/15/15 1/16/3 11/14/14
f 17/17/11 16/18/16 29/19/17
f 48/20/18 15/21/19 53/22/20
f 52/12/12 18/23/21 54/24/22
f 49/25/23 14/26/24 48/20/18
f 51/27/25 15/21/19 30/28/17
f 54/24/22 13/29/26 49/30/23
f 36/31/27 26/32/28 25/33/29
f 8/8/8 33/34/30 27/35/31
f 5/5/5 20/36/32 19/37/33
f 6/38/34 34/39/35 20/36/32
f 27/35/31 34/39/35 28/40/31
f 24/41/36 35/42/27 23/43/33
f 38/44/37 36/31/27 35/42/27
f 50/45/25 16/46/16 47/10/10
f 51/27/25 29/47/17 50/45/25
f 28/40/31 45/48/38 27/35/31
f 27/35/31 39/49/39 8/8/8
f 12/15/15 44/50/40 2/51/1
f 28/40/31 42/52/41 46/53/38
f 2/1/1 41/54/42 4/4/4
f 10/13/13 43/55/43 12/15/15
f 6/38/34 41/54/42 42/52/41
f 8/8/8 40/56/44 10/13/13
f 46/53/38 50/45/25 45/48/38
f 45/48/38 47/10/10 39/49/39
f 44/50/40 54/24/22 49/30/23
f 46/53/38 53/22/20 51/27/25
f 41/54/42 49/25/23 48/20/18
f 40/56/44 54/24/22 43/55/43
f 41/54/42 53/22/20 42/52/41
f 39/49/39 52/12/12 40/56/44
f 2/1/1 4/4/4 3/2/2
f 4/4/4 6/38/34 5/5/5
f 7/6/6 21/57/29 22/7/7
f 8/8/8 10/13/13 9/9/9
f 47/10/10 16/46/16 17/11/11
f 10/13/13 12/15/15 11/14/14
f 12/15/15 2/51/1 1/16/3
f 15/58/19 14/59/24 30/60/17
f 14/59/24 13/61/26 30/60/17
f 13/61/26 18/62/21 30/60/17
f 18/62/21 17/17/11 29/19/17
f 30/60/17 18/62/21 29/19/17
f 48/20/18 14/26/24 15/21/19
f 52/12/12 17/11/11 18/23/21
f 49/25/23 13/63/26 14/26/24
f 51/27/25 53/22/20 15/21/19
f 54/24/22 18/23/21 13/29/26
f 36/31/27 37/64/45 26/32/28
f 8/8/8 22/7/7 33/34/30
f 5/5/5 6/38/34 20/36/32
f 6/38/34 28/40/31 34/39/35
f 27/35/31 33/34/30 34/39/35
f 24/41/36 38/44/37 35/42/27
f 38/44/37 37/64/45 36/31/27
f 50/45/25 29/47/17 16/46/16
f 51/27/25 30/28/17 29/47/17
f 28/40/31 46/53/38 45/48/38
f 27/35/31 45/48/38 39/49/39
f 12/15/15 43/55/43 44/50/40
f 28/40/31 6/38/34 42/52/41
f 2/1/1 44/65/40 41/54/42
f 10/13/13 40/56/44 43/55/43
f 6/38/34 4/4/4 41/54/42
f 8/8/8 39/49/39 40/56/44
f 46/53/38 51/27/25 50/45/25
f 45/48/38 50/45/25 47/10/10
f 44/50/40 43/55/43 54/24/22
f 46/53/38 42/52/41 53/22/20
f 41/54/42 44/65/40 49/25/23
f 40/56/44 52/12/12 54/24/22
f 41/54/42 48/20/18 53/22/20
f 39/49/39 47/10/10 52/12/12
f 31/66/46 23/67/33 35/68/27
f 21/69/29 26/70/28 22/71/7
f 22/71/7 37/72/45 33/73/30
f 20/74/32 23/67/33 19/75/33
f 34/76/35 24/77/36 20/74/32
f 33/73/30 38/78/37 34/76/35
f 21/69/29 36/79/27 25/80/29
f 32/81/46 35/68/27 36/79/27
f 31/66/46 19/75/33 23/67/33
f 21/69/29 25/80/29 26/70/28
f 22/71/7 26/70/28 37/72/45
f 20/74/32 24/77/36 23/67/33
f 34/76/35 38/78/37 24/77/36
f 33/73/30 37/72/45 38/78/37
f 21/69/29 32/81/46 36/79/27
f 32/81/46 31/66/46 35/68/27
