# Blender v3.0.1 OBJ File: 'solar_collector.blend'
# www.blender.org
o Cylinder
v 0.000000 1.000000 0.000000
v -0.000000 0.500000 1.000000
v 0.866025 0.500000 0.000000
v 0.433013 0.250000 1.000000
v 0.866025 -0.500000 0.000000
v 0.433013 -0.250000 1.000000
v -0.000000 -1.000000 0.000000
v -0.000000 -0.500000 1.000000
v -0.866025 -0.500000 0.000000
v -0.433013 -0.250000 1.000000
v -0.866025 0.500000 0.000000
v -0.433013 0.250000 1.000000
v -0.600000 -0.400000 3.791564
v -0.600000 0.400000 3.791564
v -0.600000 0.500000 3.966025
v -0.800000 0.500000 3.966026
v -0.600000 -0.500000 3.966025
v -0.800000 -0.500000 3.966026
v -0.600000 -1.000000 1.300000
v -0.800000 -1.000000 1.300000
v -0.600000 -0.500000 0.433975
v -0.800000 -0.500000 0.433975
v -0.600000 0.500000 0.433975
v -0.800000 0.500000 0.433975
v -0.600000 1.000000 1.300000
v -0.800000 1.000000 1.300000
v -0.800000 -0.400000 3.791564
v -0.800000 0.400000 3.791564
v -0.600000 -0.800000 1.379707
v -0.800000 -0.800000 1.379707
v -0.600000 -0.400000 0.628729
v -0.800000 -0.400000 0.628729
v -0.600000 0.400000 0.628729
v -0.800000 0.400000 0.628729
v -0.600000 0.800000 1.379707
v -0.800000 0.800000 1.379707
v -0.753226 0.400000 3.791564
v -0.753226 0.800000 1.379707
v -0.646774 0.800000 1.379707
v -0.646774 0.400000 3.791564
v -0.753226 -0.400000 0.628729
v -0.753226 -0.800000 1.379707
v -0.646774 -0.800000 1.379707
v -0.646774 -0.400000 0.628729
v -0.753226 0.400000 0.628729
v -0.753226 -0.400000 3.791564
v -0.646774 0.400000 0.628729
v -0.646774 -0.400000 3.791564
v 0.600000 0.400000 3.791564
v 0.600000 -0.400000 3.791564
v 0.600000 -0.500000 3.966025
v 0.800000 -0.500000 3.966026
v 0.600000 0.500000 3.966025
v 0.800000 0.500000 3.966026
v 0.600000 1.000000 1.300000
v 0.800000 1.000000 1.300000
v 0.600000 0.500000 0.433975
v 0.800000 0.500000 0.433975
v 0.600000 -0.500000 0.433975
v 0.800000 -0.500000 0.433975
v 0.600000 -1.000000 1.300000
v 0.800000 -1.000000 1.300000
v 0.800000 0.400000 3.791564
v 0.800000 -0.400000 3.791564
v 0.600000 0.800000 1.379707
v 0.800000 0.800000 1.379707
v 0.600000 0.400000 0.628729
v 0.800000 0.400000 0.628729
v 0.600000 -0.400000 0.628729
v 0.800000 -0.400000 0.628729
v 0.600000 -0.800000 1.379707
v 0.800000 -0.800000 1.379707
v 0.753226 -0.400000 3.791564
v 0.753226 -0.800000 1.379707
v 0.646774 -0.800000 1.379707
v 0.646774 -0.400000 3.791564
v 0.753226 0.400000 0.628729
v 0.753226 0.800000 1.379707
v 0.646774 0.800000 1.379707
v 0.646774 0.400000 0.628729
v 0.753226 -0.400000 0.628729
v 0.753226 0.400000 3.791564
v 0.646774 -0.400000 0.628729
v 0.646774 0.400000 3.791564
vt 0.796875 0.593750
vt 0.671875 1.000000
vt 0.671875 0.593750
vt 0.531250 0.593750
vt 0.531250 1.000000
vt 0.406250 0.593750
vt 0.406250 1.000000
vt 0.265625 0.593750
vt 0.984375 0.859375
vt 0.875000 0.921875
vt 0.875000 0.796875
vt 0.140625 1.000000
vt 0.140625 0.593750
vt 0.000000 0.593750
vt 0.234375 0.281250
vt 0.296875 0.531250
vt 0.296875 0.546875
vt 0.187500 0.187500
vt 0.093750 0.203125
vt 0.078125 0.187500
vt 0.406250 0.015625
vt 0.343750 0.031250
vt 0.343750 0.015625
vt 0.031250 0.453125
vt 0.093750 0.531250
vt 0.078125 0.546875
vt 0.062500 0.453125
vt 0.171875 0.031250
vt 0.171875 0.015625
vt 0.296875 0.187500
vt 0.390625 0.203125
vt 0.296875 0.203125
vt 0.453125 0.281250
vt 0.390625 0.531250
vt 0.421875 0.281250
vt 0.109375 0.015625
vt 0.390625 0.546875
vt 0.421875 0.046875
vt 0.281250 0.046875
vt 0.281250 0.046875
vt 0.109375 0.031250
vt 0.046875 0.015625
vt 0.187500 0.546875
vt 0.171875 0.531250
vt 0.250000 0.140625
vt 0.312500 0.156250
vt 0.312500 0.156250
vt 0.640625 0.031250
vt 0.578125 0.015625
vt 0.640625 0.015625
vt 0.234375 0.453125
vt 0.218750 0.453125
vt 0.171875 0.203125
vt 0.578125 0.031250
vt 0.265625 0.281250
vt 0.390625 0.187500
vt 0.234375 0.078125
vt 0.218750 0.140625
vt 0.218750 0.140625
vt 0.437500 0.093750
vt 0.421875 0.046875
vt 0.171875 0.156250
vt 0.171875 0.156250
vt 0.437500 0.093750
vt 0.234375 0.078125
vt 0.250000 0.140625
vt 0.234375 0.078125
vt 0.046875 0.078125
vt 0.046875 0.031250
vt 0.046875 0.031250
vt 0.187500 0.031250
vt 0.234375 0.078125
vt 0.187500 0.031250
vt 0.046875 0.078125
vt 0.234375 0.281250
vt 0.296875 0.531250
vt 0.296875 0.546875
vt 0.187500 0.187500
vt 0.093750 0.203125
vt 0.078125 0.187500
vt 0.406250 0.015625
vt 0.343750 0.031250
vt 0.343750 0.015625
vt 0.031250 0.453125
vt 0.093750 0.531250
vt 0.078125 0.546875
vt 0.062500 0.453125
vt 0.171875 0.031250
vt 0.171875 0.015625
vt 0.296875 0.187500
vt 0.390625 0.203125
vt 0.296875 0.203125
vt 0.453125 0.281250
vt 0.390625 0.531250
vt 0.421875 0.281250
vt 0.109375 0.031250
vt 0.109375 0.015625
vt 0.390625 0.546875
vt 0.421875 0.046875
vt 0.281250 0.046875
vt 0.281250 0.046875
vt 0.046875 0.015625
vt 0.171875 0.531250
vt 0.187500 0.546875
vt 0.312500 0.156250
vt 0.250000 0.140625
vt 0.312500 0.156250
vt 0.640625 0.031250
vt 0.578125 0.015625
vt 0.640625 0.015625
vt 0.234375 0.453125
vt 0.218750 0.453125
vt 0.171875 0.203125
vt 0.578125 0.031250
vt 0.265625 0.281250
vt 0.390625 0.187500
vt 0.234375 0.078125
vt 0.218750 0.140625
vt 0.218750 0.140625
vt 0.437500 0.093750
vt 0.421875 0.046875
vt 0.171875 0.156250
vt 0.171875 0.156250
vt 0.437500 0.093750
vt 0.234375 0.078125
vt 0.250000 0.140625
vt 0.234375 0.078125
vt 0.046875 0.078125
vt 0.046875 0.031250
vt 0.046875 0.031250
vt 0.187500 0.031250
vt 0.234375 0.078125
vt 0.187500 0.031250
vt 0.046875 0.078125
vt 0.796875 1.000000
vt 0.265625 1.000000
vt 0.953125 0.796875
vt 0.953125 0.921875
vt 0.843750 0.859375
vt 0.000000 1.000000
vt 0.406250 0.031250
vt 0.046875 0.031250
vt 0.406250 0.031250
vt 0.046875 0.031250
vt 0.656250 0.218750
vt 0.734375 0.218750
vt 0.781250 0.296875
vt 0.484375 0.218750
vt 0.562500 0.218750
vt 0.609375 0.296875
vt 0.656250 0.218750
vt 0.734375 0.218750
vt 0.781250 0.296875
vt 0.484375 0.218750
vt 0.562500 0.218750
vt 0.609375 0.296875
vt 0.734375 0.546875
vt 0.656250 0.546875
vt 0.609375 0.296875
vt 0.562500 0.546875
vt 0.484375 0.546875
vt 0.453125 0.296875
vt 0.734375 0.546875
vt 0.656250 0.546875
vt 0.609375 0.296875
vt 0.562500 0.546875
vt 0.484375 0.546875
vt 0.453125 0.296875
vn 0.4588 0.7947 0.3974
vn 0.9177 -0.0000 0.3974
vn 0.4588 -0.7947 0.3974
vn -0.4588 -0.7947 0.3974
vn 0.0000 0.0000 1.0000
vn -0.9177 0.0000 0.3974
vn -0.4588 0.7947 0.3974
vn 1.0000 0.0000 -0.0000
vn -1.0000 -0.0000 -0.0000
vn 0.0000 -0.9829 0.1843
vn 0.0000 -0.8660 -0.5000
vn 0.0000 -0.9865 -0.1636
vn -0.0000 0.0000 -1.0000
vn -0.0000 0.8826 0.4701
vn -0.0000 0.8660 -0.5000
vn 0.0000 0.9829 0.1843
vn -0.0000 -0.8826 0.4701
vn 0.0000 0.9865 -0.1636
s off
f 1/1/1 4/2/1 3/3/1
f 4/2/2 5/4/2 3/3/2
f 6/5/3 7/6/3 5/4/3
f 8/7/4 9/8/4 7/6/4
f 2/9/5 10/10/5 6/11/5
f 9/8/6 12/12/6 11/13/6
f 12/12/7 1/14/7 11/13/7
f 19/15/8 13/16/8 17/17/8
f 16/18/9 27/19/9 18/20/9
f 15/21/5 18/22/5 17/23/5
f 20/24/9 32/25/9 22/26/9
f 20/24/9 27/19/9 30/27/9
f 17/23/10 20/28/10 19/29/10
f 21/30/8 33/31/8 31/32/8
f 25/33/8 14/34/8 35/35/8
f 20/28/11 21/36/11 19/29/11
f 17/17/8 14/34/8 15/37/8
f 14/38/12 39/39/12 35/40/12
f 22/41/13 23/42/13 21/36/13
f 24/43/9 32/25/9 34/44/9
f 31/45/14 43/46/14 29/47/14
f 24/48/15 25/49/15 23/50/15
f 26/51/9 34/44/9 36/52/9
f 26/51/9 28/53/9 16/18/9
f 26/54/16 15/21/16 25/49/16
f 19/15/8 31/32/8 29/55/8
f 25/33/8 33/31/8 23/56/8
f 32/57/5 45/58/5 34/59/5
f 14/38/13 48/60/13 40/61/13
f 34/59/17 38/62/17 36/63/17
f 29/47/18 48/60/18 13/64/18
f 33/65/5 44/66/5 31/45/5
f 35/40/17 47/67/17 33/65/17
f 28/68/13 46/69/13 27/70/13
f 30/71/14 41/72/14 32/57/14
f 27/70/18 42/73/18 30/71/18
f 36/63/12 37/74/12 28/68/12
f 55/75/9 49/76/9 53/77/9
f 52/78/8 63/79/8 54/80/8
f 51/81/5 54/82/5 53/83/5
f 56/84/8 68/85/8 58/86/8
f 56/84/8 63/79/8 66/87/8
f 53/83/16 56/88/16 55/89/16
f 57/90/9 69/91/9 67/92/9
f 61/93/9 50/94/9 71/95/9
f 55/89/15 58/96/15 57/97/15
f 53/77/9 50/94/9 51/98/9
f 50/99/18 75/100/18 71/101/18
f 58/96/13 59/102/13 57/97/13
f 58/86/8 70/103/8 60/104/8
f 65/105/17 80/106/17 79/107/17
f 60/108/11 61/109/11 59/110/11
f 62/111/8 70/103/8 72/112/8
f 62/111/8 64/113/8 52/78/8
f 62/114/10 51/81/10 61/109/10
f 55/75/9 67/92/9 65/115/9
f 61/93/9 69/91/9 59/116/9
f 68/117/5 81/118/5 70/119/5
f 49/120/13 76/121/13 50/99/13
f 70/119/14 74/122/14 72/123/14
f 65/105/12 84/124/12 49/120/12
f 69/125/5 80/106/5 67/126/5
f 71/101/14 83/127/14 69/125/14
f 64/128/13 82/129/13 63/130/13
f 66/131/17 77/132/17 68/117/17
f 63/130/12 78/133/12 66/131/12
f 64/128/18 74/122/18 73/134/18
f 1/1/1 2/135/1 4/2/1
f 4/2/2 6/5/2 5/4/2
f 6/5/3 8/7/3 7/6/3
f 8/7/4 10/136/4 9/8/4
f 6/11/5 4/137/5 2/9/5
f 2/9/5 12/138/5 10/10/5
f 10/10/5 8/139/5 6/11/5
f 9/8/6 10/136/6 12/12/6
f 12/12/7 2/140/7 1/14/7
f 19/15/8 29/55/8 13/16/8
f 16/18/9 28/53/9 27/19/9
f 15/21/5 16/141/5 18/22/5
f 20/24/9 30/27/9 32/25/9
f 20/24/9 18/20/9 27/19/9
f 17/23/10 18/22/10 20/28/10
f 21/30/8 23/56/8 33/31/8
f 25/33/8 15/37/8 14/34/8
f 20/28/11 22/41/11 21/36/11
f 17/17/8 13/16/8 14/34/8
f 14/38/12 40/61/12 39/39/12
f 22/41/13 24/142/13 23/42/13
f 24/43/9 22/26/9 32/25/9
f 31/45/14 44/66/14 43/46/14
f 24/48/15 26/54/15 25/49/15
f 26/51/9 24/43/9 34/44/9
f 26/51/9 36/52/9 28/53/9
f 26/54/16 16/141/16 15/21/16
f 19/15/8 21/30/8 31/32/8
f 25/33/8 35/35/8 33/31/8
f 32/57/5 41/72/5 45/58/5
f 14/38/13 13/64/13 48/60/13
f 34/59/17 45/58/17 38/62/17
f 29/47/18 43/46/18 48/60/18
f 33/65/5 47/67/5 44/66/5
f 35/40/17 39/39/17 47/67/17
f 28/68/13 37/74/13 46/69/13
f 30/71/14 42/73/14 41/72/14
f 27/70/18 46/69/18 42/73/18
f 36/63/12 38/62/12 37/74/12
f 55/75/9 65/115/9 49/76/9
f 52/78/8 64/113/8 63/79/8
f 51/81/5 52/143/5 54/82/5
f 56/84/8 66/87/8 68/85/8
f 56/84/8 54/80/8 63/79/8
f 53/83/16 54/82/16 56/88/16
f 57/90/9 59/116/9 69/91/9
f 61/93/9 51/98/9 50/94/9
f 55/89/15 56/88/15 58/96/15
f 53/77/9 49/76/9 50/94/9
f 50/99/18 76/121/18 75/100/18
f 58/96/13 60/144/13 59/102/13
f 58/86/8 68/85/8 70/103/8
f 65/105/17 67/126/17 80/106/17
f 60/108/11 62/114/11 61/109/11
f 62/111/8 60/104/8 70/103/8
f 62/111/8 72/112/8 64/113/8
f 62/114/10 52/143/10 51/81/10
f 55/75/9 57/90/9 67/92/9
f 61/93/9 71/95/9 69/91/9
f 68/117/5 77/132/5 81/118/5
f 49/120/13 84/124/13 76/121/13
f 70/119/14 81/118/14 74/122/14
f 65/105/12 79/107/12 84/124/12
f 69/125/5 83/127/5 80/106/5
f 71/101/14 75/100/14 83/127/14
f 64/128/13 73/134/13 82/129/13
f 66/131/17 78/133/17 77/132/17
f 63/130/12 82/129/12 78/133/12
f 64/128/18 72/123/18 74/122/18
f 44/145/8 47/146/8 39/147/8
f 45/148/9 41/149/9 42/150/9
f 80/151/9 83/152/9 75/153/9
f 81/154/8 77/155/8 78/156/8
f 39/147/8 40/157/8 48/158/8
f 48/158/8 43/159/8 39/147/8
f 43/159/8 44/145/8 39/147/8
f 42/150/9 46/160/9 37/161/9
f 37/161/9 38/162/9 42/150/9
f 38/162/9 45/148/9 42/150/9
f 75/153/9 76/163/9 84/164/9
f 84/164/9 79/165/9 75/153/9
f 79/165/9 80/151/9 75/153/9
f 78/156/8 82/166/8 73/167/8
f 73/167/8 74/168/8 78/156/8
f 74/168/8 81/154/8 78/156/8
