# Blender v3.0.1 OBJ File: 'floor.blend'
# www.blender.org
o Plane
v -4.500000 -4.500000 -0.020000
v 27.500002 -4.500000 -0.020000
v -4.500000 19.500000 -0.020000
v 27.500002 19.500000 -0.020000
vt 1.000000 0.332031
vt 0.000000 1.000000
vt 0.000000 0.332031
vt 1.000000 1.000000
vn 0.0000 0.0000 1.0000
s off
f 2/1/1 3/2/1 1/3/1
f 2/1/1 4/4/1 3/2/1
o Cube
v -1.500000 -1.500000 -0.020000
v -1.350000 -1.350000 0.980000
v -1.500000 16.500000 -0.020000
v -1.350000 16.350000 0.980000
v -0.500000 -1.500000 -0.020000
v -0.650000 -1.350000 0.980000
v -0.500000 16.500000 -0.020000
v -0.650000 16.350000 0.980000
v 23.500069 -1.500000 -0.020000
v 23.650068 -1.350000 0.980000
v 23.500069 16.500000 -0.020000
v 23.650068 16.350000 0.980000
v 24.500069 -1.500000 -0.020000
v 24.350069 -1.350000 0.980000
v 24.500069 16.500000 -0.020000
v 24.350069 16.350000 0.980000
v -0.500000 -0.500000 -0.020000
v -0.650000 -0.650001 0.980000
v 23.500000 -0.499999 -0.020000
v 23.650000 -0.650000 0.980000
v -0.500000 -1.500000 -0.020000
v -0.650000 -1.350000 0.980000
v 23.500000 -1.500000 -0.020000
v 23.650000 -1.349999 0.980000
v -0.500000 16.500000 -0.020000
v -0.650000 16.349998 0.980000
v 23.500000 16.500000 -0.020000
v 23.650000 16.350000 0.980000
v -0.500000 15.500000 -0.020000
v -0.650000 15.650000 0.980000
v 23.500000 15.500000 -0.020000
v 23.650000 15.650001 0.980000
vt 0.640625 0.160156
vt 0.480469 -0.000000
vt 0.640625 -0.000000
vt 0.480469 0.160156
vt 0.320312 0.000000
vt 0.320312 0.160156
vt 0.160156 0.000000
vt 0.160156 0.160156
vt 0.000000 0.000000
vt 0.320312 0.320312
vt 0.640625 0.160156
vt 0.480469 -0.000000
vt 0.640625 -0.000000
vt 0.480469 0.160156
vt 0.320312 0.000000
vt 0.320312 0.160156
vt 0.160156 0.000000
vt 0.160156 0.160156
vt 0.000000 0.000000
vt 0.320312 0.320312
vt 0.640625 0.160156
vt 0.480469 -0.000000
vt 0.640625 -0.000000
vt 0.480469 0.160156
vt 0.320312 0.000000
vt 0.160156 0.160156
vt 0.160156 0.000000
vt 0.000000 0.160156
vt 0.000000 0.000000
vt 0.320312 0.320312
vt 0.320312 0.160156
vt 0.640625 0.160156
vt 0.480469 -0.000000
vt 0.640625 -0.000000
vt 0.320312 0.160156
vt 0.320312 0.000000
vt 0.160156 0.000000
vt 0.000000 0.160156
vt 0.000000 0.000000
vt 0.320312 0.320312
vt 0.160156 0.160156
vt 0.000000 0.160156
vt 0.160156 0.320312
vt 0.000000 0.160156
vt 0.160156 0.320312
vt 0.160156 0.320312
vt 0.480469 0.160156
vt 0.160156 0.320312
vn -0.9889 0.0000 0.1483
vn 0.0000 0.9889 0.1483
vn 0.9889 0.0000 0.1483
vn 0.0000 -0.9889 0.1483
vn 0.0000 0.0000 1.0000
vn 0.9889 0.0000 -0.1483
vn -0.9889 0.0000 -0.1483
s off
f 6/5/2 7/6/2 5/7/2
f 8/8/3 11/9/3 7/6/3
f 12/10/4 9/11/4 11/9/4
f 10/12/5 5/13/5 9/11/5
f 8/14/6 10/12/6 12/10/6
f 14/15/2 15/16/2 13/17/2
f 16/18/3 19/19/3 15/16/3
f 20/20/4 17/21/4 19/19/4
f 18/22/5 13/23/5 17/21/5
f 16/24/6 18/22/6 20/20/6
f 22/25/3 23/26/3 21/27/3
f 24/28/7 27/29/7 23/26/7
f 27/29/5 26/30/5 25/31/5
f 25/31/8 22/32/8 21/33/8
f 24/34/6 26/30/6 28/35/6
f 30/36/3 31/37/3 29/38/3
f 31/37/7 36/39/7 35/40/7
f 36/39/5 33/41/5 35/40/5
f 33/41/8 30/42/8 29/43/8
f 32/44/6 34/45/6 36/39/6
f 6/5/2 8/8/2 7/6/2
f 8/8/3 12/10/3 11/9/3
f 12/10/4 10/12/4 9/11/4
f 10/12/5 6/46/5 5/13/5
f 8/14/6 6/47/6 10/12/6
f 14/15/2 16/18/2 15/16/2
f 16/18/3 20/20/3 19/19/3
f 20/20/4 18/22/4 17/21/4
f 18/22/5 14/48/5 13/23/5
f 16/24/6 14/49/6 18/22/6
f 22/25/3 24/28/3 23/26/3
f 24/28/7 28/35/7 27/29/7
f 27/29/5 28/35/5 26/30/5
f 25/31/8 26/30/8 22/32/8
f 24/34/6 22/50/6 26/30/6
f 30/36/3 32/51/3 31/37/3
f 31/37/7 32/51/7 36/39/7
f 36/39/5 34/45/5 33/41/5
f 33/41/8 34/45/8 30/42/8
f 32/44/6 30/52/6 34/45/6
