# Blender v3.0.1 OBJ File: 'town_exit.blend'
# www.blender.org
o Cylinder
v 0.500500 1.790000 1.463562
v 0.500500 -0.190000 1.463562
v 1.001000 1.790000 0.731770
v 1.001000 -0.190000 0.731770
v 0.500500 1.790000 -0.000017
v 0.500500 -0.190000 -0.000017
v -0.500500 1.790000 -0.000016
v -0.500500 -0.190000 -0.000016
v -1.001000 1.790000 0.731770
v -1.001000 -0.190000 0.731770
v -0.500500 1.790000 1.463562
v -0.500500 -0.190000 1.463562
v 0.500500 1.790000 0.862900
v -0.500500 1.790000 0.862900
v -0.500500 -0.190000 0.862900
v 0.500500 -0.190000 0.862900
v 0.405405 1.691000 0.001985
v -0.405405 1.691000 0.001985
v -0.405405 -0.091000 0.001985
v 0.405405 -0.091000 0.001985
v 0.405405 1.691000 0.776610
v -0.405405 1.691000 0.776610
v -0.405405 -0.091000 0.776610
v 0.405405 -0.091000 0.776610
v 0.352154 1.573966 0.001985
v -0.352154 1.573966 0.001985
v -0.352154 0.026034 0.001985
v 0.352154 0.026034 0.001985
v 0.352154 1.573966 0.776610
v -0.352154 1.573966 0.776610
v -0.352154 0.026034 0.776610
v 0.352154 0.026034 0.776610
vt 0.406250 0.703125
vt 0.531250 1.000000
vt 0.406250 1.000000
vt 0.531250 0.703125
vt 0.671875 1.000000
vt 0.000000 0.703125
vt 0.125000 1.000000
vt 0.000000 1.000000
vt 0.078125 0.578125
vt 0.218750 0.500000
vt 0.218750 0.578125
vt 0.265625 0.703125
vt 0.265625 1.000000
vt 0.515625 0.625000
vt 0.359375 0.703125
vt 0.359375 0.625000
vt 0.593750 0.312500
vt 0.468750 0.343750
vt 0.453125 0.312500
vt 0.109375 0.500000
vt 0.234375 0.484375
vt 0.250000 0.500000
vt 0.015625 0.312500
vt 0.125000 0.359375
vt 0.109375 0.390625
vt 0.234375 0.359375
vt 0.234375 0.375000
vt 0.250000 0.390625
vt 0.328125 0.312500
vt 0.343750 0.328125
vt 0.015625 0.406250
vt 0.109375 0.484375
vt 0.109375 0.390625
vt 0.453125 0.359375
vt 0.578125 0.375000
vt 0.468750 0.375000
vt 0.328125 0.406250
vt 0.343750 0.421875
vt 0.468750 0.390625
vt 0.312500 0.390625
vt 0.234375 0.468750
vt 0.578125 0.343750
vt 0.468750 0.359375
vt 0.312500 0.296875
vt 0.125000 0.468750
vt 0.296875 0.609375
vt 0.578125 0.609375
vt 0.515625 0.703125
vt 0.296875 0.609375
vt 0.000000 0.609375
vt 0.078125 0.703125
vt 0.671875 0.703125
vt 0.125000 0.703125
vt 0.078125 0.500000
vt 0.031250 0.296875
vt 0.000000 0.421875
vt 0.000000 0.328125
vt 0.593750 0.359375
vt 0.578125 0.390625
vt 0.578125 0.359375
vt 0.031250 0.390625
vt 0.359375 0.500000
vt 0.515625 0.500000
vt 0.218750 0.703125
vt 0.343750 0.500000
vt 0.453125 0.390625
vt 0.453125 0.500000
vt 0.453125 0.390625
vt 0.562500 0.500000
vt 0.453125 0.500000
vt 0.343750 0.390625
vt 0.562500 0.390625
vn 0.8254 0.0000 0.5645
vn 0.8254 0.0000 -0.5645
vn -0.8254 0.0000 -0.5645
vn -0.0000 1.0000 0.0000
vn -0.8254 0.0000 0.5645
vn 0.0000 0.0000 1.0000
vn 0.0000 -1.0000 0.0000
vn 0.0000 -0.6571 -0.7538
vn 0.0000 0.0202 0.9998
vn -0.9102 -0.4141 0.0000
vn 0.7212 -0.6927 0.0000
vn 0.7212 0.6927 0.0000
vn 0.0000 -0.0202 0.9998
vn -0.7212 -0.6927 0.0000
vn -0.0000 0.6571 -0.7538
vn -0.7212 0.6927 0.0000
vn 0.0000 -0.0000 -1.0000
vn -0.9102 0.4141 -0.0000
vn 0.9102 -0.4141 0.0000
vn 0.9102 0.4141 0.0000
s off
f 2/1/1 3/2/1 1/3/1
f 4/4/2 5/5/2 3/2/2
f 8/6/3 9/7/3 7/8/3
f 14/9/4 1/10/4 13/11/4
f 9/7/5 12/12/5 11/13/5
f 12/12/6 1/3/6 11/13/6
f 16/14/7 12/15/7 15/16/7
f 15/17/8 24/18/8 16/19/8
f 7/20/9 17/21/9 5/22/9
f 24/23/10 28/24/10 20/25/10
f 20/25/6 27/26/6 19/27/6
f 8/28/11 23/29/11 15/30/11
f 7/20/12 22/31/12 18/32/12
f 6/33/13 19/27/13 8/28/13
f 6/33/14 24/23/14 20/25/14
f 14/34/15 21/35/15 22/36/15
f 5/22/16 21/37/16 13/38/16
f 21/35/17 30/39/17 22/36/17
f 17/21/18 29/40/18 21/37/18
f 18/32/6 25/41/6 17/21/6
f 23/42/17 32/43/17 24/18/17
f 19/27/19 31/44/19 23/29/19
f 22/31/20 26/45/20 18/32/20
f 10/46/7 15/16/7 12/15/7
f 16/14/7 4/47/7 2/48/7
f 3/49/4 13/11/4 1/10/4
f 9/50/4 14/9/4 7/51/4
f 2/1/1 4/4/1 3/2/1
f 4/4/2 6/52/2 5/5/2
f 8/6/3 10/53/3 9/7/3
f 14/9/4 11/54/4 1/10/4
f 9/7/5 10/53/5 12/12/5
f 12/12/6 2/1/6 1/3/6
f 16/14/7 2/48/7 12/15/7
f 15/17/8 23/42/8 24/18/8
f 7/20/9 18/32/9 17/21/9
f 24/23/10 32/55/10 28/24/10
f 20/25/6 28/24/6 27/26/6
f 8/28/11 19/27/11 23/29/11
f 7/20/12 14/56/12 22/31/12
f 6/33/13 20/25/13 19/27/13
f 6/33/14 16/57/14 24/23/14
f 14/34/15 13/58/15 21/35/15
f 5/22/16 17/21/16 21/37/16
f 21/35/17 29/59/17 30/39/17
f 17/21/18 25/41/18 29/40/18
f 18/32/6 26/45/6 25/41/6
f 23/42/17 31/60/17 32/43/17
f 19/27/19 27/26/19 31/44/19
f 22/31/20 30/61/20 26/45/20
f 10/46/7 8/62/7 15/16/7
f 16/14/7 6/63/7 4/47/7
f 3/49/4 5/64/4 13/11/4
f 9/50/4 11/54/4 14/9/4
f 26/65/4 29/66/4 25/67/4
f 28/68/7 31/69/7 27/70/7
f 26/65/4 30/71/4 29/66/4
f 28/68/7 32/72/7 31/69/7
o Plane
v -0.500000 -0.500000 0.000000
v 0.500000 -0.500000 0.000000
v -0.500000 0.500000 0.000000
v 0.500000 0.500000 0.000000
v -0.480000 -0.480000 0.020000
v 0.480000 -0.480000 0.020000
v -0.480000 0.480000 0.020000
v 0.480000 0.480000 0.020000
vt 0.234375 0.015625
vt 0.015625 0.234375
vt 0.015625 0.015625
vt 0.250000 0.250000
vt 0.250000 0.000000
vt 0.000000 0.000000
vt 0.000000 0.250000
vt 0.234375 0.234375
vn 0.0000 0.0000 1.0000
vn 0.7071 0.0000 0.7071
vn -0.7071 0.0000 0.7071
vn 0.0000 0.7071 0.7071
vn 0.0000 -0.7071 0.7071
s off
f 38/73/21 39/74/21 37/75/21
f 36/76/22 38/73/22 34/77/22
f 33/78/23 39/74/23 35/79/23
f 35/79/24 40/80/24 36/76/24
f 34/77/25 37/75/25 33/78/25
f 38/73/21 40/80/21 39/74/21
f 36/76/22 40/80/22 38/73/22
f 33/78/23 37/75/23 39/74/23
f 35/79/24 39/74/24 40/80/24
f 34/77/25 38/73/25 37/75/25
