# Blender v3.0.1 OBJ File: 'walk_tile.blend'
# www.blender.org
o Plane
v -0.500000 -0.500000 -0.021000
v 0.500000 -0.500000 -0.021000
v -0.500000 0.500000 -0.021000
v 0.500000 0.500000 -0.021000
v -0.480000 -0.480000 -0.001000
v 0.480000 -0.480000 -0.001000
v -0.480000 0.480000 -0.001000
v 0.480000 0.480000 -0.001000
vt 0.937500 0.062500
vt 0.062500 0.937500
vt 0.062500 0.062500
vt 1.000000 1.000000
vt 1.000000 0.000000
vt 0.000000 0.000000
vt 0.000000 1.000000
vt 0.937500 0.937500
vn 0.0000 0.0000 1.0000
vn 0.7071 0.0000 0.7071
vn -0.7071 0.0000 0.7071
vn 0.0000 0.7071 0.7071
vn 0.0000 -0.7071 0.7071
s off
f 6/1/1 7/2/1 5/3/1
f 4/4/2 6/1/2 2/5/2
f 1/6/3 7/2/3 3/7/3
f 3/7/4 8/8/4 4/4/4
f 2/5/5 5/3/5 1/6/5
f 6/1/1 8/8/1 7/2/1
f 4/4/2 8/8/2 6/1/2
f 1/6/3 5/3/3 7/2/3
f 3/7/4 7/2/4 8/8/4
f 2/5/5 6/1/5 5/3/5
