# Blender v3.0.1 OBJ File: 'staff.blend'
# www.blender.org
o Plane
v -0.007076 -0.016900 -0.004572
v 0.009915 -0.011473 -0.002121
v -0.013693 0.012146 -0.004492
v 0.004566 0.015134 -0.002104
v -0.034932 0.143289 0.000000
v -0.006574 0.140893 0.000000
v -0.040883 0.196554 0.000000
v -0.007825 0.211439 0.000000
v -0.053532 0.197652 0.000000
v -0.085982 0.211574 0.000000
v -0.053326 0.188758 0.000000
v -0.074242 0.176743 0.000000
v -0.040441 0.181495 0.000000
v -0.043598 0.168476 0.000000
v 0.005236 -0.092009 -0.000000
v 0.027716 -0.081227 -0.000000
v 0.013230 -0.153898 -0.000000
v 0.033575 -0.145055 -0.000000
v 0.017860 -0.195001 -0.000000
v 0.034787 -0.197402 -0.000000
v 0.026823 -0.252627 -0.000000
v 0.038943 -0.256832 -0.000000
v 0.041129 -0.300909 -0.000000
v 0.051145 -0.303938 -0.000000
v -0.000826 -0.018615 0.001037
v 0.009400 -0.014408 0.003437
v -0.007776 0.017681 0.001743
v 0.003820 0.017739 0.004067
v -0.031224 0.141773 0.010819
v -0.016390 0.143296 0.010797
v -0.033060 0.199871 0.009866
v -0.018090 0.205644 0.014029
v -0.061266 0.203403 0.009837
v -0.074096 0.210086 0.014029
v -0.059649 0.188468 0.009632
v -0.070125 0.182507 0.014029
v -0.043189 0.180459 0.009714
v -0.046885 0.172901 0.013361
v 0.010980 -0.085479 0.005859
v 0.025378 -0.080986 0.007925
v 0.020621 -0.154711 0.004192
v 0.029750 -0.149655 0.007311
v 0.023071 -0.199568 0.004435
v 0.033159 -0.198311 0.006454
v 0.030979 -0.249634 0.003412
v 0.038545 -0.255068 0.005447
v 0.039592 -0.285013 0.002166
v 0.047541 -0.295850 0.004263
v -0.036117 0.232115 0.000000
v -0.046057 0.202774 0.000000
v -0.037347 0.222516 0.014029
v -0.042683 0.210346 0.009852
v -0.001489 0.173032 0.000000
v -0.032545 0.168845 0.000000
v -0.011620 0.172008 0.012413
v -0.026732 0.169360 0.010343
v -0.063048 0.231214 0.000000
v -0.057472 0.222637 0.014029
v -0.053190 0.201120 0.000000
v -0.054470 0.209766 0.009844
v 0.006388 0.044556 0.000000
v -0.021668 0.041424 0.000000
v 0.001664 0.046716 0.009612
v -0.015082 0.045566 0.008080
v -0.004110 -0.049354 -0.000000
v 0.020725 -0.040559 -0.000000
v 0.002782 -0.047392 0.006282
v 0.017983 -0.042443 0.008353
v -0.007076 -0.016900 0.004572
v 0.009915 -0.011473 0.002121
v -0.013693 0.012146 0.004492
v 0.004566 0.015134 0.002104
v -0.000826 -0.018615 -0.001037
v 0.009400 -0.014408 -0.003437
v -0.007776 0.017681 -0.001743
v 0.003820 0.017739 -0.004067
v -0.031224 0.141773 -0.010819
v -0.016390 0.143296 -0.010797
v -0.033060 0.199871 -0.009866
v -0.018090 0.205644 -0.014029
v -0.061266 0.203403 -0.009837
v -0.074096 0.210086 -0.014029
v -0.059649 0.188468 -0.009632
v -0.070125 0.182507 -0.014029
v -0.043189 0.180459 -0.009714
v -0.046885 0.172901 -0.013361
v 0.010980 -0.085479 -0.005859
v 0.025378 -0.080986 -0.007925
v 0.020621 -0.154711 -0.004192
v 0.029750 -0.149655 -0.007311
v 0.023071 -0.199568 -0.004435
v 0.033159 -0.198311 -0.006454
v 0.030979 -0.249634 -0.003412
v 0.038545 -0.255068 -0.005447
v 0.039592 -0.285013 -0.002166
v 0.047541 -0.295850 -0.004263
v -0.037347 0.222516 -0.014029
v -0.042683 0.210346 -0.009852
v -0.011620 0.172008 -0.012413
v -0.026732 0.169360 -0.010343
v -0.057472 0.222637 -0.014029
v -0.054470 0.209766 -0.009844
v 0.001664 0.046716 -0.009612
v -0.015082 0.045566 -0.008080
v 0.002782 -0.047392 -0.006282
v 0.017983 -0.042443 -0.008353
vt 0.593750 0.445312
vt 0.644531 0.558594
vt 0.554688 0.472656
vt 0.669469 0.579078
vt 0.792969 0.617188
vt 0.753906 0.648438
vt 0.871094 0.675781
vt 0.894531 0.781250
vt 0.828125 0.707031
vt 0.894531 0.875000
vt 0.890625 0.941406
vt 0.875000 0.902344
vt 0.820312 0.941406
vt 0.828125 0.902344
vt 0.781250 0.902344
vt 0.785156 0.882812
vt 0.516471 0.436102
vt 0.496094 0.359375
vt 0.552211 0.408758
vt 0.464844 0.386719
vt 0.417969 0.281250
vt 0.390625 0.300781
vt 0.285156 0.203125
vt 0.140625 0.132812
vt 0.132812 0.105469
vt 0.050781 0.066406
vt 0.035156 0.031250
vt 0.820312 0.582031
vt 0.699484 0.538781
vt 0.717781 0.503625
vt 0.492538 0.459044
vt 0.634859 0.599156
vt 0.574570 0.385903
vt 0.890625 0.988281
vt 0.121094 0.144531
vt 0.269531 0.226562
vt 0.269531 0.253906
vt 0.605469 0.574219
vt 0.839844 0.859375
vt 0.812500 0.863281
vt 0.300781 0.183594
vt 0.136719 0.085938
vt 0.906250 0.644531
vt 0.937500 0.753906
vt 0.429688 0.398438
vt 0.742188 0.886719
vt 0.003906 0.039062
vt 0.796875 0.734375
vt 0.445312 0.265625
vt 0.621094 0.425781
vt 0.671875 0.515625
vt 0.781250 0.960938
vt 0.773438 0.859375
vt 0.015625 0.003906
vt 0.964844 0.929688
vt 0.937500 0.894531
vt 0.378906 0.328125
vt 0.859375 0.835938
vt 0.910156 0.832031
vt 0.851562 0.855469
vt 0.984375 0.738281
vt 0.953125 0.832031
vt 0.851562 0.812500
vt 0.996094 0.851562
vt 0.734375 0.683594
vt 0.687500 0.480469
vt 0.511719 0.332031
vt 0.539062 0.503906
vt 0.644531 0.558594
vt 0.593750 0.445312
vt 0.554688 0.472656
vt 0.669469 0.579078
vt 0.792969 0.617188
vt 0.699484 0.538781
vt 0.894531 0.781250
vt 0.871094 0.675781
vt 0.828125 0.707031
vt 0.894531 0.875000
vt 0.890625 0.941406
vt 0.937500 0.894531
vt 0.875000 0.902344
vt 0.820312 0.941406
vt 0.828125 0.902344
vt 0.781250 0.902344
vt 0.496094 0.359375
vt 0.516471 0.436102
vt 0.552211 0.408758
vt 0.417969 0.281250
vt 0.464844 0.386719
vt 0.285156 0.203125
vt 0.390625 0.300781
vt 0.140625 0.132812
vt 0.269531 0.226562
vt 0.132812 0.105469
vt 0.050781 0.066406
vt 0.605469 0.574219
vt 0.621094 0.425781
vt 0.539062 0.503906
vt 0.937500 0.753906
vt 0.785156 0.882812
vt 0.035156 0.031250
vt 0.753906 0.648438
vt 0.671875 0.515625
vt 0.687500 0.480469
vt 0.953125 0.832031
vt 0.910156 0.832031
vn 0.4813 0.2068 0.8518
vn -0.4052 -0.1947 0.8932
vn -0.4659 0.0021 0.8848
vn -0.4276 -0.1700 0.8878
vn 0.3531 -0.0231 0.9353
vn -0.6081 -0.0308 0.7932
vn 0.4007 -0.0240 0.9159
vn -0.4318 -0.2376 0.8701
vn -0.5014 -0.0304 0.8647
vn 0.1981 -0.4740 0.8579
vn -0.3952 0.1903 0.8987
vn 0.4645 -0.1595 0.8711
vn -0.3776 -0.3480 0.8581
vn 0.4743 0.3034 0.8264
vn 0.3135 -0.5012 0.8065
vn 0.7262 0.3535 0.5895
vn -0.4267 0.0017 0.9044
vn 0.5559 0.0718 0.8282
vn 0.4793 0.1878 0.8573
vn -0.3977 -0.0812 0.9139
vn 0.3844 -0.0117 0.9231
vn -0.4034 -0.0531 0.9135
vn 0.5203 0.0319 0.8534
vn -0.4413 -0.0978 0.8920
vn 0.5383 0.0233 0.8424
vn -0.4769 -0.1433 0.8672
vn 0.3684 -0.0687 0.9271
vn 1.0000 0.0074 0.0000
vn 0.4906 -0.0392 0.8705
vn 0.9992 0.0402 0.0000
vn -0.9969 -0.0784 0.0000
vn -0.9477 -0.3192 0.0000
vn 0.9621 0.2727 0.0000
vn -0.9584 0.2853 0.0000
vn -0.9702 -0.2420 0.0000
vn -0.4631 -0.0602 0.8842
vn -0.9966 -0.0829 0.0000
vn -0.6261 -0.1892 0.7564
vn 1.0000 0.0059 0.0000
vn 0.7783 0.6278 0.0000
vn 0.9973 0.0739 0.0000
vn 0.9873 0.1590 0.0000
vn 1.0000 0.0050 0.0000
vn 0.3476 0.1820 0.9198
vn -0.9836 -0.1800 0.0000
vn 0.5109 -0.8596 0.0000
vn -0.7121 -0.7021 0.0000
vn -0.9976 -0.0687 0.0000
vn 0.9988 0.0478 0.0000
vn 0.9512 0.2340 0.2012
vn 0.5759 -0.0697 0.8145
vn -0.6980 -0.7160 0.0000
vn 0.9191 0.3941 0.0000
vn 0.6165 -0.7873 0.0000
vn -0.3681 0.9298 0.0000
vn -0.1204 0.3971 0.9098
vn -0.9926 -0.1210 0.0000
vn -0.3340 -0.9425 0.0000
vn -0.1923 -0.4548 0.8695
vn 0.7597 -0.6503 0.0000
vn 0.8653 0.5012 0.0000
vn 0.1468 0.4083 0.9009
vn -0.8958 -0.4444 0.0000
vn 0.2872 0.9579 0.0000
vn -0.9996 -0.0278 0.0000
vn 0.9918 0.1014 0.0772
vn 0.9908 0.1354 0.0000
vn -0.6778 -0.0800 0.7308
vn -0.4052 -0.1947 -0.8932
vn 0.4813 0.2068 -0.8518
vn -0.4659 0.0021 -0.8848
vn -0.4276 -0.1700 -0.8878
vn 0.3531 -0.0231 -0.9353
vn 0.4906 -0.0392 -0.8705
vn -0.4318 -0.2376 -0.8701
vn 0.4007 -0.0240 -0.9159
vn -0.5014 -0.0304 -0.8647
vn 0.1981 -0.4740 -0.8579
vn -0.3952 0.1903 -0.8987
vn -0.1204 0.3971 -0.9098
vn 0.4645 -0.1595 -0.8711
vn -0.3776 -0.3480 -0.8581
vn 0.4743 0.3034 -0.8264
vn 0.3135 -0.5012 -0.8065
vn 0.5559 0.0718 -0.8282
vn -0.4267 0.0017 -0.9044
vn 0.4793 0.1878 -0.8573
vn 0.3844 -0.0117 -0.9231
vn -0.3977 -0.0812 -0.9139
vn 0.5203 0.0319 -0.8534
vn -0.4034 -0.0531 -0.9135
vn -0.4413 -0.0978 -0.8920
vn -0.4631 -0.0602 -0.8842
vn 0.5383 0.0233 -0.8424
vn -0.4769 -0.1433 -0.8672
vn -0.6261 -0.1892 -0.7564
vn 0.9512 0.2340 -0.2012
vn -0.6778 -0.0800 -0.7308
vn 0.3476 0.1820 -0.9198
vn 0.7262 0.3535 -0.5895
vn 0.3684 -0.0687 -0.9271
vn -0.6081 -0.0308 -0.7932
vn 0.5759 -0.0697 -0.8145
vn 0.9918 0.1014 -0.0772
vn 0.1468 0.4083 -0.9009
vn -0.1923 -0.4548 -0.8695
s 1
f 26/1/1 27/2/2 25/3/3
f 64/4/4 30/5/5 29/6/6
f 55/7/7 31/8/8 56/9/9
f 60/10/10 34/11/11 33/12/12
f 33/12/12 36/13/13 35/14/14
f 35/14/14 38/15/15 37/16/16
f 67/17/17 40/18/18 68/19/19
f 39/20/20 42/21/21 40/18/18
f 41/22/22 44/23/23 42/21/21
f 44/23/23 45/24/24 46/25/25
f 46/25/25 47/26/26 48/27/27
f 6/28/28 63/29/29 61/30/30
f 65/31/31 39/20/20 67/17/17
f 62/32/32 27/2/2 64/4/4
f 66/33/33 26/1/1 68/19/19
f 10/34/34 36/13/13 34/11/11
f 21/35/35 43/36/36 19/37/37
f 3/38/38 25/3/3 27/2/2
f 9/39/39 35/14/14 11/40/40
f 20/41/41 46/25/25 22/42/42
f 53/43/43 32/44/44 55/7/7
f 15/45/45 41/22/22 39/20/20
f 14/46/46 37/16/16 38/15/15
f 23/47/47 48/27/27 47/26/26
f 54/48/48 29/6/6 56/9/9
f 18/49/49 40/18/18 42/21/21
f 2/50/50 28/51/51 26/1/1
f 12/52/52 38/15/15 36/13/13
f 21/35/35 47/26/26 45/24/24
f 11/40/40 37/16/16 13/53/53
f 22/42/42 48/27/27 24/54/54
f 57/55/55 34/11/11 58/56/56
f 19/37/37 41/22/22 17/57/57
f 50/58/58 31/8/8 52/59/59
f 20/41/41 42/21/21 44/23/23
f 50/58/58 60/10/10 59/60/60
f 8/61/61 51/62/62 32/44/44
f 31/8/8 51/62/62 52/59/59
f 7/63/63 56/9/9 31/8/8
f 6/28/28 55/7/7 30/5/5
f 30/5/5 56/9/9 29/6/6
f 59/60/60 33/12/12 9/39/39
f 49/64/64 58/56/56 51/62/62
f 52/59/59 58/56/56 60/10/10
f 5/65/65 64/4/4 29/6/6
f 61/30/30 28/51/51 4/66/66
f 27/2/2 63/29/29 64/4/4
f 16/67/67 68/19/19 40/18/18
f 65/31/31 25/3/3 1/68/68
f 25/3/3 68/19/19 26/1/1
f 75/69/69 74/70/70 73/71/71
f 104/72/72 78/73/73 103/74/74
f 79/75/75 99/76/76 100/77/77
f 102/78/78 82/79/79 101/80/80
f 81/81/81 84/82/82 82/79/79
f 83/83/83 86/84/84 84/82/82
f 88/85/85 105/86/86 106/87/87
f 90/88/88 87/89/89 88/85/85
f 92/90/90 89/91/91 90/88/88
f 92/90/90 93/92/92 91/93/93
f 94/94/94 95/95/95 93/92/92
f 103/74/74 6/28/28 61/30/30
f 65/31/31 87/89/89 15/45/45
f 62/32/32 75/69/69 71/96/96
f 66/33/33 74/70/70 70/97/97
f 10/34/34 84/82/82 12/52/52
f 91/93/93 21/35/35 19/37/37
f 71/96/96 73/71/71 69/98/98
f 83/83/83 9/39/39 11/40/40
f 94/94/94 20/41/41 22/42/42
f 53/43/43 80/99/99 8/61/61
f 15/45/45 89/91/91 17/57/57
f 14/46/46 85/100/100 13/53/53
f 23/47/47 96/101/101 24/54/54
f 54/48/48 77/102/102 5/65/65
f 18/49/49 88/85/85 16/67/67
f 70/97/97 76/103/103 72/104/104
f 12/52/52 86/84/84 14/46/46
f 21/35/35 95/95/95 23/47/47
f 85/100/100 11/40/40 13/53/53
f 96/101/101 22/42/42 24/54/54
f 57/55/55 82/79/79 10/34/34
f 89/91/91 19/37/37 17/57/57
f 50/58/58 79/75/75 7/63/63
f 20/41/41 90/88/88 18/49/49
f 102/78/78 50/58/58 59/60/60
f 8/61/61 97/105/105 49/64/64
f 79/75/75 97/105/105 80/99/99
f 7/63/63 100/77/77 54/48/48
f 6/28/28 99/76/76 53/43/43
f 100/77/77 78/73/73 77/102/102
f 81/81/81 59/60/60 9/39/39
f 49/64/64 101/80/80 57/55/55
f 98/106/106 101/80/80 97/105/105
f 5/65/65 104/72/72 62/32/32
f 76/103/103 61/30/30 72/104/104
f 75/69/69 103/74/74 76/103/103
f 16/67/67 106/87/87 66/33/33
f 73/71/71 65/31/31 69/98/98
f 106/87/87 73/71/71 74/70/70
f 26/1/1 28/51/51 27/2/2
f 64/4/4 63/29/29 30/5/5
f 55/7/7 32/44/44 31/8/8
f 60/10/10 58/56/56 34/11/11
f 33/12/12 34/11/11 36/13/13
f 35/14/14 36/13/13 38/15/15
f 67/17/17 39/20/20 40/18/18
f 39/20/20 41/22/22 42/21/21
f 41/22/22 43/36/36 44/23/23
f 44/23/23 43/36/36 45/24/24
f 46/25/25 45/24/24 47/26/26
f 6/28/28 30/5/5 63/29/29
f 65/31/31 15/45/45 39/20/20
f 62/32/32 3/38/38 27/2/2
f 66/33/33 2/50/50 26/1/1
f 10/34/34 12/52/52 36/13/13
f 21/35/35 45/24/24 43/36/36
f 3/38/38 1/68/68 25/3/3
f 9/39/39 33/12/12 35/14/14
f 20/41/41 44/23/23 46/25/25
f 53/43/43 8/61/61 32/44/44
f 15/45/45 17/57/57 41/22/22
f 14/46/46 13/53/53 37/16/16
f 23/47/47 24/54/54 48/27/27
f 54/48/48 5/65/65 29/6/6
f 18/49/49 16/67/67 40/18/18
f 2/50/50 4/66/66 28/51/51
f 12/52/52 14/46/46 38/15/15
f 21/35/35 23/47/47 47/26/26
f 11/40/40 35/14/14 37/16/16
f 22/42/42 46/25/25 48/27/27
f 57/55/55 10/34/34 34/11/11
f 19/37/37 43/36/36 41/22/22
f 50/58/58 7/63/63 31/8/8
f 20/41/41 18/49/49 42/21/21
f 50/58/58 52/59/59 60/10/10
f 8/61/61 49/64/64 51/62/62
f 31/8/8 32/44/44 51/62/62
f 7/63/63 54/48/48 56/9/9
f 6/28/28 53/43/43 55/7/7
f 30/5/5 55/7/7 56/9/9
f 59/60/60 60/10/10 33/12/12
f 49/64/64 57/55/55 58/56/56
f 52/59/59 51/62/62 58/56/56
f 5/65/65 62/32/32 64/4/4
f 61/30/30 63/29/29 28/51/51
f 27/2/2 28/51/51 63/29/29
f 16/67/67 66/33/33 68/19/19
f 65/31/31 67/17/17 25/3/3
f 25/3/3 67/17/17 68/19/19
f 75/69/69 76/103/103 74/70/70
f 104/72/72 77/102/102 78/73/73
f 79/75/75 80/99/99 99/76/76
f 102/78/78 81/81/81 82/79/79
f 81/81/81 83/83/83 84/82/82
f 83/83/83 85/100/100 86/84/84
f 88/85/85 87/89/89 105/86/86
f 90/88/88 89/91/91 87/89/89
f 92/90/90 91/93/93 89/91/91
f 92/90/90 94/94/94 93/92/92
f 94/94/94 96/101/101 95/95/95
f 103/74/74 78/73/73 6/28/28
f 65/31/31 105/86/86 87/89/89
f 62/32/32 104/72/72 75/69/69
f 66/33/33 106/87/87 74/70/70
f 10/34/34 82/79/79 84/82/82
f 91/93/93 93/92/92 21/35/35
f 71/96/96 75/69/69 73/71/71
f 83/83/83 81/81/81 9/39/39
f 94/94/94 92/90/90 20/41/41
f 53/43/43 99/76/76 80/99/99
f 15/45/45 87/89/89 89/91/91
f 14/46/46 86/84/84 85/100/100
f 23/47/47 95/95/95 96/101/101
f 54/48/48 100/77/77 77/102/102
f 18/49/49 90/88/88 88/85/85
f 70/97/97 74/70/70 76/103/103
f 12/52/52 84/82/82 86/84/84
f 21/35/35 93/92/92 95/95/95
f 85/100/100 83/83/83 11/40/40
f 96/101/101 94/94/94 22/42/42
f 57/55/55 101/80/80 82/79/79
f 89/91/91 91/93/93 19/37/37
f 50/58/58 98/106/106 79/75/75
f 20/41/41 92/90/90 90/88/88
f 102/78/78 98/106/106 50/58/58
f 8/61/61 80/99/99 97/105/105
f 79/75/75 98/106/106 97/105/105
f 7/63/63 79/75/75 100/77/77
f 6/28/28 78/73/73 99/76/76
f 100/77/77 99/76/76 78/73/73
f 81/81/81 102/78/78 59/60/60
f 49/64/64 97/105/105 101/80/80
f 98/106/106 102/78/78 101/80/80
f 5/65/65 77/102/102 104/72/72
f 76/103/103 103/74/74 61/30/30
f 75/69/69 104/72/72 103/74/74
f 16/67/67 88/85/85 106/87/87
f 73/71/71 105/86/86 65/31/31
f 106/87/87 105/86/86 73/71/71
