{
    "asset" : {
        "generator" : "Khronos glTF Blender I/O v1.7.33",
        "version" : "2.0"
    },
    "scene" : 0,
    "scenes" : [
        {
            "name" : "Scene",
            "nodes" : [
                10
            ]
        }
    ],
    "nodes" : [
        {
            "name" : "top.001",
            "rotation" : [
                0,
                0,
                3.808235486285297e-23,
                1
            ],
            "translation" : [
                -3.912564297375821e-22,
                0.07881341129541397,
                0
            ]
        },
        {
            "children" : [
                0
            ],
            "name" : "top",
            "rotation" : [
                -0.7071066498756409,
                -5.3385061704602776e-08,
                -5.338508302088485e-08,
                0.70710688829422
            ],
            "translation" : [
                -3.6569798300689627e-09,
                0.7000000476837158,
                0.024219080805778503
            ]
        },
        {
            "name" : "base",
            "rotation" : [
                1.0362545310727e-07,
                -1.3234886645404822e-23,
                8.235409966819707e-15,
                1
            ],
            "translation" : [
                -9.677585843803627e-09,
                0.9153902530670166,
                0.0640917718410492
            ]
        },
        {
            "name" : "base.001",
            "rotation" : [
                1.405819745059489e-07,
                -6.67846009605455e-08,
                -0.3826833665370941,
                0.9238795638084412
            ],
            "translation" : [
                0.15249116718769073,
                0.8522263765335083,
                0.06409177929162979
            ]
        },
        {
            "name" : "base.002",
            "rotation" : [
                6.084160020236595e-08,
                2.520141784145835e-08,
                -0.9238795042037964,
                0.3826834559440613
            ],
            "scale" : [
                0.9999999403953552,
                1,
                1
            ],
            "translation" : [
                0.15249115228652954,
                0.5472440123558044,
                0.06409171968698502
            ]
        },
        {
            "name" : "base.003",
            "rotation" : [
                -2.821299176503089e-07,
                -1.5021599923962983e-21,
                1,
                4.8726403771223725e-14
            ],
            "translation" : [
                -9.67757607384101e-09,
                0.48408007621765137,
                0.06409167498350143
            ]
        },
        {
            "name" : "base.004",
            "rotation" : [
                5.280793970996456e-07,
                -3.495948703857721e-07,
                0.9238796234130859,
                0.3826832175254822
            ],
            "scale" : [
                1.0000004768371582,
                1,
                1
            ],
            "translation" : [
                -0.15249118208885193,
                0.5472439527511597,
                0.06409166753292084
            ]
        },
        {
            "name" : "base.005",
            "rotation" : [
                6.321956220745051e-07,
                -1.3006010703975335e-06,
                0.38268330693244934,
                0.9238796234130859
            ],
            "scale" : [
                1,
                0.9999999403953552,
                1
            ],
            "translation" : [
                -0.15249118208885193,
                0.8522262573242188,
                0.06409171968698502
            ]
        },
        {
            "children" : [
                1,
                2,
                3,
                4,
                5,
                6,
                7
            ],
            "name" : "Bone",
            "rotation" : [
                1,
                3.172062154502102e-16,
                7.549790126404332e-08,
                1.0643685754985199e-07
            ],
            "translation" : [
                2.5155943819360535e-17,
                0.699735164642334,
                0.11329229921102524
            ]
        },
        {
            "mesh" : 0,
            "name" : "Cylinder",
            "skin" : 0
        },
        {
            "children" : [
                9,
                8
            ],
            "name" : "Armature"
        }
    ],
    "animations" : [
        {
            "channels" : [
                {
                    "sampler" : 0,
                    "target" : {
                        "node" : 8,
                        "path" : "translation"
                    }
                },
                {
                    "sampler" : 1,
                    "target" : {
                        "node" : 8,
                        "path" : "rotation"
                    }
                },
                {
                    "sampler" : 2,
                    "target" : {
                        "node" : 1,
                        "path" : "translation"
                    }
                },
                {
                    "sampler" : 3,
                    "target" : {
                        "node" : 1,
                        "path" : "rotation"
                    }
                },
                {
                    "sampler" : 4,
                    "target" : {
                        "node" : 0,
                        "path" : "translation"
                    }
                },
                {
                    "sampler" : 5,
                    "target" : {
                        "node" : 0,
                        "path" : "rotation"
                    }
                },
                {
                    "sampler" : 6,
                    "target" : {
                        "node" : 2,
                        "path" : "translation"
                    }
                },
                {
                    "sampler" : 7,
                    "target" : {
                        "node" : 2,
                        "path" : "rotation"
                    }
                },
                {
                    "sampler" : 8,
                    "target" : {
                        "node" : 3,
                        "path" : "translation"
                    }
                },
                {
                    "sampler" : 9,
                    "target" : {
                        "node" : 3,
                        "path" : "rotation"
                    }
                },
                {
                    "sampler" : 10,
                    "target" : {
                        "node" : 4,
                        "path" : "translation"
                    }
                },
                {
                    "sampler" : 11,
                    "target" : {
                        "node" : 4,
                        "path" : "rotation"
                    }
                },
                {
                    "sampler" : 12,
                    "target" : {
                        "node" : 5,
                        "path" : "translation"
                    }
                },
                {
                    "sampler" : 13,
                    "target" : {
                        "node" : 5,
                        "path" : "rotation"
                    }
                },
                {
                    "sampler" : 14,
                    "target" : {
                        "node" : 6,
                        "path" : "translation"
                    }
                },
                {
                    "sampler" : 15,
                    "target" : {
                        "node" : 6,
                        "path" : "rotation"
                    }
                },
                {
                    "sampler" : 16,
                    "target" : {
                        "node" : 7,
                        "path" : "translation"
                    }
                },
                {
                    "sampler" : 17,
                    "target" : {
                        "node" : 7,
                        "path" : "rotation"
                    }
                }
            ],
            "name" : "Animation",
            "samplers" : [
                {
                    "input" : 7,
                    "interpolation" : "LINEAR",
                    "output" : 8
                },
                {
                    "input" : 7,
                    "interpolation" : "LINEAR",
                    "output" : 9
                },
                {
                    "input" : 7,
                    "interpolation" : "LINEAR",
                    "output" : 10
                },
                {
                    "input" : 7,
                    "interpolation" : "LINEAR",
                    "output" : 11
                },
                {
                    "input" : 7,
                    "interpolation" : "LINEAR",
                    "output" : 12
                },
                {
                    "input" : 7,
                    "interpolation" : "LINEAR",
                    "output" : 13
                },
                {
                    "input" : 7,
                    "interpolation" : "LINEAR",
                    "output" : 14
                },
                {
                    "input" : 7,
                    "interpolation" : "LINEAR",
                    "output" : 15
                },
                {
                    "input" : 7,
                    "interpolation" : "LINEAR",
                    "output" : 16
                },
                {
                    "input" : 7,
                    "interpolation" : "LINEAR",
                    "output" : 17
                },
                {
                    "input" : 7,
                    "interpolation" : "LINEAR",
                    "output" : 18
                },
                {
                    "input" : 7,
                    "interpolation" : "LINEAR",
                    "output" : 19
                },
                {
                    "input" : 7,
                    "interpolation" : "LINEAR",
                    "output" : 20
                },
                {
                    "input" : 7,
                    "interpolation" : "LINEAR",
                    "output" : 21
                },
                {
                    "input" : 7,
                    "interpolation" : "LINEAR",
                    "output" : 22
                },
                {
                    "input" : 7,
                    "interpolation" : "LINEAR",
                    "output" : 23
                },
                {
                    "input" : 7,
                    "interpolation" : "LINEAR",
                    "output" : 24
                },
                {
                    "input" : 7,
                    "interpolation" : "LINEAR",
                    "output" : 25
                }
            ]
        }
    ],
    "meshes" : [
        {
            "name" : "Cylinder",
            "primitives" : [
                {
                    "attributes" : {
                        "POSITION" : 0,
                        "NORMAL" : 1,
                        "TEXCOORD_0" : 2,
                        "JOINTS_0" : 3,
                        "WEIGHTS_0" : 4
                    },
                    "indices" : 5
                }
            ]
        }
    ],
    "skins" : [
        {
            "inverseBindMatrices" : 6,
            "joints" : [
                8,
                1,
                0,
                2,
                3,
                4,
                5,
                6,
                7
            ],
            "name" : "Armature"
        }
    ],
    "accessors" : [
        {
            "bufferView" : 0,
            "componentType" : 5126,
            "count" : 596,
            "max" : [
                0.47550004720687866,
                0.47550007700920105,
                0.23918427526950836
            ],
            "min" : [
                -0.47550004720687866,
                -0.47550004720687866,
                0.0009955742862075567
            ],
            "type" : "VEC3"
        },
        {
            "bufferView" : 1,
            "componentType" : 5126,
            "count" : 596,
            "type" : "VEC3"
        },
        {
            "bufferView" : 2,
            "componentType" : 5126,
            "count" : 596,
            "type" : "VEC2"
        },
        {
            "bufferView" : 3,
            "componentType" : 5121,
            "count" : 596,
            "type" : "VEC4"
        },
        {
            "bufferView" : 4,
            "componentType" : 5126,
            "count" : 596,
            "type" : "VEC4"
        },
        {
            "bufferView" : 5,
            "componentType" : 5123,
            "count" : 2688,
            "type" : "SCALAR"
        },
        {
            "bufferView" : 6,
            "componentType" : 5126,
            "count" : 9,
            "type" : "MAT4"
        },
        {
            "bufferView" : 7,
            "componentType" : 5126,
            "count" : 75,
            "max" : [
                3.0833333333333335
            ],
            "min" : [
                0
            ],
            "type" : "SCALAR"
        },
        {
            "bufferView" : 8,
            "componentType" : 5126,
            "count" : 75,
            "type" : "VEC3"
        },
        {
            "bufferView" : 9,
            "componentType" : 5126,
            "count" : 75,
            "type" : "VEC4"
        },
        {
            "bufferView" : 10,
            "componentType" : 5126,
            "count" : 75,
            "type" : "VEC3"
        },
        {
            "bufferView" : 11,
            "componentType" : 5126,
            "count" : 75,
            "type" : "VEC4"
        },
        {
            "bufferView" : 12,
            "componentType" : 5126,
            "count" : 75,
            "type" : "VEC3"
        },
        {
            "bufferView" : 13,
            "componentType" : 5126,
            "count" : 75,
            "type" : "VEC4"
        },
        {
            "bufferView" : 14,
            "componentType" : 5126,
            "count" : 75,
            "type" : "VEC3"
        },
        {
            "bufferView" : 15,
            "componentType" : 5126,
            "count" : 75,
            "type" : "VEC4"
        },
        {
            "bufferView" : 16,
            "componentType" : 5126,
            "count" : 75,
            "type" : "VEC3"
        },
        {
            "bufferView" : 17,
            "componentType" : 5126,
            "count" : 75,
            "type" : "VEC4"
        },
        {
            "bufferView" : 18,
            "componentType" : 5126,
            "count" : 75,
            "type" : "VEC3"
        },
        {
            "bufferView" : 19,
            "componentType" : 5126,
            "count" : 75,
            "type" : "VEC4"
        },
        {
            "bufferView" : 20,
            "componentType" : 5126,
            "count" : 75,
            "type" : "VEC3"
        },
        {
            "bufferView" : 21,
            "componentType" : 5126,
            "count" : 75,
            "type" : "VEC4"
        },
        {
            "bufferView" : 22,
            "componentType" : 5126,
            "count" : 75,
            "type" : "VEC3"
        },
        {
            "bufferView" : 23,
            "componentType" : 5126,
            "count" : 75,
            "type" : "VEC4"
        },
        {
            "bufferView" : 24,
            "componentType" : 5126,
            "count" : 75,
            "type" : "VEC3"
        },
        {
            "bufferView" : 25,
            "componentType" : 5126,
            "count" : 75,
            "type" : "VEC4"
        }
    ],
    "bufferViews" : [
        {
            "buffer" : 0,
            "byteLength" : 7152,
            "byteOffset" : 0
        },
        {
            "buffer" : 0,
            "byteLength" : 7152,
            "byteOffset" : 7152
        },
        {
            "buffer" : 0,
            "byteLength" : 4768,
            "byteOffset" : 14304
        },
        {
            "buffer" : 0,
            "byteLength" : 2384,
            "byteOffset" : 19072
        },
        {
            "buffer" : 0,
            "byteLength" : 9536,
            "byteOffset" : 21456
        },
        {
            "buffer" : 0,
            "byteLength" : 5376,
            "byteOffset" : 30992
        },
        {
            "buffer" : 0,
            "byteLength" : 576,
            "byteOffset" : 36368
        },
        {
            "buffer" : 0,
            "byteLength" : 300,
            "byteOffset" : 36944
        },
        {
            "buffer" : 0,
            "byteLength" : 900,
            "byteOffset" : 37244
        },
        {
            "buffer" : 0,
            "byteLength" : 1200,
            "byteOffset" : 38144
        },
        {
            "buffer" : 0,
            "byteLength" : 900,
            "byteOffset" : 39344
        },
        {
            "buffer" : 0,
            "byteLength" : 1200,
            "byteOffset" : 40244
        },
        {
            "buffer" : 0,
            "byteLength" : 900,
            "byteOffset" : 41444
        },
        {
            "buffer" : 0,
            "byteLength" : 1200,
            "byteOffset" : 42344
        },
        {
            "buffer" : 0,
            "byteLength" : 900,
            "byteOffset" : 43544
        },
        {
            "buffer" : 0,
            "byteLength" : 1200,
            "byteOffset" : 44444
        },
        {
            "buffer" : 0,
            "byteLength" : 900,
            "byteOffset" : 45644
        },
        {
            "buffer" : 0,
            "byteLength" : 1200,
            "byteOffset" : 46544
        },
        {
            "buffer" : 0,
            "byteLength" : 900,
            "byteOffset" : 47744
        },
        {
            "buffer" : 0,
            "byteLength" : 1200,
            "byteOffset" : 48644
        },
        {
            "buffer" : 0,
            "byteLength" : 900,
            "byteOffset" : 49844
        },
        {
            "buffer" : 0,
            "byteLength" : 1200,
            "byteOffset" : 50744
        },
        {
            "buffer" : 0,
            "byteLength" : 900,
            "byteOffset" : 51944
        },
        {
            "buffer" : 0,
            "byteLength" : 1200,
            "byteOffset" : 52844
        },
        {
            "buffer" : 0,
            "byteLength" : 900,
            "byteOffset" : 54044
        },
        {
            "buffer" : 0,
            "byteLength" : 1200,
            "byteOffset" : 54944
        }
    ],
    "buffers" : [
        {
            "byteLength" : 56144,
            "uri" : "data:application/octet-stream;base64,"
        }
    ]
}
