{
    "asset" : {
        "generator" : "Khronos glTF Blender I/O v1.7.33",
        "version" : "2.0"
    },
    "scene" : 0,
    "scenes" : [
        {
            "name" : "Scene",
            "nodes" : [
                25
            ]
        }
    ],
    "nodes" : [
        {
            "name" : "head",
            "rotation" : [
                0.7071066498756409,
                9.272589807096665e-08,
                -3.680833913222159e-07,
                0.70710688829422
            ],
            "translation" : [
                6.418298984195263e-15,
                0,
                9.814726809054264e-09
            ]
        },
        {
            "name" : "tail",
            "rotation" : [
                -0.7071068286895752,
                -2.2476470462606812e-08,
                4.832857598557894e-07,
                0.7071067094802856
            ],
            "translation" : [
                6.418298984195263e-15,
                0,
                9.814726809054264e-09
            ]
        },
        {
            "name" : "panel.l",
            "rotation" : [
                0.7465655207633972,
                0.11021409183740616,
                -0.09563374519348145,
                0.6491124629974365
            ],
            "scale" : [
                0.9999999403953552,
                0.9999998807907104,
                1
            ],
            "translation" : [
                0.05168526992201805,
                -0.07465648651123047,
                0.035609375685453415
            ]
        },
        {
            "name" : "panel.r",
            "rotation" : [
                0.7465366721153259,
                -0.11001764982938766,
                0.09585864841938019,
                0.649145781993866
            ],
            "scale" : [
                1,
                0.9999999403953552,
                1
            ],
            "translation" : [
                -0.05168522149324417,
                -0.07465648651123047,
                0.03560946509242058
            ]
        },
        {
            "name" : "fingertip1.l",
            "rotation" : [
                4.388517993447749e-07,
                -3.319754426911459e-08,
                0.3416852653026581,
                0.9398144483566284
            ],
            "scale" : [
                0.9999999403953552,
                0.9999998807907104,
                1
            ],
            "translation" : [
                -2.2555513012889605e-09,
                0.04325583577156067,
                -1.4654943925052066e-14
            ]
        },
        {
            "children" : [
                4
            ],
            "name" : "finger1.l",
            "rotation" : [
                -2.489999495480788e-08,
                -1.4201479814346385e-07,
                0.00035637387190945446,
                0.9999999403953552
            ],
            "scale" : [
                1,
                0.9999999403953552,
                1
            ],
            "translation" : [
                0.046606361865997314,
                0.16111424565315247,
                -4.429216104995248e-08
            ]
        },
        {
            "name" : "fingertip3.l",
            "rotation" : [
                0.00030857601086609066,
                9.775095577424509e-08,
                0.00017818673222791404,
                0.9999999403953552
            ],
            "translation" : [
                -5.3028550439648825e-09,
                0.043255873024463654,
                7.783316213760827e-09
            ]
        },
        {
            "children" : [
                6
            ],
            "name" : "finger3.l",
            "rotation" : [
                -0.0002519167319405824,
                -0.2588193118572235,
                -0.0002519895788282156,
                0.9659256935119629
            ],
            "scale" : [
                1.0000001192092896,
                1,
                1
            ],
            "translation" : [
                -0.03080313839018345,
                0.16111421585083008,
                0.04468468576669693
            ]
        },
        {
            "name" : "fingertip2.l",
            "rotation" : [
                -0.00027300743386149406,
                1.8475701324405236e-07,
                0.00022891300613991916,
                0.9999999403953552
            ],
            "scale" : [
                1,
                0.9999998807907104,
                0.9999999403953552
            ],
            "translation" : [
                -9.216974738990302e-09,
                0.04325586557388306,
                2.485065708768275e-09
            ]
        },
        {
            "children" : [
                8
            ],
            "name" : "finger2.l",
            "rotation" : [
                0.00020444004621822387,
                0.25881877541542053,
                -0.0002917903766501695,
                0.9659258723258972
            ],
            "scale" : [
                1,
                0.9999999403953552,
                0.9999999403953552
            ],
            "translation" : [
                -0.030802695080637932,
                0.16111424565315247,
                -0.044651661068201065
            ]
        },
        {
            "children" : [
                5,
                7,
                9
            ],
            "name" : "hand.l",
            "rotation" : [
                -6.627529813840738e-08,
                2.225288397994518e-08,
                0.0009264564141631126,
                0.9999995827674866
            ],
            "translation" : [
                -1.1175872671742582e-08,
                0.08945143222808838,
                9.769962616701378e-15
            ]
        },
        {
            "children" : [
                10
            ],
            "name" : "arm.l",
            "rotation" : [
                1.4189460273428267e-07,
                -1.53258909563192e-07,
                -0.0009264562977477908,
                0.9999995827674866
            ],
            "scale" : [
                1,
                0.9999999403953552,
                1
            ],
            "translation" : [
                0.12895846366882324,
                0.029810607433319092,
                -9.827645897075854e-08
            ]
        },
        {
            "name" : "fingertip1.r",
            "rotation" : [
                -3.7578936940008134e-07,
                3.31980452017433e-08,
                -0.3416852653026581,
                0.9398144483566284
            ],
            "scale" : [
                0.9999999403953552,
                0.9999998807907104,
                1
            ],
            "translation" : [
                2.2555426415493685e-09,
                0.04325583577156067,
                1.3322676295501878e-15
            ]
        },
        {
            "children" : [
                12
            ],
            "name" : "finger1.r",
            "rotation" : [
                -2.5664689928817097e-08,
                -9.640397991006466e-08,
                -0.00035637387190945446,
                0.9999999403953552
            ],
            "scale" : [
                1,
                0.9999999403953552,
                1
            ],
            "translation" : [
                -0.046606361865997314,
                0.16111424565315247,
                4.460241953552213e-08
            ]
        },
        {
            "name" : "fingertip3.r",
            "rotation" : [
                0.00030857595265842974,
                1.337956945235419e-07,
                -0.00017818699416238815,
                0.9999999403953552
            ],
            "scale" : [
                1,
                0.9999999403953552,
                1
            ],
            "translation" : [
                1.3738448600975062e-08,
                0.043255873024463654,
                6.206025915389546e-09
            ]
        },
        {
            "children" : [
                14
            ],
            "name" : "finger3.r",
            "rotation" : [
                -0.00025191661552526057,
                0.2588188648223877,
                0.00025198975345119834,
                0.965925931930542
            ],
            "translation" : [
                0.03080323152244091,
                0.16111421585083008,
                0.04468462988734245
            ]
        },
        {
            "name" : "fingertip2.r",
            "rotation" : [
                -0.0002730076666921377,
                4.1820158003247343e-07,
                -0.00022891272965352982,
                0.9999999403953552
            ],
            "scale" : [
                1,
                0.9999998807907104,
                0.9999999403953552
            ],
            "translation" : [
                6.3708114339533495e-09,
                0.04325586557388306,
                -3.345817845001875e-09
            ]
        },
        {
            "children" : [
                16
            ],
            "name" : "finger2.r",
            "rotation" : [
                0.00020444024994503707,
                -0.258819580078125,
                0.00029179020202718675,
                0.9659256339073181
            ],
            "scale" : [
                1,
                0.9999999403953552,
                0.9999998807907104
            ],
            "translation" : [
                0.03080260194838047,
                0.16111424565315247,
                -0.04465171694755554
            ]
        },
        {
            "children" : [
                13,
                15,
                17
            ],
            "name" : "hand.r",
            "rotation" : [
                -6.80422758136956e-08,
                -2.236777874031759e-08,
                -0.0009264564141631126,
                0.9999995827674866
            ],
            "translation" : [
                1.1175869119028903e-08,
                0.08945143222808838,
                -4.440892098500626e-15
            ]
        },
        {
            "children" : [
                18
            ],
            "name" : "arm.r",
            "rotation" : [
                1.4341857479394093e-07,
                -1.0889464618912825e-07,
                0.0009264562977477908,
                0.9999995827674866
            ],
            "scale" : [
                1,
                0.9999999403953552,
                1
            ],
            "translation" : [
                -0.12895846366882324,
                0.029810607433319092,
                8.004884932688583e-08
            ]
        },
        {
            "name" : "lift.l",
            "rotation" : [
                -4.903079116047593e-07,
                -1.4100587364396233e-09,
                -0.7071068286895752,
                0.7071068286895752
            ],
            "translation" : [
                0.06399999558925629,
                -0.07999998331069946,
                -6.991926682076155e-08
            ]
        },
        {
            "name" : "lift.r",
            "rotation" : [
                0.5000003576278687,
                -0.5000000596046448,
                0.49999964237213135,
                0.5
            ],
            "scale" : [
                1,
                0.9999998807907104,
                1.000000238418579
            ],
            "translation" : [
                -0.06399999558925629,
                -0.07999998331069946,
                1.858066234206035e-08
            ]
        },
        {
            "children" : [
                2,
                3,
                11,
                19,
                20,
                21
            ],
            "name" : "body",
            "rotation" : [
                1,
                9.857215819411222e-14,
                -6.715443419125222e-07,
                1.5099580252808664e-07
            ],
            "translation" : [
                6.418305760458841e-15,
                -3.832942694920887e-35,
                9.814726809054264e-09
            ]
        },
        {
            "children" : [
                0,
                1,
                22
            ],
            "name" : "root",
            "rotation" : [
                0.7071068286895752,
                -2.304046233803092e-07,
                -2.3040465180201863e-07,
                0.7071067094802856
            ],
            "translation" : [
                6.773782036196744e-21,
                9.814726809054264e-09,
                0.6000000834465027
            ]
        },
        {
            "mesh" : 0,
            "name" : "Cylinder.003",
            "skin" : 0
        },
        {
            "children" : [
                24,
                23
            ],
            "name" : "Armature"
        }
    ],
    "meshes" : [
        {
            "name" : "Cylinder.001",
            "primitives" : [
                {
                    "attributes" : {
                        "POSITION" : 0,
                        "NORMAL" : 1,
                        "TEXCOORD_0" : 2,
                        "JOINTS_0" : 3,
                        "WEIGHTS_0" : 4
                    },
                    "indices" : 5
                }
            ]
        }
    ],
    "skins" : [
        {
            "inverseBindMatrices" : 6,
            "joints" : [
                23,
                0,
                1,
                22,
                2,
                3,
                11,
                10,
                5,
                4,
                7,
                6,
                9,
                8,
                19,
                18,
                13,
                12,
                15,
                14,
                17,
                16,
                20,
                21
            ],
            "name" : "Armature"
        }
    ],
    "accessors" : [
        {
            "bufferView" : 0,
            "componentType" : 5126,
            "count" : 4158,
            "max" : [
                0.18471793830394745,
                0.2839542627334595,
                0.7230069637298584
            ],
            "min" : [
                -0.18471793830394745,
                -0.14000001549720764,
                0.23517054319381714
            ],
            "type" : "VEC3"
        },
        {
            "bufferView" : 1,
            "componentType" : 5126,
            "count" : 4158,
            "type" : "VEC3"
        },
        {
            "bufferView" : 2,
            "componentType" : 5126,
            "count" : 4158,
            "type" : "VEC2"
        },
        {
            "bufferView" : 3,
            "componentType" : 5121,
            "count" : 4158,
            "type" : "VEC4"
        },
        {
            "bufferView" : 4,
            "componentType" : 5126,
            "count" : 4158,
            "type" : "VEC4"
        },
        {
            "bufferView" : 5,
            "componentType" : 5123,
            "count" : 12768,
            "type" : "SCALAR"
        },
        {
            "bufferView" : 6,
            "componentType" : 5126,
            "count" : 24,
            "type" : "MAT4"
        }
    ],
    "bufferViews" : [
        {
            "buffer" : 0,
            "byteLength" : 49896,
            "byteOffset" : 0
        },
        {
            "buffer" : 0,
            "byteLength" : 49896,
            "byteOffset" : 49896
        },
        {
            "buffer" : 0,
            "byteLength" : 33264,
            "byteOffset" : 99792
        },
        {
            "buffer" : 0,
            "byteLength" : 16632,
            "byteOffset" : 133056
        },
        {
            "buffer" : 0,
            "byteLength" : 66528,
            "byteOffset" : 149688
        },
        {
            "buffer" : 0,
            "byteLength" : 25536,
            "byteOffset" : 216216
        },
        {
            "buffer" : 0,
            "byteLength" : 1536,
            "byteOffset" : 241752
        }
    ],
    "buffers" : [
        {
            "byteLength" : 243288,
            "uri" : "data:application/octet-stream;base64,"
        }
    ]
}
