# Blender v3.0.1 OBJ File: 'cave.blend'
# www.blender.org
o Cylinder
v 0.000000 1.007847 0.000000
v -0.000000 0.585653 0.930002
v 0.385686 0.931129 0.000000
v 0.224120 0.541073 0.930002
v 0.712655 0.712655 0.000000
v 0.414120 0.414120 0.930002
v 0.931129 0.385686 0.000000
v 0.541073 0.224120 0.930002
v 1.007847 -0.000000 0.000000
v 0.585653 0.000000 0.930002
v 0.931129 -0.385686 0.000000
v 0.532902 -0.231225 0.907707
v 0.712655 -0.712655 0.000000
v 0.369505 -0.425713 0.778810
v 0.385686 -0.931129 0.000000
v 0.163015 -0.464093 0.843731
v -0.000000 -1.007847 0.000000
v 0.000000 -0.484472 0.856429
v -0.385686 -0.931129 0.000000
v -0.162861 -0.464001 0.843998
v -0.712655 -0.712655 0.000000
v -0.368198 -0.424957 0.781007
v -0.931129 -0.385686 0.000000
v -0.532748 -0.231134 0.907974
v -1.007847 0.000000 0.000000
v -0.585653 -0.000000 0.930002
v -0.931129 0.385686 0.000000
v -0.541073 0.224120 0.930002
v -0.712655 0.712655 0.000000
v -0.414120 0.414120 0.930002
v -0.385686 0.931129 0.000000
v -0.224120 0.541073 0.930002
v 0.000000 0.877284 0.405532
v -0.000000 0.767294 0.716731
v 0.293631 0.708887 0.716731
v 0.335722 0.810505 0.405532
v 0.542558 0.542558 0.716731
v 0.620334 0.620334 0.405532
v 0.708887 0.293631 0.716731
v 0.810505 0.335722 0.405532
v 0.767294 0.000000 0.716731
v 0.877284 -0.000000 0.405532
v 0.703210 -0.287670 0.704239
v 0.810697 -0.325617 0.401884
v 0.529218 -0.462317 0.599001
v 0.635857 -0.519517 0.357728
v 0.000012 0.222498 0.465055
v -0.000006 -0.398018 0.016911
v 0.123885 0.215383 0.449405
v 0.234273 -0.369946 0.021292
v 0.299665 0.153131 0.404220
v 0.404556 -0.377095 0.054624
v -0.525850 -0.460384 0.604624
v -0.635080 -0.519065 0.359043
v -0.702483 -0.287238 0.705497
v -0.810697 -0.325617 0.401884
v -0.767294 -0.000000 0.716731
v -0.877284 -0.000000 0.405532
v -0.708887 0.293631 0.716731
v -0.810505 0.335722 0.405532
v -0.542558 0.542558 0.716731
v -0.620334 0.620334 0.405532
v -0.293631 0.708887 0.716731
v -0.335722 0.810505 0.405532
v -0.000000 0.392041 1.033635
v 0.150028 0.362199 1.033635
v 0.277215 0.277215 1.033635
v 0.362199 0.150028 1.033635
v 0.392042 -0.000000 1.033635
v 0.367442 -0.155911 1.027695
v 0.284985 -0.311636 0.980162
v 0.154860 -0.391275 0.989871
v 0.000000 -0.420755 0.990468
v -0.154860 -0.391275 0.989871
v -0.284779 -0.311514 0.980518
v -0.367442 -0.155911 1.027695
v -0.392041 -0.000000 1.033635
v -0.362199 0.150028 1.033635
v -0.277215 0.277215 1.033635
v -0.150028 0.362199 1.033635
v 0.444084 -0.636920 0.161780
v 0.330543 -0.268659 0.550810
v 0.269759 -0.713394 0.127579
v 0.118311 -0.238809 0.674721
v -0.000001 -0.750359 0.124164
v -0.000001 -0.242031 0.693307
v -0.269756 -0.713391 0.127587
v -0.118175 -0.238756 0.674875
v -0.444011 -0.636886 0.161878
v -0.329395 -0.268191 0.552170
v 0.448118 -0.302688 0.419962
v 0.501459 -0.402152 0.269861
v 0.178097 -0.082967 1.080217
v 0.190020 -0.007398 1.083096
v 0.175556 0.065320 1.083096
v 0.134365 0.126967 1.083096
v 0.072718 0.168158 1.083096
v 0.000000 0.182622 1.083096
v -0.445665 -0.301627 0.423050
v -0.500895 -0.401940 0.270477
v -0.234281 -0.369943 0.021300
v -0.123629 0.215484 0.449698
v -0.404475 -0.377053 0.054744
v -0.298601 0.153538 0.405404
v 0.363146 0.154706 0.257660
v 0.399996 0.018126 0.130204
v 0.143584 0.293080 0.203092
v 0.178371 0.154668 0.062489
v 0.000032 0.309564 0.187270
v -0.000001 0.169000 0.044899
v -0.143205 0.293223 0.203509
v -0.178250 0.154718 0.062636
v -0.361734 0.155248 0.259235
v -0.399419 0.018344 0.130840
v 0.138130 -0.158446 1.057178
v 0.075060 -0.197047 1.061884
v 0.000000 -0.211335 1.062173
v -0.075060 -0.197047 1.061884
v -0.138031 -0.158387 1.057351
v -0.178097 -0.082967 1.080217
v -0.190020 -0.007398 1.083096
v -0.175556 0.065320 1.083096
v -0.134365 0.126967 1.083096
v -0.072718 0.168158 1.083096
v 0.000006 -0.012468 1.103215
vt 0.203125 0.406250
vt 0.203125 0.484375
vt 0.156250 0.437500
vt 0.234375 0.437500
vt 0.250000 0.515625
vt 0.312500 0.468750
vt 0.296875 0.515625
vt 0.359375 0.515625
vt 0.390625 0.468750
vt 0.406250 0.515625
vt 0.453125 0.453125
vt 0.453125 0.500000
vt 0.437500 0.265625
vt 0.406250 0.203125
vt 0.453125 0.218750
vt 0.390625 0.250000
vt 0.359375 0.187500
vt 0.343750 0.234375
vt 0.296875 0.187500
vt 0.312500 0.234375
vt 0.250000 0.203125
vt 0.281250 0.421875
vt 0.312500 0.437500
vt 0.265625 0.250000
vt 0.203125 0.234375
vt 0.234375 0.281250
vt 0.156250 0.281250
vt 0.156250 0.171875
vt 0.031250 0.140625
vt 0.109375 0.093750
vt 0.093750 0.218750
vt 0.218750 0.140625
vt 0.203125 0.062500
vt 0.296875 0.125000
vt 0.281250 0.046875
vt 0.375000 0.046875
vt 0.359375 0.125000
vt 0.421875 0.140625
vt 0.453125 0.062500
vt 0.484375 0.156250
vt 0.531250 0.093750
vt 0.453125 0.656250
vt 0.484375 0.562500
vt 0.531250 0.625000
vt 0.421875 0.578125
vt 0.375000 0.671875
vt 0.359375 0.578125
vt 0.296875 0.578125
vt 0.281250 0.671875
vt 0.234375 0.562500
vt 0.203125 0.656250
vt 0.171875 0.531250
vt 0.125000 0.609375
vt 0.046875 0.562500
vt 0.109375 0.500000
vt 0.421875 0.359375
vt 0.375000 0.375000
vt 0.375000 0.359375
vt 0.453125 0.390625
vt 0.453125 0.359375
vt 0.265625 0.406250
vt 0.312500 0.281250
vt 0.406250 0.421875
vt 0.406250 0.296875
vt 0.375000 0.281250
vt 0.250000 0.343750
vt 0.203125 0.312500
vt 0.343750 0.437500
vt 0.343750 0.468750
vt 0.453125 0.312500
vt 0.421875 0.328125
vt 0.281250 0.296875
vt 0.265625 0.468750
vt 0.421875 0.390625
vt 0.343750 0.281250
vt 0.375000 0.437500
vt 0.265625 0.312500
vt 0.296875 0.359375
vt 0.296875 0.343750
vt 0.328125 0.359375
vt 0.296875 0.375000
vt 0.375000 0.343750
vt 0.312500 0.390625
vt 0.375000 0.328125
vt 0.328125 0.390625
vt 0.359375 0.328125
vt 0.343750 0.390625
vt 0.343750 0.312500
vt 0.359375 0.390625
vt 0.328125 0.312500
vt 0.375000 0.390625
vt 0.312500 0.328125
vt 0.250000 0.375000
vt 0.859375 0.390625
vt 0.906250 0.296875
vt 0.984375 0.359375
vt 0.781250 0.031250
vt 0.843750 0.078125
vt 0.796875 0.093750
vt 0.656250 0.312500
vt 0.687500 0.218750
vt 0.718750 0.265625
vt 0.921875 0.046875
vt 0.859375 0.093750
vt 0.890625 0.031250
vt 0.687500 0.125000
vt 0.593750 0.218750
vt 0.750000 0.390625
vt 0.843750 0.328125
vt 0.968750 0.234375
vt 0.921875 0.171875
vt 0.984375 0.156250
vt 0.765625 0.125000
vt 0.734375 0.156250
vt 0.906250 0.140625
vt 0.953125 0.093750
vt 0.734375 0.062500
vt 0.843750 0.015625
vt 0.921875 0.218750
vt 0.875000 0.093750
vt 0.781250 0.312500
vt 0.875000 0.234375
vt 0.812500 0.156250
vt 0.765625 0.203125
vt 0.781250 0.218750
vt 0.843750 0.156250
vt 0.859375 0.187500
vt 0.859375 0.171875
vt 0.796875 0.250000
vt 0.843750 0.234375
vt 0.796875 0.171875
vt 0.859375 0.171875
vt 0.812500 0.156250
vt 0.828125 0.156250
vt 0.609375 0.453125
vt 0.656250 0.484375
vt 0.593750 0.484375
vt 0.656250 0.437500
vt 0.671875 0.484375
vt 0.703125 0.437500
vt 0.703125 0.484375
vt 0.750000 0.453125
vt 0.750000 0.500000
vt 0.718750 0.625000
vt 0.750000 0.546875
vt 0.750000 0.625000
vt 0.703125 0.531250
vt 0.656250 0.640625
vt 0.671875 0.515625
vt 0.640625 0.515625
vt 0.609375 0.625000
vt 0.593750 0.531250
vt 0.578125 0.625000
vt 0.843750 0.156250
vt 0.671875 0.437500
vn 0.0000 0.6412 0.7674
vn 0.3337 0.8056 0.4896
vn 0.0000 0.8719 0.4896
vn 0.2454 0.5924 0.7674
vn 0.6165 0.6165 0.4896
vn 0.5924 0.2454 0.7674
vn 0.8056 0.3337 0.4896
vn 0.8690 -0.0234 0.4942
vn 0.5452 -0.4518 0.7062
vn 0.7143 -0.4949 0.4947
vn 0.0671 -0.9931 0.0962
vn -0.0494 -0.9902 0.1308
vn -0.0706 -0.9928 0.0967
vn -0.7138 -0.4957 0.4947
vn 0.0490 -0.9901 0.1313
vn -0.5451 -0.4513 0.7065
vn -0.8691 -0.0236 0.4940
vn -0.6452 -0.0369 0.7631
vn -0.8056 0.3337 0.4896
vn -0.5924 0.2454 0.7674
vn -0.6165 0.6165 0.4896
vn 0.2606 0.2609 0.9295
vn 0.3416 0.1419 0.9291
vn -0.4534 0.4534 0.7674
vn -0.3337 0.8056 0.4896
vn -0.2454 0.5924 0.7674
vn -0.3626 0.8755 0.3193
vn 0.0000 0.9519 0.3064
vn -0.3643 0.8794 0.3064
vn 0.0000 0.9476 0.3193
vn -0.6701 0.6701 0.3193
vn -0.6731 0.6731 0.3064
vn -0.8755 0.3626 0.3193
vn -0.8794 0.3643 0.3064
vn -0.9513 -0.0017 0.3083
vn -0.9465 -0.0072 0.3225
vn -0.8178 -0.4591 0.3468
vn -0.8488 -0.3906 0.3562
vn -0.0988 -0.8515 0.5149
vn -0.4670 -0.6459 0.6039
vn 0.8490 -0.3905 0.3559
vn 0.1001 -0.8509 0.5156
vn 0.4669 -0.6460 0.6038
vn 0.8186 -0.4584 0.3461
vn 0.9513 -0.0017 0.3083
vn 0.9466 -0.0071 0.3224
vn 0.8755 0.3626 0.3193
vn 0.8794 0.3643 0.3064
vn 0.6701 0.6701 0.3193
vn 0.6731 0.6731 0.3064
vn 0.3626 0.8755 0.3193
vn 0.3643 0.8794 0.3064
vn 0.0000 -0.6846 0.7289
vn 0.1273 -0.2402 0.9623
vn 0.0000 -0.2705 0.9627
vn 0.1568 -0.9724 -0.1725
vn -0.0004 -0.9746 -0.2238
vn 0.1407 0.3401 0.9298
vn -0.3416 0.1419 0.9291
vn 0.3239 -0.5491 0.7704
vn -0.3234 -0.5485 0.7710
vn -0.3274 -0.2608 0.9081
vn 0.0000 0.3678 0.9299
vn 0.3695 -0.0091 0.9292
vn 0.6452 -0.0370 0.7631
vn -0.1591 -0.9718 -0.1737
vn -0.2752 -0.6265 0.7292
vn -0.2606 0.2609 0.9295
vn 0.4534 0.4534 0.7674
vn 0.2754 -0.6261 0.7294
vn -0.3695 -0.0091 0.9292
vn 0.3272 -0.2614 0.9080
vn -0.1407 0.3401 0.9298
vn 0.0000 0.1744 0.9846
vn -0.0671 0.1614 0.9846
vn 0.0001 -0.0586 0.9983
vn 0.0671 0.1614 0.9846
vn -0.1265 -0.2406 0.9623
vn 0.1247 0.1242 0.9844
vn -0.1396 -0.2707 0.9525
vn 0.1645 0.0676 0.9840
vn -0.1269 -0.1959 0.9724
vn 0.1795 -0.0154 0.9836
vn -0.1795 -0.0154 0.9836
vn 0.1265 -0.1966 0.9723
vn -0.1645 0.0676 0.9840
vn 0.1401 -0.2711 0.9523
vn -0.1247 0.1242 0.9844
vn -0.1614 -0.4871 0.8582
vn 0.2353 -0.3507 0.9065
vn -0.2489 -0.5498 -0.7974
vn -0.5999 -0.5495 -0.5815
vn 0.1614 -0.4870 0.8583
vn -0.2344 -0.3495 0.9071
vn -0.0390 -0.1288 0.9909
vn -0.0006 -0.5258 -0.8506
vn 0.0000 -0.4512 0.8924
vn 0.0393 -0.1290 0.9908
vn 0.8284 -0.4898 -0.2717
vn -0.8300 -0.4884 -0.2691
vn -0.8893 -0.3004 0.3447
vn 0.5977 -0.5514 -0.5819
vn 0.8905 -0.3021 0.3402
vn 0.2467 -0.5505 -0.7976
vn 0.0000 -0.1084 0.9941
vn 0.5833 0.0257 0.8118
vn -0.6085 -0.5820 -0.5394
vn -0.5820 0.0266 0.8127
vn -0.1243 0.0706 0.9897
vn -0.0009 -0.7506 -0.6607
vn 0.7891 -0.3150 0.5274
vn 0.7876 -0.6156 0.0264
vn 0.0000 0.1242 0.9922
vn 0.1249 0.0702 0.9897
vn -0.7873 -0.3136 0.5309
vn 0.6078 -0.5821 -0.5401
vn -0.7876 -0.6155 0.0291
vn -0.2513 -0.7377 -0.6266
vn -0.3125 -0.9297 0.1945
vn 0.0001 -0.9664 0.2571
vn 0.2493 -0.7381 -0.6269
vn 0.3128 -0.9298 0.1939
vn 0.3118 -0.4508 0.8364
vn 0.0005 -0.4212 0.9069
vn -0.3100 -0.4502 0.8374
s 1
f 2/1/1 35/2/2 34/3/3
f 4/4/4 37/5/5 35/2/2
f 37/5/5 8/6/6 39/7/7
f 8/6/6 41/8/8 39/7/7
f 41/8/8 12/9/9 43/10/10
f 43/10/10 14/11/11 45/12/12
f 22/13/13 55/14/14 53/15/15
f 24/16/16 57/17/17 55/14/14
f 26/18/18 59/19/19 57/17/17
f 28/20/20 61/21/21 59/19/19
f 8/6/6 67/22/22 68/23/23
f 30/24/24 63/25/25 61/21/21
f 32/26/26 34/27/3 63/25/25
f 64/28/27 1/29/28 31/30/29
f 64/28/27 34/27/3 33/31/30
f 62/32/31 31/30/29 29/33/32
f 61/21/21 64/28/27 62/32/31
f 60/34/33 29/33/32 27/35/34
f 60/34/33 61/21/21 62/32/31
f 25/36/35 60/34/33 27/35/34
f 58/37/36 59/19/19 60/34/33
f 56/38/37 25/36/35 23/39/38
f 55/14/14 58/37/36 56/38/37
f 54/40/39 23/39/38 21/41/40
f 53/15/15 56/38/37 54/40/39
f 11/42/41 46/43/42 13/44/43
f 44/45/44 45/12/12 46/43/42
f 9/46/45 44/45/44 11/42/41
f 42/47/46 43/10/10 44/45/44
f 40/48/47 9/46/45 7/49/48
f 40/48/47 41/8/8 42/47/46
f 38/50/49 7/49/48 5/51/50
f 38/50/49 39/7/7 40/48/47
f 36/52/51 5/51/50 3/53/52
f 35/2/2 38/50/49 36/52/51
f 1/54/28 36/52/51 3/53/52
f 33/55/30 35/2/2 36/52/51
f 73/56/53 116/57/54 117/58/55
f 16/59/56 73/56/53 18/60/57
f 2/1/1 66/61/58 4/4/4
f 26/18/18 78/62/59 28/20/20
f 12/9/9 71/63/60 14/11/11
f 24/16/16 75/64/61 76/65/62
f 32/26/26 65/66/63 2/67/1
f 8/6/6 69/68/64 10/69/65
f 20/70/66 73/56/53 74/71/67
f 28/20/20 79/72/68 30/24/24
f 4/4/4 67/22/22 6/73/69
f 16/59/56 71/63/60 72/74/70
f 26/18/18 76/65/62 77/75/71
f 10/69/65 70/76/72 12/9/9
f 20/70/66 75/64/61 22/13/13
f 30/24/24 80/77/73 32/26/26
f 98/78/74 124/79/75 125/80/76
f 66/61/58 98/78/74 97/81/77
f 80/77/73 98/78/74 65/66/63
f 73/56/53 118/82/78 74/71/67
f 67/22/22 97/81/77 96/83/79
f 74/71/67 119/84/80 75/64/61
f 68/23/23 96/83/79 95/85/81
f 76/65/62 119/84/80 120/86/82
f 69/68/64 95/85/81 94/87/83
f 77/75/71 120/86/82 121/88/84
f 69/68/64 93/89/85 70/76/72
f 77/75/71 122/90/86 78/62/59
f 70/76/72 115/91/87 71/63/60
f 78/62/59 123/92/88 79/72/68
f 72/74/70 115/91/87 116/57/54
f 79/72/68 124/79/75 80/77/73
f 118/82/78 117/58/55 125/80/76
f 119/84/80 118/82/78 125/80/76
f 96/83/79 97/81/77 125/80/76
f 120/86/82 119/84/80 125/80/76
f 94/87/83 95/85/81 125/80/76
f 121/88/84 120/86/82 125/80/76
f 93/89/85 94/87/83 125/80/76
f 122/90/86 121/88/84 125/80/76
f 97/81/77 98/78/74 125/80/76
f 115/91/87 93/89/85 125/80/76
f 123/92/88 122/90/86 125/80/76
f 116/57/54 115/91/87 125/80/76
f 95/85/81 96/83/79 125/80/76
f 124/79/75 123/92/88 125/80/76
f 117/58/55 116/57/54 125/80/76
f 2/1/1 4/4/4 35/2/2
f 4/4/4 6/73/69 37/5/5
f 37/5/5 6/73/69 8/6/6
f 8/6/6 10/69/65 41/8/8
f 41/8/8 10/69/65 12/9/9
f 43/10/10 12/9/9 14/11/11
f 22/13/13 24/16/16 55/14/14
f 24/16/16 26/18/18 57/17/17
f 26/18/18 28/20/20 59/19/19
f 28/20/20 30/24/24 61/21/21
f 8/6/6 6/73/69 67/22/22
f 30/24/24 32/26/26 63/25/25
f 32/26/26 2/67/1 34/27/3
f 64/28/27 33/31/30 1/29/28
f 64/28/27 63/25/25 34/27/3
f 62/32/31 64/28/27 31/30/29
f 61/21/21 63/25/25 64/28/27
f 60/34/33 62/32/31 29/33/32
f 60/34/33 59/19/19 61/21/21
f 25/36/35 58/37/36 60/34/33
f 58/37/36 57/17/17 59/19/19
f 56/38/37 58/37/36 25/36/35
f 55/14/14 57/17/17 58/37/36
f 54/40/39 56/38/37 23/39/38
f 53/15/15 55/14/14 56/38/37
f 11/42/41 44/45/44 46/43/42
f 44/45/44 43/10/10 45/12/12
f 9/46/45 42/47/46 44/45/44
f 42/47/46 41/8/8 43/10/10
f 40/48/47 42/47/46 9/46/45
f 40/48/47 39/7/7 41/8/8
f 38/50/49 40/48/47 7/49/48
f 38/50/49 37/5/5 39/7/7
f 36/52/51 38/50/49 5/51/50
f 35/2/2 37/5/5 38/50/49
f 1/54/28 33/55/30 36/52/51
f 33/55/30 34/3/3 35/2/2
f 73/56/53 72/74/70 116/57/54
f 16/59/56 72/74/70 73/56/53
f 2/1/1 65/93/63 66/61/58
f 26/18/18 77/75/71 78/62/59
f 12/9/9 70/76/72 71/63/60
f 24/16/16 22/13/13 75/64/61
f 32/26/26 80/77/73 65/66/63
f 8/6/6 68/23/23 69/68/64
f 20/70/66 18/60/57 73/56/53
f 28/20/20 78/62/59 79/72/68
f 4/4/4 66/61/58 67/22/22
f 16/59/56 14/11/11 71/63/60
f 26/18/18 24/16/16 76/65/62
f 10/69/65 69/68/64 70/76/72
f 20/70/66 74/71/67 75/64/61
f 30/24/24 79/72/68 80/77/73
f 66/61/58 65/93/63 98/78/74
f 80/77/73 124/79/75 98/78/74
f 73/56/53 117/58/55 118/82/78
f 67/22/22 66/61/58 97/81/77
f 74/71/67 118/82/78 119/84/80
f 68/23/23 67/22/22 96/83/79
f 76/65/62 75/64/61 119/84/80
f 69/68/64 68/23/23 95/85/81
f 77/75/71 76/65/62 120/86/82
f 69/68/64 94/87/83 93/89/85
f 77/75/71 121/88/84 122/90/86
f 70/76/72 93/89/85 115/91/87
f 78/62/59 122/90/86 123/92/88
f 72/74/70 71/63/60 115/91/87
f 79/72/68 123/92/88 124/79/75
f 19/94/89 89/95/90 21/96/40
f 14/97/11 84/98/91 82/99/92
f 15/100/93 81/101/94 83/102/95
f 20/103/66 86/104/96 18/105/57
f 46/106/42 81/101/94 13/107/43
f 17/108/97 87/109/98 19/94/89
f 54/110/39 99/111/99 53/112/15
f 46/106/42 91/113/100 92/114/101
f 53/112/15 90/115/102 22/116/13
f 45/117/12 82/99/92 91/113/100
f 16/118/56 86/104/96 84/98/91
f 54/110/39 89/95/90 100/119/103
f 22/116/13 88/120/104 20/103/66
f 17/108/97 83/102/95 85/121/105
f 19/94/89 87/109/98 89/95/90
f 14/97/11 16/118/56 84/98/91
f 15/100/93 13/107/43 81/101/94
f 20/103/66 88/120/104 86/104/96
f 46/106/42 92/114/101 81/101/94
f 17/108/97 85/121/105 87/109/98
f 54/110/39 100/119/103 99/111/99
f 46/106/42 45/117/12 91/113/100
f 53/112/15 99/111/99 90/115/102
f 45/117/12 14/97/11 82/99/92
f 16/118/56 18/105/57 86/104/96
f 54/110/39 21/96/40 89/95/90
f 22/116/13 90/115/102 88/120/104
f 17/108/97 15/100/93 83/102/95
f 87/109/98 103/122/106 89/95/90
f 84/98/91 51/123/107 82/99/92
f 83/102/95 52/124/108 50/125/109
f 88/120/104 47/126/110 86/104/96
f 92/114/101 52/124/108 81/101/94
f 99/111/99 114/127/111 113/128/112
f 87/109/98 48/129/113 101/130/114
f 91/113/100 106/131/115 92/114/101
f 99/111/99 104/132/116 90/115/102
f 91/113/100 51/123/107 105/133/117
f 84/98/91 47/126/110 49/134/118
f 100/119/103 103/122/106 114/127/111
f 51/135/107 107/136/119 105/137/117
f 49/138/118 109/139/120 107/136/119
f 109/139/120 102/140/121 111/141/122
f 111/141/122 104/142/116 113/143/112
f 101/144/114 114/145/111 103/146/106
f 112/147/123 113/143/112 114/145/111
f 48/148/113 112/147/123 101/144/114
f 110/149/124 111/141/122 112/147/123
f 108/150/125 48/148/113 50/151/109
f 107/136/119 110/149/124 108/150/125
f 106/152/115 50/151/109 52/153/108
f 105/137/117 108/150/125 106/152/115
f 88/120/104 104/132/116 102/154/121
f 83/102/95 48/129/113 85/121/105
f 87/109/98 101/130/114 103/122/106
f 84/98/91 49/134/118 51/123/107
f 83/102/95 81/101/94 52/124/108
f 88/120/104 102/154/121 47/126/110
f 92/114/101 106/131/115 52/124/108
f 99/111/99 100/119/103 114/127/111
f 87/109/98 85/121/105 48/129/113
f 91/113/100 105/133/117 106/131/115
f 99/111/99 113/128/112 104/132/116
f 91/113/100 82/99/92 51/123/107
f 84/98/91 86/104/96 47/126/110
f 100/119/103 89/95/90 103/122/106
f 51/135/107 49/138/118 107/136/119
f 49/138/118 47/155/110 109/139/120
f 109/139/120 47/155/110 102/140/121
f 111/141/122 102/140/121 104/142/116
f 101/144/114 112/147/123 114/145/111
f 112/147/123 111/141/122 113/143/112
f 48/148/113 110/149/124 112/147/123
f 110/149/124 109/139/120 111/141/122
f 108/150/125 110/149/124 48/148/113
f 107/136/119 109/139/120 110/149/124
f 106/152/115 108/150/125 50/151/109
f 105/137/117 107/136/119 108/150/125
f 88/120/104 90/115/102 104/132/116
f 83/102/95 50/125/109 48/129/113
