# Blender v3.0.1 OBJ File: 'forest.blend'
# www.blender.org
o Cylinder.013
v -0.000000 0.153513 0.000000
v -0.000000 0.141025 0.840836
v 0.108550 0.108550 0.000000
v 0.099720 0.099720 0.840836
v 0.153513 -0.000000 0.000000
v 0.141025 -0.000000 0.840836
v 0.108550 -0.108550 0.000000
v 0.099720 -0.099720 0.840836
v -0.000000 -0.153513 0.000000
v -0.000000 -0.141025 0.840836
v -0.108550 -0.108550 0.000000
v -0.099719 -0.099720 0.840836
v -0.153513 -0.000000 0.000000
v -0.141025 -0.000000 0.840836
v -0.108550 0.108550 0.000000
v -0.099720 0.099719 0.840836
v 0.000000 0.452644 0.550322
v 0.392001 0.226322 0.550322
v 0.392001 -0.226322 0.550322
v -0.000000 -0.452644 0.550322
v -0.392001 -0.226322 0.550322
v -0.392001 0.226322 0.550322
v 0.000000 -0.000000 1.189621
v 0.000000 0.362741 0.890064
v 0.314143 0.181370 0.890064
v 0.314143 -0.181370 0.890064
v -0.000000 -0.362741 0.890064
v -0.314143 -0.181370 0.890064
v -0.314143 0.181370 0.890064
v 0.000000 0.000000 1.538416
v 0.000000 0.271723 1.237451
v 0.235319 0.135862 1.237451
v 0.235319 -0.135862 1.237451
v -0.000000 -0.271723 1.237451
v -0.235319 -0.135862 1.237451
v -0.235319 0.135862 1.237451
v 0.000000 0.000000 1.900455
vt 0.750000 0.490000
vt 0.750000 0.250000
vt 0.957846 0.370000
vt 0.750000 0.490000
vt 0.750000 0.250000
vt 0.957846 0.370000
vt 0.957846 0.130000
vt 0.750000 0.010000
vt 0.542154 0.130000
vt 0.542154 0.370000
vt 0.957846 0.130000
vt 0.750000 0.010000
vt 0.542154 0.130000
vt 0.542154 0.370000
vt 0.750000 0.490000
vt 0.750000 0.250000
vt 0.957846 0.370000
vt 0.957846 0.130000
vt 0.750000 0.010000
vt 0.542154 0.130000
vt 0.542154 0.370000
vt 1.000000 1.000000
vt 0.875000 0.500000
vt 1.000000 0.500000
vt 0.875000 1.000000
vt 0.750000 0.500000
vt 0.750000 1.000000
vt 0.625000 0.500000
vt 0.625000 1.000000
vt 0.500000 0.500000
vt 0.375000 1.000000
vt 0.375000 0.500000
vt 0.250000 1.000000
vt 0.250000 0.500000
vt 0.010000 0.250000
vt 0.250000 0.010000
vt 0.490000 0.250000
vt 0.125000 0.500000
vt 0.125000 1.000000
vt 0.000000 0.500000
vt 0.500000 1.000000
vt 0.419706 0.419706
vt 0.250000 0.490000
vt 0.080294 0.419706
vt 0.080294 0.080294
vt 0.419706 0.080294
vt 0.000000 1.000000
vn 0.0000 0.8727 0.4882
vn 0.0000 0.0000 1.0000
vn 0.7558 0.4363 0.4882
vn 0.0000 0.8161 0.5778
vn 0.7068 0.4081 0.5778
vn 0.7068 -0.4081 0.5778
vn 0.0000 -0.8161 0.5778
vn -0.7068 -0.4081 0.5778
vn -0.7068 0.4081 0.5778
vn 0.7558 -0.4363 0.4882
vn 0.0000 -0.8727 0.4882
vn -0.7558 -0.4363 0.4882
vn -0.7558 0.4363 0.4882
vn 0.0000 0.9253 0.3792
vn 0.8013 0.4626 0.3792
vn 0.8013 -0.4626 0.3792
vn 0.0000 -0.9253 0.3792
vn -0.8013 -0.4626 0.3792
vn -0.8013 0.4626 0.3792
vn 0.0000 0.7718 0.6358
vn 0.7070 0.7070 0.0148
vn 0.0000 0.9999 0.0148
vn 0.5458 0.5458 0.6358
vn 0.9999 0.0000 0.0148
vn 0.7718 0.0000 0.6358
vn 0.7070 -0.7070 0.0148
vn 0.5458 -0.5458 0.6358
vn 0.0000 -0.9999 0.0148
vn -0.5458 -0.5458 0.6358
vn -0.7070 -0.7070 0.0148
vn -0.7718 0.0000 0.6358
vn -0.9999 0.0000 0.0148
vn 0.0000 -0.7718 0.6358
vn -0.7070 0.7070 0.0148
vn -0.5458 0.5458 0.6358
s 1
f 24/1/1 30/2/2 25/3/3
f 17/4/4 23/5/2 18/6/5
f 18/6/5 23/5/2 19/7/6
f 19/7/6 23/5/2 20/8/7
f 20/8/7 23/5/2 21/9/8
f 21/9/8 23/5/2 22/10/9
f 22/10/9 23/5/2 17/4/4
f 25/3/3 30/2/2 26/11/10
f 26/11/10 30/2/2 27/12/11
f 27/12/11 30/2/2 28/13/12
f 28/13/12 30/2/2 29/14/13
f 29/14/13 30/2/2 24/1/1
f 31/15/14 37/16/2 32/17/15
f 32/17/15 37/16/2 33/18/16
f 33/18/16 37/16/2 34/19/17
f 34/19/17 37/16/2 35/20/18
f 35/20/18 37/16/2 36/21/19
f 36/21/19 37/16/2 31/15/14
f 2/22/20 3/23/21 1/24/22
f 4/25/23 5/26/24 3/23/21
f 6/27/25 7/28/26 5/26/24
f 8/29/27 9/30/28 7/28/26
f 9/30/28 12/31/29 11/32/30
f 11/32/30 14/33/31 13/34/32
f 14/35/31 10/36/33 6/37/25
f 14/33/31 15/38/34 13/34/32
f 16/39/35 1/40/22 15/38/34
f 2/22/20 4/25/23 3/23/21
f 4/25/23 6/27/25 5/26/24
f 6/27/25 8/29/27 7/28/26
f 8/29/27 10/41/33 9/30/28
f 9/30/28 10/41/33 12/31/29
f 11/32/30 12/31/29 14/33/31
f 6/37/25 4/42/23 2/43/20
f 2/43/20 16/44/35 14/35/31
f 14/35/31 12/45/29 10/36/33
f 10/36/33 8/46/27 6/37/25
f 6/37/25 2/43/20 14/35/31
f 14/33/31 16/39/35 15/38/34
f 16/39/35 2/47/20 1/40/22
