# Blender v3.0.1 OBJ File: 'hut.blend'
# www.blender.org
o Plane.002
v -0.598903 0.198982 0.000000
v -0.093020 0.198982 0.000000
v -0.598903 0.704864 0.000000
v -0.093020 0.704864 0.000000
v -0.645962 0.151923 0.420000
v -0.045962 0.151923 0.420000
v -0.645962 0.751923 0.420000
v -0.045962 0.751923 0.420000
v -0.435962 0.541923 0.600000
v -0.435962 0.361923 0.600000
v -0.255962 0.361923 0.600000
v -0.255962 0.541923 0.600000
v -0.107067 0.690818 0.510000
v -0.107067 0.213028 0.510000
v -0.584856 0.213028 0.510000
v -0.584856 0.690818 0.510000
v -0.159549 0.638336 0.560174
v -0.532374 0.265510 0.560174
v -0.159549 0.265510 0.560174
v -0.532374 0.638336 0.560174
v -0.093020 0.704864 0.420000
v -0.093020 0.198982 0.420000
v -0.598903 0.198982 0.420000
v -0.598903 0.704864 0.420000
v -0.435402 0.198982 0.000000
v -0.256522 0.198982 0.000000
v -0.256522 0.198982 0.275066
v -0.435402 0.198982 0.275066
v -0.435402 0.267709 0.000000
v -0.256522 0.267709 0.000000
v -0.256522 0.267709 0.275066
v -0.435402 0.267709 0.275066
vt 0.240234 0.521484
vt 0.398438 0.507812
vt 0.386719 0.521484
vt 0.386719 0.666016
vt 0.228516 0.677734
vt 0.240234 0.666016
vt 0.228516 0.507812
vt 0.398438 0.677734
vt 0.150391 0.726562
vt 0.103516 0.804688
vt 0.103516 0.726562
vt 0.474609 0.837891
vt 0.357422 0.691406
vt 0.474609 0.691406
vt 0.345703 0.837891
vt 0.226562 0.691406
vt 0.345703 0.691406
vt 0.345703 0.994141
vt 0.226562 0.849609
vt 0.345703 0.849609
vt 0.156250 0.730469
vt 0.177734 0.808594
vt 0.156250 0.808594
vt 0.005859 0.847656
vt 0.150391 0.847656
vt 0.005859 0.726562
vt 0.052734 0.804688
vt 0.177734 0.859375
vt 0.156250 0.859375
vt 0.177734 0.937500
vt 0.156250 0.937500
vt 0.357422 0.837891
vt 0.226562 0.837891
vt 0.226562 0.994141
vt 0.177734 0.730469
vt 0.052734 0.726562
vt 0.087891 0.630859
vt 0.132812 0.589844
vt 0.130859 0.632812
vt 0.064453 0.560547
vt 0.060547 0.656250
vt 0.156250 0.660156
vt 0.160156 0.564453
vt 0.089844 0.587891
vt 0.009766 0.710938
vt 0.177734 0.679688
vt 0.210938 0.710938
vt 0.210938 0.509766
vt 0.042969 0.541016
vt 0.009766 0.509766
vt 0.179688 0.542969
vt 0.041016 0.677734
vt 0.003906 0.853516
vt 0.082031 0.904297
vt 0.003906 0.904297
vt 0.082031 0.853516
vn 0.0000 0.0000 -1.0000
vn 0.0000 -1.0000 0.0000
vn 0.0000 1.0000 0.0000
vn -1.0000 0.0000 0.0000
vn 1.0000 0.0000 0.0000
vn 0.0000 0.0000 1.0000
vn 0.3818 0.0000 0.9242
vn -0.3818 0.0000 0.9242
vn 0.0000 0.3818 0.9242
vn 0.0000 -0.3818 0.9242
vn 0.0000 -0.8273 0.5617
vn 0.0000 0.8273 0.5617
vn -0.8273 0.0000 0.5617
vn 0.8273 0.0000 0.5617
vn 0.0000 -0.6910 0.7228
vn 0.0000 0.6910 0.7228
vn -0.6910 0.0000 0.7228
vn 0.6910 0.0000 0.7228
s off
f 21/1/1 6/2/1 22/3/1
f 23/4/1 7/5/1 24/6/1
f 24/6/1 8/7/1 21/1/1
f 22/3/1 5/8/1 23/4/1
f 2/9/2 27/10/2 26/11/2
f 3/12/3 21/13/3 4/14/3
f 1/15/4 24/16/4 3/17/4
f 4/18/5 22/19/5 2/20/5
f 25/21/5 32/22/5 28/23/5
f 23/24/2 27/10/2 22/25/2
f 1/26/2 28/27/2 23/24/2
f 28/23/1 31/28/1 27/29/1
f 27/29/4 30/30/4 26/31/4
f 21/1/1 8/7/1 6/2/1
f 23/4/1 5/8/1 7/5/1
f 24/6/1 7/5/1 8/7/1
f 22/3/1 6/2/1 5/8/1
f 2/9/2 22/25/2 27/10/2
f 3/12/3 24/32/3 21/13/3
f 1/15/4 23/33/4 24/16/4
f 4/18/5 21/34/5 22/19/5
f 25/21/5 29/35/5 32/22/5
f 23/24/2 28/27/2 27/10/2
f 1/26/2 25/36/2 28/27/2
f 28/23/1 32/22/1 31/28/1
f 27/29/4 31/28/4 30/30/4
f 11/37/6 9/38/6 10/39/6
f 17/40/7 11/37/7 19/41/7
f 18/42/8 9/38/8 20/43/8
f 20/43/9 12/44/9 17/40/9
f 19/41/10 10/39/10 18/42/10
f 6/45/11 15/46/11 5/47/11
f 7/48/12 13/49/12 8/50/12
f 5/47/13 16/51/13 7/48/13
f 8/50/14 14/52/14 6/45/14
f 14/52/15 18/42/15 15/46/15
f 16/51/16 17/40/16 13/49/16
f 15/46/17 20/43/17 16/51/17
f 13/49/18 19/41/18 14/52/18
f 11/37/6 12/44/6 9/38/6
f 17/40/7 12/44/7 11/37/7
f 18/42/8 10/39/8 9/38/8
f 20/43/9 9/38/9 12/44/9
f 19/41/10 11/37/10 10/39/10
f 6/45/11 14/52/11 15/46/11
f 7/48/12 16/51/12 13/49/12
f 5/47/13 15/46/13 16/51/13
f 8/50/14 13/49/14 14/52/14
f 14/52/15 19/41/15 18/42/15
f 16/51/16 20/43/16 17/40/16
f 15/46/17 18/42/17 20/43/17
f 13/49/18 17/40/18 19/41/18
f 30/53/2 32/54/2 29/55/2
f 30/53/2 31/56/2 32/54/2
o Plane_Plane.004
v -0.887826 -0.942811 0.360000
v 1.032175 -0.942811 0.360000
v -0.887826 0.977189 0.360000
v 1.032175 0.977189 0.360000
v -0.887826 -0.942811 0.000000
v 1.032175 -0.942811 0.000000
v -0.887826 0.977189 0.000000
v 1.032175 0.977189 0.000000
v -1.003803 -1.058789 0.361492
v 1.148153 -1.058789 0.361492
v -1.003803 1.093167 0.361492
v 1.148153 1.093167 0.361492
v -1.029643 -1.084628 0.001492
v 1.173992 -1.084628 0.001492
v -1.029643 1.119006 0.001492
v 1.173992 1.119006 0.001492
vt 0.975717 0.670766
vt 0.994137 0.994137
vt 0.975717 0.975717
vt 0.584999 0.976686
vt 0.642166 0.671794
vt 0.584999 0.671794
vt 0.584999 0.671794
vt 0.642166 0.976686
vt 0.584999 0.976686
vt 0.584999 0.671794
vt 0.642166 0.976686
vt 0.584999 0.976686
vt 0.642166 0.671794
vt 0.670766 0.975717
vt 0.652345 0.652345
vt 0.670766 0.670766
vt 0.652345 0.994137
vt 0.994137 0.652345
vt 0.994137 0.650386
vt 0.500000 0.568703
vt 0.505863 0.650386
vt 0.505863 0.650386
vt 1.000000 0.568703
vt 0.994137 0.650386
vt 0.505863 0.650386
vt 1.000000 0.568703
vt 0.994137 0.650386
vt 0.500000 0.568703
vt 0.642166 0.671794
vt 0.642166 0.976686
vt 0.500000 0.568703
vt 1.000000 0.568703
vt 0.975717 0.670766
vt 0.670766 0.975717
vt 0.670766 0.670766
vt 0.975717 0.975717
vn -0.0129 0.0000 0.9999
vn -1.0000 0.0000 0.0000
vn 1.0000 0.0000 0.0000
vn 0.0000 -1.0000 0.0000
vn 0.0000 1.0000 0.0000
vn 0.0129 0.0000 0.9999
vn 0.0000 -0.0129 0.9999
vn 0.0000 0.0129 0.9999
vn 0.0000 0.9974 0.0716
vn 0.0000 -0.9974 0.0716
vn 0.9974 0.0000 0.0716
vn -0.9974 0.0000 0.0716
vn 0.0000 0.0000 1.0000
s off
f 34/57/19 44/58/19 36/59/19
f 36/60/20 38/61/20 34/62/20
f 33/63/21 39/64/21 35/65/21
f 35/66/22 40/67/22 36/60/22
f 34/68/23 37/69/23 33/63/23
f 35/70/24 41/71/24 33/72/24
f 36/59/25 43/73/25 35/70/25
f 33/72/26 42/74/26 34/57/26
f 44/75/27 47/76/27 43/77/27
f 41/78/28 46/79/28 42/80/28
f 42/81/29 48/82/29 44/75/29
f 43/83/30 45/84/30 41/78/30
f 34/57/19 42/74/19 44/58/19
f 36/60/20 40/67/20 38/61/20
f 33/63/21 37/69/21 39/64/21
f 35/66/22 39/85/22 40/67/22
f 34/68/23 38/86/23 37/69/23
f 35/70/24 43/73/24 41/71/24
f 36/59/25 44/58/25 43/73/25
f 33/72/26 41/71/26 42/74/26
f 44/75/27 48/82/27 47/76/27
f 41/78/28 45/84/28 46/79/28
f 42/81/29 46/87/29 48/82/29
f 43/83/30 47/88/30 45/84/30
f 38/89/31 39/90/31 37/91/31
f 38/89/31 40/92/31 39/90/31
o Plane.001_Plane.005
v 0.299233 -0.115752 0.000000
v 0.805116 -0.115752 0.000000
v 0.299233 0.390130 0.000000
v 0.805116 0.390130 0.000000
v 0.252174 -0.162811 0.420000
v 0.852174 -0.162811 0.420000
v 0.252174 0.437189 0.420000
v 0.852174 0.437189 0.420000
v 0.462174 0.227189 0.600000
v 0.462174 0.047189 0.600000
v 0.642174 0.047189 0.600000
v 0.642174 0.227189 0.600000
v 0.791069 0.376084 0.510000
v 0.791069 -0.101705 0.510000
v 0.313280 -0.101705 0.510000
v 0.313280 0.376084 0.510000
v 0.738587 0.323602 0.560174
v 0.365762 -0.049224 0.560174
v 0.738587 -0.049224 0.560174
v 0.365762 0.323602 0.560174
v 0.805116 0.390130 0.420000
v 0.805116 -0.115752 0.420000
v 0.299233 -0.115752 0.420000
v 0.299233 0.390130 0.420000
v 0.462734 -0.115752 0.000000
v 0.641614 -0.115752 0.000000
v 0.641614 -0.115752 0.275066
v 0.462734 -0.115752 0.275066
v 0.462734 -0.047024 0.000000
v 0.641614 -0.047024 0.000000
v 0.641614 -0.047024 0.275066
v 0.462734 -0.047024 0.275066
vt 0.740234 0.021484
vt 0.898438 0.007812
vt 0.886719 0.021484
vt 0.886719 0.166016
vt 0.728516 0.177734
vt 0.740234 0.166016
vt 0.728516 0.007812
vt 0.898438 0.177734
vt 0.650391 0.226562
vt 0.603516 0.304688
vt 0.603516 0.226562
vt 0.974609 0.337891
vt 0.857422 0.191406
vt 0.974609 0.191406
vt 0.845703 0.337891
vt 0.726562 0.191406
vt 0.845703 0.191406
vt 0.845703 0.494141
vt 0.726562 0.349609
vt 0.845703 0.349609
vt 0.656250 0.230469
vt 0.677734 0.308594
vt 0.656250 0.308594
vt 0.505859 0.347656
vt 0.650391 0.347656
vt 0.505859 0.226562
vt 0.552734 0.304688
vt 0.677734 0.359375
vt 0.656250 0.359375
vt 0.677734 0.437500
vt 0.656250 0.437500
vt 0.857422 0.337891
vt 0.726562 0.337891
vt 0.726562 0.494141
vt 0.677734 0.230469
vt 0.552734 0.226562
vt 0.587891 0.130859
vt 0.632812 0.089844
vt 0.630859 0.132812
vt 0.564453 0.060547
vt 0.560547 0.156250
vt 0.656250 0.160156
vt 0.660156 0.064453
vt 0.589844 0.087891
vt 0.509766 0.210938
vt 0.677734 0.179688
vt 0.710938 0.210938
vt 0.710938 0.009766
vt 0.542969 0.041016
vt 0.509766 0.009766
vt 0.679688 0.042969
vt 0.541016 0.177734
vt 0.503906 0.353516
vt 0.582031 0.404297
vt 0.503906 0.404297
vt 0.582031 0.353516
vn 0.0000 0.0000 -1.0000
vn 0.0000 -1.0000 0.0000
vn 0.0000 1.0000 0.0000
vn -1.0000 0.0000 0.0000
vn 1.0000 0.0000 0.0000
vn 0.0000 0.0000 1.0000
vn 0.3818 0.0000 0.9242
vn -0.3818 0.0000 0.9242
vn 0.0000 0.3818 0.9242
vn 0.0000 -0.3818 0.9242
vn 0.0000 -0.8273 0.5617
vn 0.0000 0.8273 0.5617
vn -0.8273 0.0000 0.5617
vn 0.8273 0.0000 0.5617
vn 0.0000 -0.6910 0.7228
vn 0.0000 0.6910 0.7228
vn -0.6910 0.0000 0.7228
vn 0.6910 0.0000 0.7228
s off
f 69/93/32 54/94/32 70/95/32
f 71/96/32 55/97/32 72/98/32
f 72/98/32 56/99/32 69/93/32
f 70/95/32 53/100/32 71/96/32
f 50/101/33 75/102/33 74/103/33
f 51/104/34 69/105/34 52/106/34
f 49/107/35 72/108/35 51/109/35
f 52/110/36 70/111/36 50/112/36
f 73/113/36 80/114/36 76/115/36
f 71/116/33 75/102/33 70/117/33
f 49/118/33 76/119/33 71/116/33
f 76/115/32 79/120/32 75/121/32
f 75/121/35 78/122/35 74/123/35
f 69/93/32 56/99/32 54/94/32
f 71/96/32 53/100/32 55/97/32
f 72/98/32 55/97/32 56/99/32
f 70/95/32 54/94/32 53/100/32
f 50/101/33 70/117/33 75/102/33
f 51/104/34 72/124/34 69/105/34
f 49/107/35 71/125/35 72/108/35
f 52/110/36 69/126/36 70/111/36
f 73/113/36 77/127/36 80/114/36
f 71/116/33 76/119/33 75/102/33
f 49/118/33 73/128/33 76/119/33
f 76/115/32 80/114/32 79/120/32
f 75/121/35 79/120/35 78/122/35
f 59/129/37 57/130/37 58/131/37
f 65/132/38 59/129/38 67/133/38
f 66/134/39 57/130/39 68/135/39
f 68/135/40 60/136/40 65/132/40
f 67/133/41 58/131/41 66/134/41
f 54/137/42 63/138/42 53/139/42
f 55/140/43 61/141/43 56/142/43
f 53/139/44 64/143/44 55/140/44
f 56/142/45 62/144/45 54/137/45
f 62/144/46 66/134/46 63/138/46
f 64/143/47 65/132/47 61/141/47
f 63/138/48 68/135/48 64/143/48
f 61/141/49 67/133/49 62/144/49
f 59/129/37 60/136/37 57/130/37
f 65/132/38 60/136/38 59/129/38
f 66/134/39 58/131/39 57/130/39
f 68/135/40 57/130/40 60/136/40
f 67/133/41 59/129/41 58/131/41
f 54/137/42 62/144/42 63/138/42
f 55/140/43 64/143/43 61/141/43
f 53/139/44 63/138/44 64/143/44
f 56/142/45 61/141/45 62/144/45
f 62/144/46 67/133/46 66/134/46
f 64/143/47 68/135/47 65/132/47
f 63/138/48 66/134/48 68/135/48
f 61/141/49 65/132/49 67/133/49
f 78/145/33 80/146/33 77/147/33
f 78/145/33 79/148/33 80/146/33
o Plane.003_Plane.006
v -0.420767 -0.655752 0.000000
v 0.085116 -0.655752 0.000000
v -0.420767 -0.149870 0.000000
v 0.085116 -0.149870 0.000000
v -0.467826 -0.702811 0.420000
v 0.132174 -0.702811 0.420000
v -0.467826 -0.102811 0.420000
v 0.132174 -0.102811 0.420000
v -0.257826 -0.312811 0.600000
v -0.257826 -0.492811 0.600000
v -0.077826 -0.492811 0.600000
v -0.077826 -0.312811 0.600000
v 0.071069 -0.163916 0.510000
v 0.071069 -0.641705 0.510000
v -0.406720 -0.641705 0.510000
v -0.406720 -0.163916 0.510000
v 0.018587 -0.216398 0.560174
v -0.354238 -0.589224 0.560174
v 0.018587 -0.589224 0.560174
v -0.354238 -0.216398 0.560174
v 0.085116 -0.149870 0.420000
v 0.085116 -0.655752 0.420000
v -0.420767 -0.655752 0.420000
v -0.420767 -0.149870 0.420000
v -0.257266 -0.655752 0.000000
v -0.078386 -0.655752 0.000000
v -0.078386 -0.655752 0.275066
v -0.257266 -0.655752 0.275066
v -0.257266 -0.587024 0.000000
v -0.078386 -0.587024 0.000000
v -0.078386 -0.587024 0.275066
v -0.257266 -0.587024 0.275066
vt 0.240234 0.021484
vt 0.398438 0.007812
vt 0.386719 0.021484
vt 0.386719 0.166016
vt 0.228516 0.177734
vt 0.240234 0.166016
vt 0.228516 0.007812
vt 0.398438 0.177734
vt 0.150391 0.226562
vt 0.103516 0.304688
vt 0.103516 0.226562
vt 0.474609 0.337891
vt 0.357422 0.191406
vt 0.474609 0.191406
vt 0.345703 0.337891
vt 0.226562 0.191406
vt 0.345703 0.191406
vt 0.345703 0.494141
vt 0.226562 0.349609
vt 0.345703 0.349609
vt 0.156250 0.230469
vt 0.177734 0.308594
vt 0.156250 0.308594
vt 0.005859 0.347656
vt 0.150391 0.347656
vt 0.005859 0.226562
vt 0.052734 0.304688
vt 0.177734 0.359375
vt 0.156250 0.359375
vt 0.177734 0.437500
vt 0.156250 0.437500
vt 0.357422 0.337891
vt 0.226562 0.337891
vt 0.226562 0.494141
vt 0.177734 0.230469
vt 0.052734 0.226562
vt 0.087891 0.130859
vt 0.132812 0.089844
vt 0.130859 0.132812
vt 0.064453 0.060547
vt 0.060547 0.156250
vt 0.156250 0.160156
vt 0.160156 0.064453
vt 0.089844 0.087891
vt 0.009766 0.210938
vt 0.177734 0.179688
vt 0.210938 0.210938
vt 0.210938 0.009766
vt 0.042969 0.041016
vt 0.009766 0.009766
vt 0.179688 0.042969
vt 0.041016 0.177734
vt 0.003906 0.353516
vt 0.082031 0.404297
vt 0.003906 0.404297
vt 0.082031 0.353516
vn 0.0000 0.0000 -1.0000
vn 0.0000 -1.0000 0.0000
vn 0.0000 1.0000 0.0000
vn -1.0000 0.0000 0.0000
vn 1.0000 0.0000 0.0000
vn 0.0000 0.0000 1.0000
vn 0.3818 0.0000 0.9242
vn -0.3818 0.0000 0.9242
vn 0.0000 0.3818 0.9242
vn 0.0000 -0.3818 0.9242
vn 0.0000 -0.8273 0.5617
vn 0.0000 0.8273 0.5617
vn -0.8273 0.0000 0.5617
vn 0.8273 0.0000 0.5617
vn 0.0000 -0.6910 0.7228
vn 0.0000 0.6910 0.7228
vn -0.6910 0.0000 0.7228
vn 0.6910 0.0000 0.7228
s off
f 101/149/50 86/150/50 102/151/50
f 103/152/50 87/153/50 104/154/50
f 104/154/50 88/155/50 101/149/50
f 102/151/50 85/156/50 103/152/50
f 82/157/51 107/158/51 106/159/51
f 83/160/52 101/161/52 84/162/52
f 81/163/53 104/164/53 83/165/53
f 84/166/54 102/167/54 82/168/54
f 105/169/54 112/170/54 108/171/54
f 103/172/51 107/158/51 102/173/51
f 81/174/51 108/175/51 103/172/51
f 108/171/50 111/176/50 107/177/50
f 107/177/53 110/178/53 106/179/53
f 101/149/50 88/155/50 86/150/50
f 103/152/50 85/156/50 87/153/50
f 104/154/50 87/153/50 88/155/50
f 102/151/50 86/150/50 85/156/50
f 82/157/51 102/173/51 107/158/51
f 83/160/52 104/180/52 101/161/52
f 81/163/53 103/181/53 104/164/53
f 84/166/54 101/182/54 102/167/54
f 105/169/54 109/183/54 112/170/54
f 103/172/51 108/175/51 107/158/51
f 81/174/51 105/184/51 108/175/51
f 108/171/50 112/170/50 111/176/50
f 107/177/53 111/176/53 110/178/53
f 91/185/55 89/186/55 90/187/55
f 97/188/56 91/185/56 99/189/56
f 98/190/57 89/186/57 100/191/57
f 100/191/58 92/192/58 97/188/58
f 99/189/59 90/187/59 98/190/59
f 86/193/60 95/194/60 85/195/60
f 87/196/61 93/197/61 88/198/61
f 85/195/62 96/199/62 87/196/62
f 88/198/63 94/200/63 86/193/63
f 94/200/64 98/190/64 95/194/64
f 96/199/65 97/188/65 93/197/65
f 95/194/66 100/191/66 96/199/66
f 93/197/67 99/189/67 94/200/67
f 91/185/55 92/192/55 89/186/55
f 97/188/56 92/192/56 91/185/56
f 98/190/57 90/187/57 89/186/57
f 100/191/58 89/186/58 92/192/58
f 99/189/59 91/185/59 90/187/59
f 86/193/60 94/200/60 95/194/60
f 87/196/61 96/199/61 93/197/61
f 85/195/62 95/194/62 96/199/62
f 88/198/63 93/197/63 94/200/63
f 94/200/64 99/189/64 98/190/64
f 96/199/65 100/191/65 97/188/65
f 95/194/66 98/190/66 100/191/66
f 93/197/67 97/188/67 99/189/67
f 110/201/51 112/202/51 109/203/51
f 110/201/51 111/204/51 112/202/51
