# Blender v3.0.1 OBJ File: 'temple.blend'
# www.blender.org
o Cube
v -1.000000 -1.000000 0.000000
v -1.000000 -1.000000 0.200000
v -1.000000 1.000000 0.000000
v -1.000000 1.000000 0.200000
v 1.000000 -1.000000 0.000000
v 1.000000 -1.000000 0.200000
v 1.000000 1.000000 0.000000
v 1.000000 1.000000 0.200000
v -0.800000 -0.800000 0.200000
v -0.800000 -0.800000 0.400000
v -0.800000 0.800000 0.200000
v -0.800000 0.800000 0.400000
v 0.800000 -0.800000 0.200000
v 0.800000 -0.800000 0.400000
v 0.800000 0.800000 0.200000
v 0.800000 0.800000 0.400000
v -0.600000 -0.600000 0.400000
v -0.600000 -0.600000 0.600000
v -0.600000 0.600000 0.400000
v -0.600000 0.600000 0.600000
v 0.600000 -0.600000 0.400000
v 0.600000 -0.600000 0.600000
v 0.600000 0.600000 0.400000
v 0.600000 0.600000 0.600000
v -0.400000 -0.400000 0.600000
v -0.400000 -0.400000 0.800000
v -0.400000 0.400000 0.600000
v -0.400000 0.400000 0.800000
v 0.400000 -0.400000 0.600000
v 0.400000 -0.400000 0.800000
v 0.400000 0.400000 0.600000
v 0.400000 0.400000 0.800000
v -0.200000 -0.200000 0.800000
v -0.200000 -0.200000 1.000000
v -0.200000 0.200000 0.800000
v -0.200000 0.200000 1.000000
v 0.200000 -0.200000 0.800000
v 0.200000 -0.200000 1.000000
v 0.200000 0.200000 0.800000
v 0.200000 0.200000 1.000000
v 0.100000 0.100000 1.100000
v 0.100000 0.100000 1.000000
v 0.100000 -0.100000 1.100000
v 0.100000 -0.100000 1.000000
v -0.100000 0.100000 1.100000
v -0.100000 0.100000 1.000000
v -0.100000 -0.100000 1.100000
v -0.100000 -0.100000 1.000000
v 0.100000 -0.800000 0.330000
v 0.300000 -0.800000 0.000000
v 0.100000 -1.100000 0.330000
v 0.300000 -1.100000 0.000000
v -0.100000 -0.800000 0.330000
v -0.300000 -0.800000 0.000000
v -0.100000 -1.100000 0.330000
v -0.300000 -1.100000 0.000000
v 0.070000 -1.100000 0.231000
v 0.210000 -1.100000 0.000000
v -0.070000 -1.100000 0.231000
v -0.210000 -1.100000 0.000000
v 0.070000 -1.007967 0.231000
v 0.210000 -1.007967 0.000000
v -0.070000 -1.007967 0.231000
v -0.210000 -1.007967 0.000000
v -1.110000 -1.110000 0.000000
v -1.110000 -1.110000 0.900000
v -1.110000 -0.890000 0.000000
v -1.110000 -0.890000 0.900000
v -0.890000 -1.110000 0.000000
v -0.890000 -1.110000 0.900000
v -0.890000 -0.890000 0.000000
v -0.890000 -0.890000 0.900000
v -1.000000 -1.000000 1.100000
v 0.890000 -0.890000 0.000000
v 0.890000 -1.110000 0.900000
v 0.890000 -1.110000 0.000000
v 0.890000 -0.890000 0.900000
v 1.110000 -1.110000 0.000000
v 1.110000 -1.110000 0.900000
v 1.110000 -0.890000 0.000000
v 1.110000 -0.890000 0.900000
v 1.000000 -1.000000 1.100000
v 0.890000 1.110000 0.000000
v 0.890000 0.890000 0.900000
v 0.890000 0.890000 0.000000
v 0.890000 1.110000 0.900000
v 1.110000 0.890000 0.000000
v 1.110000 0.890000 0.900000
v 1.110000 1.110000 0.000000
v 1.110000 1.110000 0.900000
v 1.000000 1.000000 1.100000
v -1.110000 1.110000 0.000000
v -1.110000 0.890000 0.900000
v -1.110000 0.890000 0.000000
v -1.110000 1.110000 0.900000
v -0.890000 0.890000 0.000000
v -0.890000 0.890000 0.900000
v -0.890000 1.110000 0.000000
v -0.890000 1.110000 0.900000
v -1.000000 1.000000 1.100000
vt 0.750000 0.000000
vt 0.500000 0.250000
vt 0.500000 0.000000
vt 0.750000 0.250000
vt 0.500000 0.500000
vt 0.750000 0.500000
vt 0.500000 0.750000
vt 0.750000 0.750000
vt 0.500000 1.000000
vt 0.125000 0.500000
vt 0.000000 0.625000
vt 0.000000 0.500000
vt 1.000000 0.500000
vt 0.125000 0.625000
vt 0.000000 0.750000
vt 0.125000 0.750000
vt 0.000000 0.875000
vt 0.125000 0.875000
vt 0.000000 1.000000
vt 0.250000 0.750000
vt 0.250000 0.273438
vt 0.140625 0.390625
vt 0.140625 0.273438
vt 0.250000 0.390625
vt 0.140625 0.500000
vt 0.250000 0.500000
vt 0.140625 0.609375
vt 0.250000 0.609375
vt 0.140625 0.726562
vt 0.359375 0.500000
vt 0.843750 0.015625
vt 0.765625 0.085938
vt 0.765625 0.015625
vt 0.843750 0.085938
vt 0.765625 0.164062
vt 0.843750 0.164062
vt 0.765625 0.234375
vt 0.843750 0.234375
vt 0.765625 0.312500
vt 0.914062 0.164062
vt 0.929688 0.273438
vt 1.000000 0.210938
vt 1.000000 0.273438
vt 0.929688 0.210938
vt 1.000000 0.140625
vt 0.929688 0.140625
vt 1.000000 0.070312
vt 0.929688 0.070312
vt 1.000000 0.000000
vt 0.859375 0.140625
vt 0.882812 0.351562
vt 0.945312 0.414062
vt 0.882812 0.414062
vt 1.000000 0.476562
vt 0.945312 0.476562
vt 0.882812 0.476562
vt 0.820312 0.414062
vt 0.820312 0.476562
vt 0.757812 0.414062
vt 0.757812 0.476562
vt 0.312500 0.179688
vt 0.242188 0.109375
vt 0.312500 0.148438
vt 0.312500 0.007812
vt 0.242188 0.070312
vt 0.218750 0.062500
vt 0.015625 0.171875
vt 0.101562 0.281250
vt 0.015625 0.281250
vt 0.101562 0.117188
vt 0.195312 0.109375
vt 0.218750 0.156250
vt 0.101562 0.117188
vt 0.015625 0.007812
vt 0.101562 0.007812
vt 0.015625 0.117188
vt 0.101562 0.171875
vt 0.218750 0.117188
vt 0.101562 0.234375
vt 0.164062 0.156250
vt 0.164062 0.273438
vt 0.101562 0.031250
vt 0.140625 0.093750
vt 0.218750 0.007812
vt 0.140625 0.062500
vt 0.195312 0.054688
vt 0.921875 0.945312
vt 0.875000 0.765625
vt 0.921875 0.765625
vt 0.828125 0.945312
vt 0.789062 0.765625
vt 0.828125 0.765625
vt 0.875000 0.945312
vt 0.828125 0.765625
vt 0.875000 0.765625
vt 0.960938 0.945312
vt 0.960938 0.765625
vt 0.875000 0.945312
vt 0.898438 0.984375
vt 0.359375 0.195312
vt 0.320312 0.015625
vt 0.359375 0.015625
vt 0.937500 0.984375
vt 0.789062 0.945312
vt 0.812500 0.984375
vt 0.828125 0.945312
vt 0.851562 0.984375
vt 0.453125 0.195312
vt 0.406250 0.015625
vt 0.453125 0.015625
vt 0.406250 0.195312
vt 0.359375 0.015625
vt 0.406250 0.015625
vt 0.492188 0.195312
vt 0.492188 0.015625
vt 0.406250 0.195312
vt 0.429688 0.234375
vt 0.468750 0.234375
vt 0.320312 0.195312
vt 0.343750 0.234375
vt 0.359375 0.195312
vt 0.382812 0.234375
vt 0.359375 0.445312
vt 0.320312 0.265625
vt 0.359375 0.265625
vt 0.453125 0.445312
vt 0.406250 0.265625
vt 0.453125 0.265625
vt 0.406250 0.445312
vt 0.359375 0.265625
vt 0.406250 0.265625
vt 0.492188 0.445312
vt 0.492188 0.265625
vt 0.406250 0.445312
vt 0.429688 0.484375
vt 0.468750 0.484375
vt 0.320312 0.445312
vt 0.343750 0.484375
vt 0.359375 0.445312
vt 0.382812 0.484375
vt 0.359375 0.820312
vt 0.320312 0.640625
vt 0.359375 0.640625
vt 0.453125 0.820312
vt 0.406250 0.640625
vt 0.453125 0.640625
vt 0.406250 0.820312
vt 0.359375 0.640625
vt 0.406250 0.640625
vt 0.492188 0.820312
vt 0.492188 0.640625
vt 0.406250 0.820312
vt 0.429688 0.859375
vt 0.468750 0.859375
vt 0.320312 0.820312
vt 0.343750 0.859375
vt 0.359375 0.820312
vt 0.382812 0.859375
vt 0.750000 1.000000
vt 1.000000 0.750000
vt 0.125000 1.000000
vt 0.250000 0.875000
vt 0.250000 0.726562
vt 0.359375 0.609375
vt 0.843750 0.312500
vt 0.914062 0.234375
vt 0.929688 0.000000
vt 0.859375 0.070312
vt 0.945312 0.351562
vt 1.000000 0.414062
vt 0.312500 0.031250
vt 0.101562 0.195312
vn -1.0000 0.0000 0.0000
vn 0.0000 1.0000 0.0000
vn 1.0000 0.0000 0.0000
vn 0.0000 -1.0000 0.0000
vn 0.0000 0.0000 1.0000
vn 0.8552 0.0000 0.5183
vn -0.8552 0.0000 -0.5183
vn -0.8552 0.0000 0.5183
vn 0.0000 0.0000 -1.0000
vn 0.8552 0.0000 -0.5183
vn -0.8762 0.0000 0.4819
vn 0.0000 -0.8762 0.4819
vn 0.0000 0.8762 0.4819
vn 0.8762 0.0000 0.4819
s off
f 2/1/1 3/2/1 1/3/1
f 4/4/2 7/5/2 3/2/2
f 8/6/3 5/7/3 7/5/3
f 6/8/4 1/9/4 5/7/4
f 10/10/1 11/11/1 9/12/1
f 4/13/5 6/8/5 8/6/5
f 12/14/2 15/15/2 11/11/2
f 16/16/3 13/17/3 15/15/3
f 14/18/4 9/19/4 13/17/4
f 12/20/5 14/18/5 16/16/5
f 18/21/1 19/22/1 17/23/1
f 20/24/2 23/25/2 19/22/2
f 24/26/3 21/27/3 23/25/3
f 22/28/4 17/29/4 21/27/4
f 20/30/5 22/28/5 24/26/5
f 26/31/1 27/32/1 25/33/1
f 28/34/2 31/35/2 27/32/2
f 32/36/3 29/37/3 31/35/3
f 30/38/4 25/39/4 29/37/4
f 28/40/5 30/38/5 32/36/5
f 34/41/1 35/42/1 33/43/1
f 36/44/2 39/45/2 35/42/2
f 40/46/3 37/47/3 39/45/3
f 38/48/4 33/49/4 37/47/4
f 36/50/5 38/48/5 40/46/5
f 45/51/5 43/52/5 41/53/5
f 43/52/4 48/54/4 44/55/4
f 41/53/3 44/55/3 42/56/3
f 45/57/2 42/56/2 46/58/2
f 47/59/1 46/58/1 48/60/1
f 52/61/4 57/62/4 58/63/4
f 56/64/4 59/65/4 55/66/4
f 49/67/6 52/68/6 50/69/6
f 57/70/7 62/71/7 58/72/7
f 55/73/8 54/74/8 56/75/8
f 53/76/5 51/77/5 49/67/5
f 55/66/4 57/62/4 51/78/4
f 61/79/4 64/80/4 62/81/4
f 59/82/9 61/83/9 57/70/9
f 60/84/10 63/85/10 59/82/10
f 58/72/5 64/86/5 60/84/5
f 66/87/1 67/88/1 65/89/1
f 68/90/2 71/91/2 67/92/2
f 72/93/3 69/94/3 71/95/3
f 70/96/4 65/89/4 69/97/4
f 68/98/11 66/87/11 73/99/11
f 77/100/2 80/101/2 74/102/2
f 66/87/12 70/96/12 73/103/12
f 72/104/13 68/90/13 73/105/13
f 70/106/14 72/93/14 73/107/14
f 75/108/1 74/109/1 76/110/1
f 81/111/3 78/112/3 80/113/3
f 79/114/4 76/110/4 78/115/4
f 77/116/11 75/108/11 82/117/11
f 75/108/12 79/114/12 82/118/12
f 81/119/13 77/100/13 82/120/13
f 79/121/14 81/111/14 82/122/14
f 86/123/2 89/124/2 83/125/2
f 84/126/1 83/127/1 85/128/1
f 90/129/3 87/130/3 89/131/3
f 88/132/4 85/128/4 87/133/4
f 86/134/11 84/126/11 91/135/11
f 84/126/12 88/132/12 91/136/12
f 90/137/13 86/123/13 91/138/13
f 88/139/14 90/129/14 91/140/14
f 95/141/2 98/142/2 92/143/2
f 93/144/1 92/145/1 94/146/1
f 99/147/3 96/148/3 98/149/3
f 97/150/4 94/146/4 96/151/4
f 95/152/11 93/144/11 100/153/11
f 93/144/12 97/150/12 100/154/12
f 99/155/13 95/141/13 100/156/13
f 97/157/14 99/147/14 100/158/14
f 2/1/1 4/4/1 3/2/1
f 4/4/2 8/6/2 7/5/2
f 8/6/3 6/8/3 5/7/3
f 6/8/4 2/159/4 1/9/4
f 10/10/1 12/14/1 11/11/1
f 4/13/5 2/160/5 6/8/5
f 12/14/2 16/16/2 15/15/2
f 16/16/3 14/18/3 13/17/3
f 14/18/4 10/161/4 9/19/4
f 12/20/5 10/162/5 14/18/5
f 18/21/1 20/24/1 19/22/1
f 20/24/2 24/26/2 23/25/2
f 24/26/3 22/28/3 21/27/3
f 22/28/4 18/163/4 17/29/4
f 20/30/5 18/164/5 22/28/5
f 26/31/1 28/34/1 27/32/1
f 28/34/2 32/36/2 31/35/2
f 32/36/3 30/38/3 29/37/3
f 30/38/4 26/165/4 25/39/4
f 28/40/5 26/166/5 30/38/5
f 34/41/1 36/44/1 35/42/1
f 36/44/2 40/46/2 39/45/2
f 40/46/3 38/48/3 37/47/3
f 38/48/4 34/167/4 33/49/4
f 36/50/5 34/168/5 38/48/5
f 45/51/5 47/169/5 43/52/5
f 43/52/4 47/170/4 48/54/4
f 41/53/3 43/52/3 44/55/3
f 45/57/2 41/53/2 42/56/2
f 47/59/1 45/57/1 46/58/1
f 52/61/4 51/78/4 57/62/4
f 56/64/4 60/171/4 59/65/4
f 49/67/6 51/77/6 52/68/6
f 57/70/7 61/83/7 62/71/7
f 55/73/8 53/76/8 54/74/8
f 53/76/5 55/73/5 51/77/5
f 55/66/4 59/65/4 57/62/4
f 61/79/4 63/172/4 64/80/4
f 59/82/9 63/85/9 61/83/9
f 60/84/10 64/86/10 63/85/10
f 58/72/5 62/71/5 64/86/5
f 66/87/1 68/98/1 67/88/1
f 68/90/2 72/104/2 71/91/2
f 72/93/3 70/106/3 69/94/3
f 70/96/4 66/87/4 65/89/4
f 77/100/2 81/119/2 80/101/2
f 75/108/1 77/116/1 74/109/1
f 81/111/3 79/121/3 78/112/3
f 79/114/4 75/108/4 76/110/4
f 86/123/2 90/137/2 89/124/2
f 84/126/1 86/134/1 83/127/1
f 90/129/3 88/139/3 87/130/3
f 88/132/4 84/126/4 85/128/4
f 95/141/2 99/155/2 98/142/2
f 93/144/1 95/152/1 92/145/1
f 99/147/3 97/157/3 96/148/3
f 97/150/4 93/144/4 94/146/4
