# Blender v3.0.1 OBJ File: 'town.blend'
# www.blender.org
o Cylinder
v -0.186375 -0.022415 0.000000
v -0.186375 -0.022415 0.403200
v 0.015225 -0.371597 0.000000
v 0.015225 -0.371597 0.403200
v -0.186375 -0.720778 0.000000
v -0.186375 -0.720778 0.403200
v -0.589576 -0.720778 0.000000
v -0.589576 -0.720778 0.403200
v -0.791175 -0.371597 0.000000
v -0.791175 -0.371597 0.403200
v -0.589576 -0.022415 0.000000
v -0.589576 -0.022415 0.403200
v -0.267015 -0.162088 0.604800
v -0.146055 -0.371597 0.604800
v -0.267015 -0.581106 0.604800
v -0.508936 -0.581105 0.604800
v -0.629896 -0.371597 0.604800
v -0.508936 -0.162088 0.604800
v -0.267015 -0.720778 0.000000
v -0.267015 -0.720778 0.230105
v -0.508936 -0.720778 0.000000
v -0.508936 -0.720778 0.230105
v -0.267015 -0.700808 0.000000
v -0.267015 -0.700808 0.230105
v -0.508936 -0.700808 0.000000
v -0.508936 -0.700808 0.230105
v -0.455176 -0.720778 0.403200
v -0.320776 -0.720778 0.403200
v -0.428295 -0.581106 0.604800
v -0.347656 -0.581106 0.604800
v -0.347656 -0.720778 0.000000
v -0.428295 -0.720778 0.000000
v -0.452488 -0.720778 0.330905
v -0.323463 -0.720778 0.330905
v -0.347656 -0.700808 0.000000
v -0.428295 -0.700808 0.000000
v -0.452488 -0.700808 0.330905
v -0.323463 -0.700808 0.330905
v 0.620025 0.128785 0.000000
v 0.620025 0.128785 0.403200
v 0.821625 -0.220397 0.000000
v 0.821625 -0.220397 0.403200
v 0.620025 -0.569578 0.000000
v 0.620025 -0.569578 0.403200
v 0.216825 -0.569578 0.000000
v 0.216825 -0.569578 0.403200
v 0.015225 -0.220397 0.000000
v 0.015225 -0.220397 0.403200
v 0.216825 0.128785 0.000000
v 0.216825 0.128785 0.403200
v 0.539385 -0.010888 0.604800
v 0.660345 -0.220397 0.604800
v 0.539385 -0.429906 0.604800
v 0.297465 -0.429905 0.604800
v 0.176505 -0.220397 0.604800
v 0.297465 -0.010888 0.604800
v 0.539385 -0.569578 0.000000
v 0.539385 -0.569578 0.230105
v 0.297465 -0.569578 0.000000
v 0.297465 -0.569578 0.230105
v 0.539385 -0.549608 0.000000
v 0.539385 -0.549608 0.230105
v 0.297465 -0.549608 0.000000
v 0.297465 -0.549608 0.230105
v 0.351225 -0.569578 0.403200
v 0.485625 -0.569578 0.403200
v 0.378105 -0.429906 0.604800
v 0.458745 -0.429906 0.604800
v 0.458745 -0.569578 0.000000
v 0.378105 -0.569578 0.000000
v 0.353913 -0.569578 0.330905
v 0.482937 -0.569578 0.330905
v 0.458745 -0.549608 0.000000
v 0.378105 -0.549608 0.000000
v 0.353913 -0.549608 0.330905
v 0.482937 -0.549608 0.330905
v 0.073746 0.712966 0.000000
v 0.073746 0.712966 0.403200
v 0.275346 0.363785 0.000000
v 0.275346 0.363785 0.403200
v 0.073746 0.014603 0.000000
v 0.073746 0.014603 0.403200
v -0.329454 0.014603 0.000000
v -0.329454 0.014603 0.403200
v -0.531054 0.363785 0.000000
v -0.531054 0.363785 0.403200
v -0.329454 0.712966 0.000000
v -0.329454 0.712966 0.403200
v -0.006894 0.573294 0.604800
v 0.114066 0.363785 0.604800
v -0.006894 0.154276 0.604800
v -0.248814 0.154276 0.604800
v -0.369774 0.363785 0.604800
v -0.248814 0.573294 0.604800
v -0.006894 0.014603 0.000000
v -0.006894 0.014603 0.230105
v -0.248814 0.014603 0.000000
v -0.248814 0.014603 0.230105
v -0.006894 0.034574 0.000000
v -0.006894 0.034574 0.230105
v -0.248814 0.034574 0.000000
v -0.248814 0.034574 0.230105
v -0.195054 0.014603 0.403200
v -0.060654 0.014603 0.403200
v -0.168174 0.154276 0.604800
v -0.087534 0.154276 0.604800
v -0.087534 0.014603 0.000000
v -0.168174 0.014603 0.000000
v -0.192366 0.014603 0.330905
v -0.063342 0.014603 0.330905
v -0.087534 0.034574 0.000000
v -0.168174 0.034574 0.000000
v -0.192366 0.034574 0.330905
v -0.063342 0.034574 0.330905
v -1.000000 -1.000000 0.000900
v 1.000000 -1.000000 0.000900
v -1.000000 1.000000 0.000900
v 1.000000 1.000000 0.000900
v -0.900000 0.900000 0.000900
v -0.900000 -0.900000 0.000900
v 0.900000 -0.900000 0.000900
v 0.900000 0.900000 0.000900
v -0.986964 0.986964 0.298400
v -0.986964 -0.986964 0.298400
v 0.986964 -0.986964 0.298400
v 0.986964 0.986964 0.298400
v -0.920052 0.920052 0.298400
v -0.920052 -0.920052 0.298400
v 0.920052 -0.920052 0.298400
v 0.920052 0.920052 0.298400
vt 1.000000 0.000000
vt 0.750000 0.250000
vt 0.750000 0.000000
vt 0.632917 0.465368
vt 0.594948 0.233083
vt 0.632917 0.235642
vt 0.726667 0.222880
vt 0.688698 0.476467
vt 0.726667 0.478131
vt 0.586042 0.478131
vt 0.548073 0.224543
vt 0.586042 0.222880
vt 0.679792 0.465368
vt 0.641823 0.233083
vt 0.679792 0.235642
vt 0.770211 0.479554
vt 0.984657 0.472029
vt 0.992181 0.479554
vt 0.992181 0.257584
vt 0.777736 0.265108
vt 0.770211 0.257584
vt 0.984657 0.265108
vt 0.777736 0.472029
vt 0.641823 0.467927
vt 0.679792 0.465368
vt 0.586042 0.222880
vt 0.548073 0.476467
vt 0.726667 0.478131
vt 0.688698 0.224543
vt 0.632917 0.235642
vt 0.594948 0.467927
vt 1.000000 0.250000
vt 0.641823 0.467927
vt 0.548073 0.224543
vt 0.688698 0.476467
vt 0.594948 0.233083
vt 0.484820 0.141693
vt 0.395291 0.029324
vt 0.496240 0.040744
vt 0.399464 0.116129
vt 0.285063 0.036329
vt 0.147785 0.116193
vt 0.209835 0.142972
vt 0.203828 0.202108
vt 0.076517 0.211364
vt 0.153665 0.275816
vt 0.271802 0.231972
vt 0.236936 0.292719
vt 0.027551 0.331487
vt 0.129481 0.373878
vt 0.007598 0.471658
vt 0.305138 0.480933
vt 0.261007 0.455454
vt 0.261007 0.438467
vt 0.326986 0.197666
vt 0.323085 0.129529
vt 0.222006 0.367286
vt 0.390211 0.184981
vt 0.285421 0.153991
vt 0.308750 0.209356
vt 0.148659 0.484058
vt 0.233475 0.449104
vt 0.240341 0.153009
vt 0.249548 0.178074
vt 0.277048 0.102724
vt 0.263463 0.041090
vt 0.270625 0.134319
vt 0.290418 0.220863
vt 0.484820 0.641693
vt 0.395291 0.529324
vt 0.496240 0.540744
vt 0.399464 0.616129
vt 0.285063 0.536329
vt 0.147785 0.616193
vt 0.209835 0.642972
vt 0.203828 0.702109
vt 0.076517 0.711364
vt 0.236936 0.792719
vt 0.153665 0.775816
vt 0.027551 0.831487
vt 0.129481 0.873878
vt 0.007598 0.971658
vt 0.305138 0.980933
vt 0.261007 0.955454
vt 0.261007 0.938468
vt 0.323085 0.629529
vt 0.390211 0.684981
vt 0.326986 0.697666
vt 0.222006 0.867286
vt 0.285421 0.653991
vt 0.308750 0.709356
vt 0.233475 0.949104
vt 0.148659 0.984058
vt 0.240341 0.653009
vt 0.249548 0.678074
vt 0.277048 0.602724
vt 0.263463 0.541090
vt 0.270625 0.634319
vt 0.271802 0.731972
vt 0.290418 0.720863
vt 0.984820 0.641693
vt 0.895291 0.529324
vt 0.996240 0.540744
vt 0.899464 0.616129
vt 0.785063 0.536329
vt 0.647785 0.616193
vt 0.709835 0.642972
vt 0.703828 0.702109
vt 0.576517 0.711364
vt 0.653665 0.775816
vt 0.771802 0.731972
vt 0.736936 0.792719
vt 0.527551 0.831487
vt 0.629480 0.873878
vt 0.507598 0.971658
vt 0.805138 0.980933
vt 0.761007 0.955454
vt 0.761007 0.938468
vt 0.826986 0.697666
vt 0.823085 0.629529
vt 0.722006 0.867286
vt 0.950816 0.698595
vt 0.890211 0.684981
vt 0.785421 0.653991
vt 0.808750 0.709356
vt 0.733475 0.949104
vt 0.648659 0.984058
vt 0.740341 0.653009
vt 0.749547 0.678074
vt 0.777048 0.602724
vt 0.763463 0.541090
vt 0.770625 0.634319
vt 0.790418 0.720863
vt 0.162931 0.099755
vt 0.261007 0.404495
vt 0.305138 0.379016
vt 0.261007 0.421481
vt 0.349269 0.404495
vt 0.349269 0.455454
vt 0.450816 0.198595
vt 0.162931 0.599755
vt 0.261007 0.904495
vt 0.305138 0.879016
vt 0.261007 0.921481
vt 0.349269 0.904495
vt 0.349269 0.955454
vt 0.450816 0.698595
vt 0.662931 0.599755
vt 0.761007 0.904495
vt 0.805138 0.879016
vt 0.761007 0.921481
vt 0.849269 0.904495
vt 0.849270 0.955454
vt 0.324756 0.332902
vt 0.356220 0.322156
vt 0.358021 0.333588
vt 0.404939 0.330357
vt 0.393601 0.252216
vt 0.404939 0.245711
vt 0.365987 0.227067
vt 0.369281 0.211632
vt 0.301279 0.263519
vt 0.334570 0.317395
vt 0.315878 0.221264
vt 0.314737 0.262733
vt 0.327345 0.231687
vt 0.381656 0.332953
vt 0.395126 0.319708
vt 0.375673 0.320933
vt 0.324756 0.832902
vt 0.356220 0.822156
vt 0.358021 0.833588
vt 0.404939 0.830357
vt 0.393601 0.752216
vt 0.404939 0.745711
vt 0.365987 0.727067
vt 0.369281 0.711632
vt 0.301279 0.763519
vt 0.334570 0.817395
vt 0.315878 0.721264
vt 0.314737 0.762733
vt 0.327345 0.731687
vt 0.381656 0.832953
vt 0.395126 0.819708
vt 0.375673 0.820933
vt 0.824756 0.832902
vt 0.856220 0.822156
vt 0.858021 0.833588
vt 0.904939 0.830357
vt 0.893601 0.752216
vt 0.904939 0.745711
vt 0.865987 0.727067
vt 0.869281 0.711632
vt 0.801279 0.763519
vt 0.834570 0.817395
vt 0.815878 0.721264
vt 0.814737 0.762733
vt 0.827345 0.731687
vt 0.881656 0.832953
vt 0.895126 0.819708
vt 0.875673 0.820933
vt 0.406960 0.359327
vt 0.380625 0.434474
vt 0.380625 0.359327
vt 0.459631 0.434474
vt 0.433295 0.359327
vt 0.459631 0.359327
vt 0.441196 0.467393
vt 0.406960 0.859327
vt 0.380625 0.934474
vt 0.380625 0.859327
vt 0.459631 0.934474
vt 0.433295 0.859327
vt 0.459631 0.859327
vt 0.441196 0.967393
vt 0.906960 0.859327
vt 0.880625 0.934474
vt 0.880625 0.859327
vt 0.959631 0.934474
vt 0.933295 0.859327
vt 0.959631 0.859327
vt 0.941196 0.967393
vt 0.399060 0.467393
vt 0.399060 0.967393
vt 0.899060 0.967393
vn 0.0000 0.0000 1.0000
vn 0.0000 -0.9977 0.0672
vn -0.9990 0.0000 0.0438
vn 0.9990 0.0000 0.0438
vn 0.9977 0.0000 0.0672
vn 0.0000 0.9977 0.0672
vn 0.0000 0.9990 0.0438
vn 0.0000 -0.9990 0.0438
vn -0.9977 0.0000 0.0672
vn 0.4766 0.8256 0.3020
vn 1.0000 0.0000 0.0000
vn 0.5000 0.8660 0.0000
vn 0.9533 0.0000 0.3020
vn 0.5000 -0.8660 0.0000
vn -0.5000 -0.8660 0.0000
vn 0.6190 -0.7686 -0.1615
vn -0.4766 -0.8256 0.3020
vn -1.0000 0.0000 0.0000
vn -0.9533 0.0000 0.3020
vn -0.2675 -0.4634 0.8448
vn -0.5350 0.0000 0.8448
vn -0.5000 0.8660 0.0000
vn -0.4766 0.8256 0.3020
vn 0.0000 -0.4639 0.8858
vn 0.2675 -0.4634 0.8448
vn 0.4766 -0.8256 0.3020
vn -0.2675 0.4634 0.8448
vn 0.5350 0.0000 0.8448
vn 0.0000 -0.9544 0.2983
vn 0.2675 0.4634 0.8448
vn 0.2741 -0.8403 -0.4676
vn -0.6190 -0.7686 -0.1615
vn -0.5773 -0.5773 0.5773
vn -0.2741 -0.8403 -0.4676
vn 0.5773 -0.5773 0.5773
vn 0.0000 -0.7071 0.7071
vn 0.7316 -0.6544 -0.1909
vn 0.4010 -0.6090 -0.6843
vn -0.7316 -0.6544 -0.1909
vn -0.4010 -0.6090 -0.6843
s off
f 121/1/1 119/2/1 120/3/1
f 122/4/2 127/5/2 119/6/2
f 115/7/3 123/8/3 117/9/3
f 118/10/4 125/11/4 116/12/4
f 119/13/5 128/14/5 120/15/5
f 123/16/1 130/17/1 126/18/1
f 125/19/1 128/20/1 124/21/1
f 126/18/1 129/22/1 125/19/1
f 124/21/1 127/23/1 123/16/1
f 120/15/6 129/24/6 121/25/6
f 117/26/7 126/27/7 118/10/7
f 116/28/8 124/29/8 115/7/8
f 121/30/9 130/31/9 122/4/9
f 121/1/1 122/32/1 119/2/1
f 122/4/2 130/31/2 127/5/2
f 115/7/3 124/29/3 123/8/3
f 118/10/4 126/27/4 125/11/4
f 119/13/5 127/33/5 128/14/5
f 123/16/1 127/23/1 130/17/1
f 125/19/1 129/22/1 128/20/1
f 126/18/1 130/17/1 129/22/1
f 124/21/1 128/20/1 127/23/1
f 120/15/6 128/14/6 129/24/6
f 117/26/7 123/34/7 126/27/7
f 116/28/8 125/35/8 124/29/8
f 121/30/9 129/36/9 130/31/9
s 1
f 2/37/10 3/38/11 1/39/12
f 4/40/13 5/41/14 3/38/11
f 7/42/15 22/43/16 8/44/17
f 8/44/17 9/45/18 7/42/15
f 10/46/19 16/47/20 17/48/21
f 10/46/19 11/49/22 9/45/18
f 12/50/23 1/51/12 11/49/22
f 17/52/21 16/53/20 29/54/24
f 4/40/13 15/55/25 6/56/26
f 12/50/23 17/48/21 18/57/27
f 2/37/10 14/58/28 4/40/13
f 28/59/29 15/55/25 30/60/24
f 2/61/10 18/57/27 13/62/30
f 8/44/17 33/63/31 27/64/29
f 5/41/14 20/65/32 19/66/33
f 6/56/26 34/67/34 20/65/32
f 27/64/29 34/67/34 28/59/29
f 27/64/29 16/47/20 8/44/17
f 28/59/29 29/68/24 27/64/29
f 40/69/10 41/70/11 39/71/12
f 42/72/13 43/73/14 41/70/11
f 45/74/15 60/75/16 46/76/17
f 46/76/17 47/77/18 45/74/15
f 46/76/17 55/78/21 48/79/19
f 48/79/19 49/80/22 47/77/18
f 50/81/23 39/82/12 49/80/22
f 55/83/21 54/84/20 67/85/24
f 44/86/26 52/87/28 53/88/25
f 48/79/19 56/89/27 50/81/23
f 40/69/10 52/87/28 42/72/13
f 66/90/29 53/88/25 68/91/24
f 50/81/23 51/92/30 40/93/10
f 46/76/17 71/94/31 65/95/29
f 43/73/14 58/96/32 57/97/33
f 44/86/26 72/98/34 58/96/32
f 65/95/29 72/98/34 66/90/29
f 65/95/29 54/99/20 46/76/17
f 66/90/29 67/100/24 65/95/29
f 78/101/10 79/102/11 77/103/12
f 80/104/13 81/105/14 79/102/11
f 83/106/15 98/107/16 84/108/17
f 84/108/17 85/109/18 83/106/15
f 86/110/19 92/111/20 93/112/21
f 86/110/19 87/113/22 85/109/18
f 88/114/23 77/115/12 87/113/22
f 93/116/21 92/117/20 105/118/24
f 80/104/13 91/119/25 82/120/26
f 86/110/19 94/121/27 88/114/23
f 80/104/13 89/122/30 90/123/28
f 104/124/29 91/119/25 106/125/24
f 88/114/23 89/126/30 78/127/10
f 84/108/17 109/128/31 103/129/29
f 81/105/14 96/130/32 95/131/33
f 82/120/26 110/132/34 96/130/32
f 103/129/29 110/132/34 104/124/29
f 103/129/29 92/111/20 84/108/17
f 104/124/29 105/133/24 103/129/29
f 2/37/10 4/40/13 3/38/11
f 4/40/13 6/56/26 5/41/14
f 7/42/15 21/134/35 22/43/16
f 8/44/17 10/46/19 9/45/18
f 10/46/19 8/44/17 16/47/20
f 10/46/19 12/50/23 11/49/22
f 12/50/23 2/61/10 1/51/12
f 15/135/25 14/136/28 30/137/24
f 14/136/28 13/138/30 30/137/24
f 13/138/30 18/139/27 30/137/24
f 18/139/27 17/52/21 29/54/24
f 30/137/24 18/139/27 29/54/24
f 4/40/13 14/58/28 15/55/25
f 12/50/23 10/46/19 17/48/21
f 2/37/10 13/140/30 14/58/28
f 28/59/29 6/56/26 15/55/25
f 2/61/10 12/50/23 18/57/27
f 8/44/17 22/43/16 33/63/31
f 5/41/14 6/56/26 20/65/32
f 6/56/26 28/59/29 34/67/34
f 27/64/29 33/63/31 34/67/34
f 27/64/29 29/68/24 16/47/20
f 28/59/29 30/60/24 29/68/24
f 40/69/10 42/72/13 41/70/11
f 42/72/13 44/86/26 43/73/14
f 45/74/15 59/141/35 60/75/16
f 46/76/17 48/79/19 47/77/18
f 46/76/17 54/99/20 55/78/21
f 48/79/19 50/81/23 49/80/22
f 50/81/23 40/93/10 39/82/12
f 53/142/25 52/143/28 68/144/24
f 52/143/28 51/145/30 68/144/24
f 51/145/30 56/146/27 68/144/24
f 56/146/27 55/83/21 67/85/24
f 68/144/24 56/146/27 67/85/24
f 44/86/26 42/72/13 52/87/28
f 48/79/19 55/78/21 56/89/27
f 40/69/10 51/147/30 52/87/28
f 66/90/29 44/86/26 53/88/25
f 50/81/23 56/89/27 51/92/30
f 46/76/17 60/75/16 71/94/31
f 43/73/14 44/86/26 58/96/32
f 44/86/26 66/90/29 72/98/34
f 65/95/29 71/94/31 72/98/34
f 65/95/29 67/100/24 54/99/20
f 66/90/29 68/91/24 67/100/24
f 78/101/10 80/104/13 79/102/11
f 80/104/13 82/120/26 81/105/14
f 83/106/15 97/148/35 98/107/16
f 84/108/17 86/110/19 85/109/18
f 86/110/19 84/108/17 92/111/20
f 86/110/19 88/114/23 87/113/22
f 88/114/23 78/127/10 77/115/12
f 91/149/25 90/150/28 106/151/24
f 90/150/28 89/152/30 106/151/24
f 89/152/30 94/153/27 106/151/24
f 94/153/27 93/116/21 105/118/24
f 106/151/24 94/153/27 105/118/24
f 80/104/13 90/123/28 91/119/25
f 86/110/19 93/112/21 94/121/27
f 80/104/13 78/101/10 89/122/30
f 104/124/29 82/120/26 91/119/25
f 88/114/23 94/121/27 89/126/30
f 84/108/17 98/107/16 109/128/31
f 81/105/14 82/120/26 96/130/32
f 82/120/26 104/124/29 110/132/34
f 103/129/29 109/128/31 110/132/34
f 103/129/29 105/133/24 92/111/20
f 104/124/29 106/125/24 105/133/24
f 19/154/33 35/155/36 31/156/1
f 21/157/35 26/158/37 22/159/16
f 22/159/16 37/160/38 33/161/31
f 20/162/32 23/163/33 19/154/33
f 34/164/34 24/165/39 20/162/32
f 33/161/31 38/166/40 34/164/34
f 32/167/1 25/168/35 21/157/35
f 31/156/1 36/169/36 32/167/1
f 57/170/33 73/171/36 69/172/1
f 59/173/35 64/174/37 60/175/16
f 60/175/16 75/176/38 71/177/31
f 58/178/32 61/179/33 57/170/33
f 72/180/34 62/181/39 58/178/32
f 71/177/31 76/182/40 72/180/34
f 70/183/1 63/184/35 59/173/35
f 70/183/1 73/171/36 74/185/36
f 95/186/33 111/187/36 107/188/1
f 97/189/35 102/190/37 98/191/16
f 98/191/16 113/192/38 109/193/31
f 96/194/32 99/195/33 95/186/33
f 110/196/34 100/197/39 96/194/32
f 109/193/31 114/198/40 110/196/34
f 108/199/1 101/200/35 97/189/35
f 108/199/1 111/187/36 112/201/36
f 19/154/33 23/163/33 35/155/36
f 21/157/35 25/168/35 26/158/37
f 22/159/16 26/158/37 37/160/38
f 20/162/32 24/165/39 23/163/33
f 34/164/34 38/166/40 24/165/39
f 33/161/31 37/160/38 38/166/40
f 32/167/1 36/169/36 25/168/35
f 31/156/1 35/155/36 36/169/36
f 57/170/33 61/179/33 73/171/36
f 59/173/35 63/184/35 64/174/37
f 60/175/16 64/174/37 75/176/38
f 58/178/32 62/181/39 61/179/33
f 72/180/34 76/182/40 62/181/39
f 71/177/31 75/176/38 76/182/40
f 70/183/1 74/185/36 63/184/35
f 70/183/1 69/172/1 73/171/36
f 95/186/33 99/195/33 111/187/36
f 97/189/35 101/200/35 102/190/37
f 98/191/16 102/190/37 113/192/38
f 96/194/32 100/197/39 99/195/33
f 110/196/34 114/198/40 100/197/39
f 109/193/31 113/192/38 114/198/40
f 108/199/1 112/201/36 101/200/35
f 108/199/1 107/188/1 111/187/36
f 36/202/36 26/203/37 25/204/35
f 24/205/39 35/206/36 23/207/33
f 38/208/40 36/202/36 35/206/36
f 74/209/36 64/210/37 63/211/35
f 62/212/39 73/213/36 61/214/33
f 76/215/40 74/209/36 73/213/36
f 112/216/36 102/217/37 101/218/35
f 100/219/39 111/220/36 99/221/33
f 114/222/40 112/216/36 111/220/36
f 36/202/36 37/223/38 26/203/37
f 24/205/39 38/208/40 35/206/36
f 38/208/40 37/223/38 36/202/36
f 74/209/36 75/224/38 64/210/37
f 62/212/39 76/215/40 73/213/36
f 76/215/40 75/224/38 74/209/36
f 112/216/36 113/225/38 102/217/37
f 100/219/39 114/222/40 111/220/36
f 114/222/40 113/225/38 112/216/36
