# Blender v3.0.1 OBJ File: 'bed.blend'
# www.blender.org
o Cube
v -0.200000 -0.200000 0.000000
v -0.200000 -0.200000 0.200000
v -0.200000 0.200000 0.000000
v -0.200000 0.200000 0.200000
v 0.200000 -0.200000 0.000000
v 0.200000 -0.200000 0.200000
v 0.200000 0.200000 0.000000
v 0.200000 0.200000 0.200000
v -0.500000 -0.250000 0.200000
v -0.500000 -0.250000 0.240000
v -0.500000 0.250000 0.200000
v -0.500000 0.250000 0.240000
v 0.500000 -0.250000 0.200000
v 0.500000 -0.250000 0.240000
v 0.500000 0.250000 0.200000
v 0.500000 0.250000 0.240000
vt 0.187500 0.812500
vt 0.101562 0.992188
vt 0.101562 0.812500
vt 0.007812 0.992188
vt 0.101562 0.812500
vt 0.007812 0.812500
vt 0.101562 0.632812
vt 0.187500 0.632812
vt 0.953125 0.773438
vt 0.937500 0.992188
vt 0.937500 0.773438
vt 0.968750 0.320312
vt 0.953125 0.773438
vt 0.953125 0.320312
vt 0.968750 0.773438
vt 0.953125 0.992188
vt 0.953125 0.320312
vt 0.937500 0.320312
vt 0.000000 0.226562
vt 0.445312 0.000000
vt 0.445312 0.226562
vt 0.445312 0.226562
vt 0.000000 0.445312
vt 0.000000 0.226562
vt 0.187500 0.992188
vt 0.007812 0.632812
vt 0.953125 0.992188
vt 0.968750 0.992188
vt 0.000000 0.000000
vt 0.445312 0.445312
vn -1.0000 0.0000 0.0000
vn 0.0000 1.0000 0.0000
vn 1.0000 0.0000 0.0000
vn 0.0000 -1.0000 0.0000
vn 0.0000 0.0000 -1.0000
vn 0.0000 0.0000 1.0000
s off
f 2/1/1 3/2/1 1/3/1
f 4/4/2 7/5/2 3/2/2
f 8/6/3 5/7/3 7/5/3
f 6/8/4 1/3/4 5/7/4
f 10/9/1 11/10/1 9/11/1
f 12/12/2 15/13/2 11/14/2
f 16/15/3 13/16/3 15/13/3
f 14/17/4 9/11/4 13/18/4
f 15/19/5 9/20/5 11/21/5
f 12/22/6 14/23/6 16/24/6
f 2/1/1 4/25/1 3/2/1
f 4/4/2 8/6/2 7/5/2
f 8/6/3 6/26/3 5/7/3
f 6/8/4 2/1/4 1/3/4
f 10/9/1 12/27/1 11/10/1
f 12/12/2 16/15/2 15/13/2
f 16/15/3 14/28/3 13/16/3
f 14/17/4 10/9/4 9/11/4
f 15/19/5 13/29/5 9/20/5
f 12/22/6 10/30/6 14/23/6
o Cube.001
v -0.189050 -0.225000 0.233472
v -0.194684 -0.213003 0.285560
v -0.189050 0.225000 0.233472
v -0.194684 0.213003 0.285560
v 0.432813 -0.213003 0.233000
v 0.424220 -0.207005 0.284841
v 0.432813 0.213003 0.233000
v 0.424220 0.207005 0.284841
v 0.199012 -0.184017 0.282916
v 0.201574 -0.178835 0.316855
v 0.199012 0.184017 0.282916
v 0.201574 0.178835 0.316855
v 0.380966 -0.184017 0.282916
v 0.378404 -0.178835 0.316855
v 0.380966 0.184017 0.282916
v 0.378404 0.178835 0.316855
v -0.454380 -0.225663 0.233000
v -0.443821 -0.217143 0.295323
v -0.454380 0.225663 0.233000
v -0.443821 0.217143 0.295323
v 0.141664 -0.225663 0.233000
v 0.131106 -0.217143 0.295323
v 0.141664 0.225663 0.233000
v 0.131106 0.217143 0.295323
v -0.194684 -0.225000 0.260000
v -0.194684 0.000000 0.287000
v -0.194684 0.225000 0.260000
v 0.127658 0.225000 0.233000
v 0.127658 0.213003 0.285560
v 0.432813 0.213003 0.260000
v 0.450000 0.000000 0.233000
v 0.432813 0.000000 0.285560
v 0.432813 -0.213003 0.260000
v 0.127658 -0.225000 0.233000
v 0.127658 -0.213003 0.285560
v 0.193888 0.000000 0.282916
v 0.199012 -0.184017 0.300592
v 0.199012 -0.000000 0.317326
v 0.199012 0.184017 0.300592
v 0.289989 0.194381 0.282916
v 0.289989 0.184017 0.317326
v 0.380966 0.184017 0.300592
v 0.386090 0.000000 0.282916
v 0.380966 0.000000 0.317326
v 0.380966 -0.184017 0.300592
v 0.289989 -0.194381 0.282916
v 0.289989 -0.184017 0.317326
v -0.471165 0.000000 0.233000
v -0.453218 -0.224502 0.265460
v -0.452122 0.000000 0.296188
v -0.453218 0.224502 0.265460
v -0.156358 0.238373 0.233000
v -0.156358 0.223405 0.296188
v 0.140503 0.224502 0.265460
v 0.158450 0.000000 0.233000
v 0.139407 -0.000000 0.296188
v 0.140503 -0.224502 0.265460
v -0.156358 -0.238373 0.233000
v -0.156358 -0.223405 0.296188
v 0.127658 0.225000 0.260000
v 0.450000 -0.000000 0.260000
v 0.127658 -0.225000 0.260000
v 0.127658 -0.000000 0.287000
v 0.193888 -0.000000 0.300592
v 0.289989 0.194381 0.300592
v 0.386090 0.000000 0.300592
v 0.289989 -0.194381 0.300592
v 0.289989 0.000000 0.318269
v -0.469938 -0.000000 0.265460
v -0.156358 0.237146 0.265460
v 0.157223 0.000000 0.265460
v -0.156358 -0.237146 0.265460
v -0.156358 0.000000 0.297919
vt 0.875000 0.085938
vt 0.689453 0.148438
vt 0.675781 0.132813
vt 0.882812 0.117188
vt 0.878906 0.101563
vt 0.537175 0.213111
vt 0.510726 0.198228
vt 0.476562 0.179688
vt 0.511719 0.296875
vt 0.484375 0.296875
vt 0.564182 0.380657
vt 0.532289 0.395730
vt 0.492188 0.414062
vt 0.683594 0.468750
vt 0.701172 0.449219
vt 0.882812 0.476562
vt 0.878906 0.500000
vt 0.875000 0.523438
vt 0.710938 0.296875
vt 0.546769 0.296875
vt 0.702813 0.170311
vt 0.882813 0.296875
vt 0.717396 0.423647
vt 0.376303 0.702449
vt 0.390625 0.625000
vt 0.390625 0.718750
vt 0.364954 0.690258
vt 0.378906 0.623047
vt 0.364954 0.552214
vt 0.376303 0.543332
vt 0.390625 0.531250
vt 0.330078 0.535156
vt 0.332031 0.523438
vt 0.291609 0.551636
vt 0.283854 0.536040
vt 0.273438 0.515625
vt 0.281250 0.617188
vt 0.273438 0.613281
vt 0.291609 0.689955
vt 0.283853 0.698647
vt 0.273438 0.710938
vt 0.332031 0.714844
vt 0.330078 0.705078
vt 0.328125 0.621094
vt 0.290729 0.620885
vt 0.328229 0.550207
vt 0.328229 0.691876
vt 0.365730 0.621198
vt 0.665939 0.551300
vt 0.562500 0.535156
vt 0.695312 0.523438
vt 0.643024 0.571957
vt 0.558594 0.554688
vt 0.467583 0.593226
vt 0.451457 0.573279
vt 0.429688 0.546875
vt 0.429688 0.707031
vt 0.447266 0.707031
vt 0.474476 0.819275
vt 0.455155 0.839742
vt 0.429688 0.867188
vt 0.562500 0.859375
vt 0.562500 0.839844
vt 0.649918 0.804605
vt 0.669637 0.824742
vt 0.695312 0.851562
vt 0.695313 0.687500
vt 0.673828 0.687500
vt 0.558594 0.697266
vt 0.562292 0.814793
vt 0.468905 0.706511
vt 0.648491 0.688021
vt 0.555104 0.579738
vn 0.0000 1.0000 0.0000
vn 0.0153 0.9766 0.2145
vn 0.0197 0.9998 0.0000
vn 0.0000 0.5391 0.8422
vn 0.0000 0.9724 0.2332
vn 0.4559 0.5161 0.7250
vn 0.6890 0.7016 0.1815
vn 0.6924 0.7215 0.0000
vn 0.9604 0.0000 0.2785
vn 1.0000 0.0000 0.0000
vn 0.4559 -0.5161 0.7250
vn 0.6890 -0.7016 0.1815
vn 0.6924 -0.7215 0.0000
vn 0.0197 -0.9998 0.0000
vn 0.0153 -0.9766 0.2145
vn 0.0000 -0.5391 0.8422
vn 0.0000 -0.9724 0.2332
vn 0.0000 -1.0000 0.0000
vn 0.0017 0.0000 1.0000
vn 0.4812 0.0000 0.8766
vn 0.0065 0.5413 0.8408
vn 0.0000 0.0000 1.0000
vn 0.0065 -0.5413 0.8408
vn -0.7151 -0.6823 0.1519
vn -1.0000 0.0000 0.0000
vn -0.7367 -0.6762 0.0000
vn -0.5555 -0.4516 0.6981
vn -0.9896 0.0000 0.1438
vn -0.5555 0.4516 0.6981
vn -0.7151 0.6823 0.1519
vn -0.7367 0.6762 0.0000
vn 0.0000 0.9668 0.2557
vn 0.5555 0.4516 0.6981
vn 0.7151 0.6823 0.1519
vn 0.7367 0.6762 0.0000
vn 0.9896 0.0000 0.1438
vn 0.5555 -0.4516 0.6981
vn 0.7151 -0.6823 0.1519
vn 0.7367 -0.6762 0.0000
vn 0.0000 -0.9668 0.2557
vn 0.6017 0.0000 0.7987
vn 0.0000 0.5015 0.8651
vn 0.0000 -0.5015 0.8651
vn -0.6017 0.0000 0.7987
vn -0.6871 -0.6986 0.1994
vn -0.9993 0.0000 0.0378
vn -0.6952 -0.7170 0.0505
vn -0.4693 -0.5115 0.7198
vn -0.9639 0.0000 0.2661
vn -0.4693 0.5115 0.7198
vn -0.6871 0.6986 0.1994
vn -0.6952 0.7170 0.0505
vn 0.0000 0.9993 0.0377
vn 0.0000 0.9754 0.2205
vn 0.4693 0.5115 0.7198
vn 0.6871 0.6986 0.1994
vn 0.6952 0.7170 0.0505
vn 0.9993 0.0000 0.0378
vn 0.9639 0.0000 0.2661
vn 0.4693 -0.5115 0.7198
vn 0.6871 -0.6986 0.1994
vn 0.6952 -0.7170 0.0505
vn 0.0000 -0.9993 0.0377
vn 0.0000 -0.9754 0.2205
vn 0.5101 0.0000 0.8601
vn 0.0000 0.5519 0.8339
vn 0.0000 -0.5519 0.8339
vn -0.5101 0.0000 0.8601
s 1
f 19/31/7 76/32/8 44/33/9
f 20/34/10 76/32/8 43/35/11
f 76/32/8 24/36/12 46/37/13
f 44/33/9 46/37/13 23/38/14
f 23/38/14 77/39/15 47/40/16
f 24/36/12 77/39/15 46/37/13
f 77/39/15 22/41/17 49/42/18
f 77/39/15 21/43/19 47/40/16
f 49/42/18 50/44/20 21/43/19
f 22/41/17 78/45/21 49/42/18
f 78/45/21 18/46/22 41/47/23
f 78/45/21 17/48/24 50/44/20
f 24/36/12 79/49/25 48/50/26
f 20/34/10 79/49/25 45/51/27
f 42/52/28 51/53/29 79/49/25
f 79/49/25 22/41/17 48/50/26
f 53/54/30 52/55/31 25/56/32
f 26/57/33 80/58/34 53/54/30
f 80/58/34 28/59/35 55/60/36
f 52/55/31 55/60/36 27/61/37
f 27/61/37 81/62/38 56/63/7
f 28/59/35 81/62/38 55/60/36
f 81/62/38 32/64/39 58/65/40
f 56/63/7 58/65/40 31/66/41
f 31/66/41 82/67/42 59/68/16
f 32/64/39 82/67/42 58/65/40
f 82/67/42 30/69/43 61/70/44
f 59/68/16 61/70/44 29/71/45
f 61/70/44 62/72/24 29/71/45
f 30/69/43 83/73/46 61/70/44
f 83/73/46 26/57/33 53/54/30
f 83/73/46 25/56/32 62/72/24
f 32/64/39 84/74/28 60/75/47
f 28/59/35 84/74/28 57/76/48
f 84/74/28 26/57/33 63/77/49
f 84/74/28 30/69/43 60/75/47
f 19/31/7 43/35/11 76/32/8
f 20/34/10 45/51/27 76/32/8
f 76/32/8 45/51/27 24/36/12
f 44/33/9 76/32/8 46/37/13
f 23/38/14 46/37/13 77/39/15
f 24/36/12 48/50/26 77/39/15
f 77/39/15 48/50/26 22/41/17
f 77/39/15 49/42/18 21/43/19
f 49/42/18 78/45/21 50/44/20
f 22/41/17 51/53/29 78/45/21
f 78/45/21 51/53/29 18/46/22
f 78/45/21 41/47/23 17/48/24
f 24/36/12 45/51/27 79/49/25
f 20/34/10 42/52/28 79/49/25
f 42/52/28 18/46/22 51/53/29
f 79/49/25 51/53/29 22/41/17
f 53/54/30 80/58/34 52/55/31
f 26/57/33 54/78/50 80/58/34
f 80/58/34 54/78/50 28/59/35
f 52/55/31 80/58/34 55/60/36
f 27/61/37 55/60/36 81/62/38
f 28/59/35 57/76/48 81/62/38
f 81/62/38 57/76/48 32/64/39
f 56/63/7 81/62/38 58/65/40
f 31/66/41 58/65/40 82/67/42
f 32/64/39 60/75/47 82/67/42
f 82/67/42 60/75/47 30/69/43
f 59/68/16 82/67/42 61/70/44
f 61/70/44 83/73/46 62/72/24
f 30/69/43 63/77/49 83/73/46
f 83/73/46 63/77/49 26/57/33
f 83/73/46 53/54/30 25/56/32
f 32/64/39 57/76/48 84/74/28
f 28/59/35 54/78/50 84/74/28
f 84/74/28 54/78/50 26/57/33
f 84/74/28 63/77/49 30/69/43
f 65/79/51 64/80/52 33/81/53
f 34/82/54 85/83/55 65/79/51
f 85/83/55 36/84/56 67/85/57
f 64/80/52 67/85/57 35/86/58
f 67/85/57 68/87/59 35/86/58
f 36/84/56 86/88/60 67/85/57
f 86/88/60 40/89/61 70/90/62
f 68/87/59 70/90/62 39/91/63
f 70/90/62 71/92/64 39/91/63
f 40/89/61 87/93/65 70/90/62
f 87/93/65 38/94/66 73/95/67
f 71/92/64 73/95/67 37/96/68
f 73/95/67 74/97/69 37/96/68
f 38/94/66 88/98/70 73/95/67
f 88/98/70 34/82/54 65/79/51
f 74/97/69 65/79/51 33/81/53
f 40/89/61 89/99/28 72/100/71
f 36/84/56 89/99/28 69/101/72
f 89/99/28 34/82/54 75/102/73
f 89/99/28 38/94/66 72/100/71
f 65/79/51 85/83/55 64/80/52
f 34/82/54 66/103/74 85/83/55
f 85/83/55 66/103/74 36/84/56
f 64/80/52 85/83/55 67/85/57
f 67/85/57 86/88/60 68/87/59
f 36/84/56 69/101/72 86/88/60
f 86/88/60 69/101/72 40/89/61
f 68/87/59 86/88/60 70/90/62
f 70/90/62 87/93/65 71/92/64
f 40/89/61 72/100/71 87/93/65
f 87/93/65 72/100/71 38/94/66
f 71/92/64 87/93/65 73/95/67
f 73/95/67 88/98/70 74/97/69
f 38/94/66 75/102/73 88/98/70
f 88/98/70 75/102/73 34/82/54
f 74/97/69 88/98/70 65/79/51
f 40/89/61 69/101/72 89/99/28
f 36/84/56 66/103/74 89/99/28
f 89/99/28 66/103/74 34/82/54
f 89/99/28 75/102/73 38/94/66
