{
    "asset" : {
        "generator" : "Khronos glTF Blender I/O v1.7.33",
        "version" : "2.0"
    },
    "scene" : 0,
    "scenes" : [
        {
            "name" : "Scene",
            "nodes" : [
                12
            ]
        }
    ],
    "nodes" : [
        {
            "name" : "Bone.001",
            "rotation" : [
                1.976107100176705e-08,
                -1.2108699820601032e-08,
                0.6720536947250366,
                0.7405024766921997
            ],
            "scale" : [
                0.9999999403953552,
                0.9999999403953552,
                1
            ],
            "translation" : [
                -0.1681588888168335,
                0.46954143047332764,
                3.96915078582083e-09
            ]
        },
        {
            "name" : "Bone.002",
            "rotation" : [
                1.7980754307700408e-07,
                2.403122891792009e-07,
                -0.5093991160392761,
                0.8605303764343262
            ],
            "translation" : [
                0.14657092094421387,
                0.5956605672836304,
                2.091437423246134e-08
            ]
        },
        {
            "name" : "Bone.003",
            "rotation" : [
                1.2125148884933878e-07,
                1.0569115715952648e-07,
                -0.8944271206855774,
                0.4472138285636902
            ],
            "scale" : [
                1.0000003576278687,
                1.0000001192092896,
                1
            ],
            "translation" : [
                0.0568104162812233,
                0.4684051275253296,
                3.816482241347785e-09
            ]
        },
        {
            "name" : "Bone.004",
            "rotation" : [
                4.087823128884338e-07,
                3.454456987128651e-07,
                -0.7814304232597351,
                0.6239925026893616
            ],
            "scale" : [
                1.0000001192092896,
                1.0000001192092896,
                1
            ],
            "translation" : [
                0.2556469440460205,
                0.3956878185272217,
                -5.9537295094003184e-09
            ]
        },
        {
            "name" : "Bone.005",
            "rotation" : [
                -6.090691506699386e-09,
                -4.862755176304745e-08,
                0.9227296710014343,
                0.38544780015945435
            ],
            "scale" : [
                1.0000001192092896,
                1,
                1
            ],
            "translation" : [
                -0.14202609658241272,
                0.2547979950904846,
                -2.488352457419296e-08
            ]
        },
        {
            "name" : "Bone.006",
            "rotation" : [
                4.3826588580486714e-08,
                3.133637349606033e-08,
                0.33791324496269226,
                0.9411773681640625
            ],
            "translation" : [
                -0.11475708335638046,
                0.7126900553703308,
                3.663831904532344e-08
            ]
        },
        {
            "name" : "Bone.007",
            "rotation" : [
                1.451118407658214e-07,
                1.1446939396364542e-07,
                -0.9104266166687012,
                0.4136706292629242
            ],
            "translation" : [
                0.21133483946323395,
                0.25366175174713135,
                -2.5036186457327858e-08
            ]
        },
        {
            "name" : "Bone.008",
            "rotation" : [
                2.2487445505703363e-07,
                1.3777933816072618e-07,
                -0.937488317489624,
                0.3480166792869568
            ],
            "scale" : [
                1.0000001192092896,
                1,
                1
            ],
            "translation" : [
                0.1420261114835739,
                0.10254599153995514,
                -4.533992736810433e-08
            ]
        },
        {
            "name" : "Bone.009",
            "rotation" : [
                1.0265092242889295e-07,
                1.9013404539691692e-07,
                -0.20474697649478912,
                0.978814959526062
            ],
            "scale" : [
                1,
                0.9999999403953552,
                1
            ],
            "translation" : [
                0.240876242518425,
                0.7217797040939331,
                3.7859592794120545e-08
            ]
        },
        {
            "name" : "Bone.010",
            "rotation" : [
                1.3088780725922788e-08,
                7.107137633965976e-08,
                0.4297715425491333,
                0.902937650680542
            ],
            "translation" : [
                -0.24201245605945587,
                0.7297331690788269,
                3.892820998885327e-08
            ]
        },
        {
            "children" : [
                0,
                1,
                2,
                3,
                4,
                5,
                6,
                7,
                8,
                9
            ],
            "name" : "Bone",
            "rotation" : [
                0.7071068286895752,
                0,
                0,
                0.7071068286895752
            ]
        },
        {
            "mesh" : 0,
            "name" : "Icosphere.004",
            "skin" : 0
        },
        {
            "children" : [
                11,
                10
            ],
            "name" : "Armature"
        }
    ],
    "animations" : [
        {
            "channels" : [
                {
                    "sampler" : 0,
                    "target" : {
                        "node" : 10,
                        "path" : "translation"
                    }
                },
                {
                    "sampler" : 1,
                    "target" : {
                        "node" : 10,
                        "path" : "rotation"
                    }
                },
                {
                    "sampler" : 2,
                    "target" : {
                        "node" : 0,
                        "path" : "translation"
                    }
                },
                {
                    "sampler" : 3,
                    "target" : {
                        "node" : 0,
                        "path" : "rotation"
                    }
                },
                {
                    "sampler" : 4,
                    "target" : {
                        "node" : 1,
                        "path" : "translation"
                    }
                },
                {
                    "sampler" : 5,
                    "target" : {
                        "node" : 1,
                        "path" : "rotation"
                    }
                },
                {
                    "sampler" : 6,
                    "target" : {
                        "node" : 2,
                        "path" : "translation"
                    }
                },
                {
                    "sampler" : 7,
                    "target" : {
                        "node" : 2,
                        "path" : "rotation"
                    }
                },
                {
                    "sampler" : 8,
                    "target" : {
                        "node" : 3,
                        "path" : "translation"
                    }
                },
                {
                    "sampler" : 9,
                    "target" : {
                        "node" : 3,
                        "path" : "rotation"
                    }
                },
                {
                    "sampler" : 10,
                    "target" : {
                        "node" : 4,
                        "path" : "translation"
                    }
                },
                {
                    "sampler" : 11,
                    "target" : {
                        "node" : 4,
                        "path" : "rotation"
                    }
                },
                {
                    "sampler" : 12,
                    "target" : {
                        "node" : 5,
                        "path" : "translation"
                    }
                },
                {
                    "sampler" : 13,
                    "target" : {
                        "node" : 5,
                        "path" : "rotation"
                    }
                },
                {
                    "sampler" : 14,
                    "target" : {
                        "node" : 6,
                        "path" : "translation"
                    }
                },
                {
                    "sampler" : 15,
                    "target" : {
                        "node" : 6,
                        "path" : "rotation"
                    }
                },
                {
                    "sampler" : 16,
                    "target" : {
                        "node" : 7,
                        "path" : "translation"
                    }
                },
                {
                    "sampler" : 17,
                    "target" : {
                        "node" : 7,
                        "path" : "rotation"
                    }
                },
                {
                    "sampler" : 18,
                    "target" : {
                        "node" : 8,
                        "path" : "translation"
                    }
                },
                {
                    "sampler" : 19,
                    "target" : {
                        "node" : 8,
                        "path" : "rotation"
                    }
                },
                {
                    "sampler" : 20,
                    "target" : {
                        "node" : 9,
                        "path" : "translation"
                    }
                },
                {
                    "sampler" : 21,
                    "target" : {
                        "node" : 9,
                        "path" : "rotation"
                    }
                }
            ],
            "name" : "Animation",
            "samplers" : [
                {
                    "input" : 7,
                    "interpolation" : "LINEAR",
                    "output" : 8
                },
                {
                    "input" : 7,
                    "interpolation" : "LINEAR",
                    "output" : 9
                },
                {
                    "input" : 7,
                    "interpolation" : "LINEAR",
                    "output" : 10
                },
                {
                    "input" : 7,
                    "interpolation" : "LINEAR",
                    "output" : 11
                },
                {
                    "input" : 7,
                    "interpolation" : "LINEAR",
                    "output" : 12
                },
                {
                    "input" : 7,
                    "interpolation" : "LINEAR",
                    "output" : 13
                },
                {
                    "input" : 7,
                    "interpolation" : "LINEAR",
                    "output" : 14
                },
                {
                    "input" : 7,
                    "interpolation" : "LINEAR",
                    "output" : 15
                },
                {
                    "input" : 7,
                    "interpolation" : "LINEAR",
                    "output" : 16
                },
                {
                    "input" : 7,
                    "interpolation" : "LINEAR",
                    "output" : 17
                },
                {
                    "input" : 7,
                    "interpolation" : "LINEAR",
                    "output" : 18
                },
                {
                    "input" : 7,
                    "interpolation" : "LINEAR",
                    "output" : 19
                },
                {
                    "input" : 7,
                    "interpolation" : "LINEAR",
                    "output" : 20
                },
                {
                    "input" : 7,
                    "interpolation" : "LINEAR",
                    "output" : 21
                },
                {
                    "input" : 7,
                    "interpolation" : "LINEAR",
                    "output" : 22
                },
                {
                    "input" : 7,
                    "interpolation" : "LINEAR",
                    "output" : 23
                },
                {
                    "input" : 7,
                    "interpolation" : "LINEAR",
                    "output" : 24
                },
                {
                    "input" : 7,
                    "interpolation" : "LINEAR",
                    "output" : 25
                },
                {
                    "input" : 7,
                    "interpolation" : "LINEAR",
                    "output" : 26
                },
                {
                    "input" : 7,
                    "interpolation" : "LINEAR",
                    "output" : 27
                },
                {
                    "input" : 7,
                    "interpolation" : "LINEAR",
                    "output" : 28
                },
                {
                    "input" : 7,
                    "interpolation" : "LINEAR",
                    "output" : 29
                }
            ]
        }
    ],
    "meshes" : [
        {
            "name" : "Icosphere.005",
            "primitives" : [
                {
                    "attributes" : {
                        "POSITION" : 0,
                        "NORMAL" : 1,
                        "TEXCOORD_0" : 2,
                        "JOINTS_0" : 3,
                        "WEIGHTS_0" : 4
                    },
                    "indices" : 5
                }
            ]
        }
    ],
    "skins" : [
        {
            "inverseBindMatrices" : 6,
            "joints" : [
                10,
                0,
                1,
                2,
                3,
                4,
                5,
                6,
                7,
                8,
                9
            ],
            "name" : "Armature"
        }
    ],
    "accessors" : [
        {
            "bufferView" : 0,
            "componentType" : 5126,
            "count" : 693,
            "max" : [
                0.35773009061813354,
                0.12316024303436279,
                0.8090064525604248
            ],
            "min" : [
                -0.35253140330314636,
                -0.0927039161324501,
                -0.021256454288959503
            ],
            "type" : "VEC3"
        },
        {
            "bufferView" : 1,
            "componentType" : 5126,
            "count" : 693,
            "type" : "VEC3"
        },
        {
            "bufferView" : 2,
            "componentType" : 5126,
            "count" : 693,
            "type" : "VEC2"
        },
        {
            "bufferView" : 3,
            "componentType" : 5121,
            "count" : 693,
            "type" : "VEC4"
        },
        {
            "bufferView" : 4,
            "componentType" : 5126,
            "count" : 693,
            "type" : "VEC4"
        },
        {
            "bufferView" : 5,
            "componentType" : 5123,
            "count" : 2640,
            "type" : "SCALAR"
        },
        {
            "bufferView" : 6,
            "componentType" : 5126,
            "count" : 11,
            "type" : "MAT4"
        },
        {
            "bufferView" : 7,
            "componentType" : 5126,
            "count" : 18,
            "max" : [
                0.7083333333333334
            ],
            "min" : [
                0
            ],
            "type" : "SCALAR"
        },
        {
            "bufferView" : 8,
            "componentType" : 5126,
            "count" : 18,
            "type" : "VEC3"
        },
        {
            "bufferView" : 9,
            "componentType" : 5126,
            "count" : 18,
            "type" : "VEC4"
        },
        {
            "bufferView" : 10,
            "componentType" : 5126,
            "count" : 18,
            "type" : "VEC3"
        },
        {
            "bufferView" : 11,
            "componentType" : 5126,
            "count" : 18,
            "type" : "VEC4"
        },
        {
            "bufferView" : 12,
            "componentType" : 5126,
            "count" : 18,
            "type" : "VEC3"
        },
        {
            "bufferView" : 13,
            "componentType" : 5126,
            "count" : 18,
            "type" : "VEC4"
        },
        {
            "bufferView" : 14,
            "componentType" : 5126,
            "count" : 18,
            "type" : "VEC3"
        },
        {
            "bufferView" : 15,
            "componentType" : 5126,
            "count" : 18,
            "type" : "VEC4"
        },
        {
            "bufferView" : 16,
            "componentType" : 5126,
            "count" : 18,
            "type" : "VEC3"
        },
        {
            "bufferView" : 17,
            "componentType" : 5126,
            "count" : 18,
            "type" : "VEC4"
        },
        {
            "bufferView" : 18,
            "componentType" : 5126,
            "count" : 18,
            "type" : "VEC3"
        },
        {
            "bufferView" : 19,
            "componentType" : 5126,
            "count" : 18,
            "type" : "VEC4"
        },
        {
            "bufferView" : 20,
            "componentType" : 5126,
            "count" : 18,
            "type" : "VEC3"
        },
        {
            "bufferView" : 21,
            "componentType" : 5126,
            "count" : 18,
            "type" : "VEC4"
        },
        {
            "bufferView" : 22,
            "componentType" : 5126,
            "count" : 18,
            "type" : "VEC3"
        },
        {
            "bufferView" : 23,
            "componentType" : 5126,
            "count" : 18,
            "type" : "VEC4"
        },
        {
            "bufferView" : 24,
            "componentType" : 5126,
            "count" : 18,
            "type" : "VEC3"
        },
        {
            "bufferView" : 25,
            "componentType" : 5126,
            "count" : 18,
            "type" : "VEC4"
        },
        {
            "bufferView" : 26,
            "componentType" : 5126,
            "count" : 18,
            "type" : "VEC3"
        },
        {
            "bufferView" : 27,
            "componentType" : 5126,
            "count" : 18,
            "type" : "VEC4"
        },
        {
            "bufferView" : 28,
            "componentType" : 5126,
            "count" : 18,
            "type" : "VEC3"
        },
        {
            "bufferView" : 29,
            "componentType" : 5126,
            "count" : 18,
            "type" : "VEC4"
        }
    ],
    "bufferViews" : [
        {
            "buffer" : 0,
            "byteLength" : 8316,
            "byteOffset" : 0
        },
        {
            "buffer" : 0,
            "byteLength" : 8316,
            "byteOffset" : 8316
        },
        {
            "buffer" : 0,
            "byteLength" : 5544,
            "byteOffset" : 16632
        },
        {
            "buffer" : 0,
            "byteLength" : 2772,
            "byteOffset" : 22176
        },
        {
            "buffer" : 0,
            "byteLength" : 11088,
            "byteOffset" : 24948
        },
        {
            "buffer" : 0,
            "byteLength" : 5280,
            "byteOffset" : 36036
        },
        {
            "buffer" : 0,
            "byteLength" : 704,
            "byteOffset" : 41316
        },
        {
            "buffer" : 0,
            "byteLength" : 72,
            "byteOffset" : 42020
        },
        {
            "buffer" : 0,
            "byteLength" : 216,
            "byteOffset" : 42092
        },
        {
            "buffer" : 0,
            "byteLength" : 288,
            "byteOffset" : 42308
        },
        {
            "buffer" : 0,
            "byteLength" : 216,
            "byteOffset" : 42596
        },
        {
            "buffer" : 0,
            "byteLength" : 288,
            "byteOffset" : 42812
        },
        {
            "buffer" : 0,
            "byteLength" : 216,
            "byteOffset" : 43100
        },
        {
            "buffer" : 0,
            "byteLength" : 288,
            "byteOffset" : 43316
        },
        {
            "buffer" : 0,
            "byteLength" : 216,
            "byteOffset" : 43604
        },
        {
            "buffer" : 0,
            "byteLength" : 288,
            "byteOffset" : 43820
        },
        {
            "buffer" : 0,
            "byteLength" : 216,
            "byteOffset" : 44108
        },
        {
            "buffer" : 0,
            "byteLength" : 288,
            "byteOffset" : 44324
        },
        {
            "buffer" : 0,
            "byteLength" : 216,
            "byteOffset" : 44612
        },
        {
            "buffer" : 0,
            "byteLength" : 288,
            "byteOffset" : 44828
        },
        {
            "buffer" : 0,
            "byteLength" : 216,
            "byteOffset" : 45116
        },
        {
            "buffer" : 0,
            "byteLength" : 288,
            "byteOffset" : 45332
        },
        {
            "buffer" : 0,
            "byteLength" : 216,
            "byteOffset" : 45620
        },
        {
            "buffer" : 0,
            "byteLength" : 288,
            "byteOffset" : 45836
        },
        {
            "buffer" : 0,
            "byteLength" : 216,
            "byteOffset" : 46124
        },
        {
            "buffer" : 0,
            "byteLength" : 288,
            "byteOffset" : 46340
        },
        {
            "buffer" : 0,
            "byteLength" : 216,
            "byteOffset" : 46628
        },
        {
            "buffer" : 0,
            "byteLength" : 288,
            "byteOffset" : 46844
        },
        {
            "buffer" : 0,
            "byteLength" : 216,
            "byteOffset" : 47132
        },
        {
            "buffer" : 0,
            "byteLength" : 288,
            "byteOffset" : 47348
        }
    ],
    "buffers" : [
        {
            "byteLength" : 47636,
            "uri" : "data:application/octet-stream;base64,"
        }
    ]
}
