{
    "asset" : {
        "generator" : "Khronos glTF Blender I/O v1.7.33",
        "version" : "2.0"
    },
    "scene" : 0,
    "scenes" : [
        {
            "name" : "Scene",
            "nodes" : [
                4
            ]
        }
    ],
    "nodes" : [
        {
            "name" : "lid",
            "rotation" : [
                0.7071067094802856,
                9.27258554384025e-08,
                -3.6808336290050647e-07,
                0.7071068286895752
            ],
            "translation" : [
                4.500025162614343e-15,
                0.14999999105930328,
                -1.7763568394002505e-15
            ]
        },
        {
            "children" : [
                0
            ],
            "name" : "chest",
            "rotation" : [
                4.967053968130131e-08,
                -3.2584136988589307e-07,
                -1.6184715920979434e-14,
                1
            ],
            "translation" : [
                0,
                1.4901161193847656e-08,
                -0.12999999523162842
            ]
        },
        {
            "children" : [
                1
            ],
            "name" : "base",
            "rotation" : [
                0.7071068286895752,
                0,
                0,
                0.7071068286895752
            ]
        },
        {
            "mesh" : 0,
            "name" : "Cube.001",
            "skin" : 0
        },
        {
            "children" : [
                3,
                2
            ],
            "name" : "Armature"
        }
    ],
    "meshes" : [
        {
            "name" : "Cube.002",
            "primitives" : [
                {
                    "attributes" : {
                        "POSITION" : 0,
                        "NORMAL" : 1,
                        "TEXCOORD_0" : 2,
                        "JOINTS_0" : 3,
                        "WEIGHTS_0" : 4
                    },
                    "indices" : 5
                }
            ]
        }
    ],
    "skins" : [
        {
            "inverseBindMatrices" : 6,
            "joints" : [
                2,
                1,
                0
            ],
            "name" : "Armature"
        }
    ],
    "accessors" : [
        {
            "bufferView" : 0,
            "componentType" : 5126,
            "count" : 224,
            "max" : [
                0.19999998807907104,
                0.13600000739097595,
                0.22499996423721313
            ],
            "min" : [
                -0.19999998807907104,
                -0.13600000739097595,
                0
            ],
            "type" : "VEC3"
        },
        {
            "bufferView" : 1,
            "componentType" : 5126,
            "count" : 224,
            "type" : "VEC3"
        },
        {
            "bufferView" : 2,
            "componentType" : 5126,
            "count" : 224,
            "type" : "VEC2"
        },
        {
            "bufferView" : 3,
            "componentType" : 5121,
            "count" : 224,
            "type" : "VEC4"
        },
        {
            "bufferView" : 4,
            "componentType" : 5126,
            "count" : 224,
            "type" : "VEC4"
        },
        {
            "bufferView" : 5,
            "componentType" : 5123,
            "count" : 354,
            "type" : "SCALAR"
        },
        {
            "bufferView" : 6,
            "componentType" : 5126,
            "count" : 3,
            "type" : "MAT4"
        }
    ],
    "bufferViews" : [
        {
            "buffer" : 0,
            "byteLength" : 2688,
            "byteOffset" : 0
        },
        {
            "buffer" : 0,
            "byteLength" : 2688,
            "byteOffset" : 2688
        },
        {
            "buffer" : 0,
            "byteLength" : 1792,
            "byteOffset" : 5376
        },
        {
            "buffer" : 0,
            "byteLength" : 896,
            "byteOffset" : 7168
        },
        {
            "buffer" : 0,
            "byteLength" : 3584,
            "byteOffset" : 8064
        },
        {
            "buffer" : 0,
            "byteLength" : 708,
            "byteOffset" : 11648
        },
        {
            "buffer" : 0,
            "byteLength" : 192,
            "byteOffset" : 12356
        }
    ],
    "buffers" : [
        {
            "byteLength" : 12548,
            "uri" : "data:application/octet-stream;base64,"
        }
    ]
}
