# Blender v3.0.1 OBJ File: 'wall_light_tech.blend'
# www.blender.org
o Plane
v -0.200000 -0.500000 0.900000
v 0.200000 -0.500000 0.900000
v -0.200000 -0.600000 1.000000
v 0.200000 -0.600000 1.000000
v -0.133333 -0.534344 0.898989
v 0.133333 -0.534344 0.898989
v -0.133333 -0.601011 0.965656
v 0.133333 -0.601011 0.965656
vt 0.710938 0.933594
vt 0.500000 1.000000
vt 0.500000 0.933594
vt 0.150000 1.000000
vt 0.318750 0.990234
vt 0.350000 1.000000
vt 0.350000 0.937500
vt 0.182812 0.947266
vt 0.150000 0.937500
vt 0.318750 0.947266
vt 0.182812 0.990234
vt 0.710938 1.000000
vn 0.0000 -0.7071 -0.7071
vn 0.0000 -0.9996 0.0294
vn 0.0000 0.0294 -0.9996
vn 0.3511 -0.6621 -0.6621
vn -0.3511 -0.6621 -0.6621
s off
f 6/1/1 7/2/1 5/3/1
f 3/4/2 8/5/2 4/6/2
f 2/7/3 5/8/3 1/9/3
f 4/6/4 6/10/4 2/7/4
f 1/9/5 7/11/5 3/4/5
f 6/1/1 8/12/1 7/2/1
f 3/4/2 7/11/2 8/5/2
f 2/7/3 6/10/3 5/8/3
f 4/6/4 8/5/4 6/10/4
f 1/9/5 5/8/5 7/11/5
