# Blender v3.0.1 OBJ File: 'wall_torch.blend'
# www.blender.org
o Cylinder
v 0.000000 -0.519909 0.526474
v 0.000000 -0.577242 0.723976
v 0.007593 -0.523397 0.525377
v 0.011180 -0.582378 0.722360
v 0.009468 -0.531234 0.522911
v 0.013942 -0.593918 0.718729
v 0.004214 -0.537519 0.520933
v 0.006205 -0.603173 0.715817
v -0.004214 -0.537519 0.520933
v -0.006205 -0.603173 0.715817
v -0.009468 -0.531234 0.522911
v -0.013942 -0.593918 0.718729
v -0.007593 -0.523397 0.525377
v -0.011180 -0.582378 0.722360
v -0.035825 -0.522896 0.478385
v -0.130498 -0.522896 0.787470
v -0.040779 -0.496178 0.447737
v -0.148545 -0.496178 0.813206
v 0.035825 -0.522896 0.478385
v 0.130498 -0.522896 0.787470
v 0.040779 -0.496178 0.447737
v 0.148545 -0.496178 0.813206
v -0.027755 -0.507587 0.528304
v -0.101104 -0.507587 0.745551
v 0.027755 -0.507587 0.528304
v 0.101104 -0.507587 0.745551
v 0.000000 -0.546158 0.628210
v 0.000000 -0.571690 0.697860
v 0.009192 -0.575913 0.696531
v 0.011890 -0.551620 0.626491
v 0.011462 -0.585401 0.693546
v 0.014826 -0.563892 0.622630
v 0.005101 -0.593009 0.691152
v 0.006598 -0.573734 0.619533
v -0.005101 -0.593009 0.691152
v -0.006598 -0.573734 0.619533
v -0.011462 -0.585401 0.693546
v -0.014826 -0.563892 0.622630
v -0.009192 -0.575913 0.696531
v -0.011890 -0.551620 0.626491
v 0.000000 -0.583814 0.735069
v 0.008882 -0.587894 0.733785
v 0.011075 -0.597062 0.730901
v 0.004929 -0.604414 0.728587
v -0.004929 -0.604414 0.728587
v -0.011075 -0.597062 0.730901
v -0.008882 -0.587894 0.733785
v -0.010190 -0.541579 0.673499
v -0.010190 -0.543729 0.681552
v 0.010190 -0.541579 0.673499
v 0.010190 -0.543729 0.681552
v -0.009634 -0.595029 0.659742
v -0.009634 -0.596940 0.666900
v 0.009634 -0.595029 0.659742
v 0.009634 -0.596940 0.666900
v -0.014078 -0.575764 0.673033
v 0.014078 -0.575764 0.673033
v 0.014078 -0.573614 0.664980
v -0.014078 -0.573614 0.664980
v -0.008760 -0.503387 0.526356
v -0.008760 -0.504360 0.533278
v 0.008760 -0.503387 0.526356
v 0.008760 -0.504360 0.533278
v -0.008281 -0.544397 0.515471
v -0.008281 -0.546040 0.521624
v 0.008281 -0.544397 0.515471
v 0.008281 -0.546040 0.521624
v -0.012101 -0.527837 0.526895
v 0.012101 -0.527837 0.526895
v 0.012101 -0.525989 0.519973
v -0.012101 -0.525989 0.519973
v -0.008810 -0.501337 0.685092
v -0.008810 -0.503294 0.692421
v 0.008810 -0.501337 0.685092
v 0.008810 -0.503294 0.692421
vt 0.798378 0.730957
vt 0.025957 0.642742
vt 0.125866 0.578372
vt 0.725945 0.201972
vt 0.239068 0.518402
vt 0.250927 0.330595
vt 0.019312 0.209629
vt 0.809124 0.108977
vt 0.130836 0.272141
vt 0.705864 0.635970
vt 0.885043 0.824253
vt 0.885043 0.017997
vt 0.933019 0.062357
vt 0.946054 0.135029
vt 0.931595 0.135029
vt 0.675935 0.854724
vt 0.637692 0.895857
vt 0.637692 0.862432
vt 0.468960 0.894427
vt 0.541606 0.861467
vt 0.541606 0.896822
vt 0.806070 0.894427
vt 0.733437 0.861467
vt 0.806070 0.863862
vt 0.945304 0.231929
vt 0.932452 0.265353
vt 0.932452 0.231929
vt 0.946108 0.192925
vt 0.931649 0.192925
vt 0.946108 0.304357
vt 0.945304 0.265353
vt 0.599108 0.854724
vt 0.637351 0.895857
vt 0.599108 0.903565
vt 0.946054 0.362253
vt 0.931649 0.304357
vt 0.733437 0.896822
vt 0.581508 0.960653
vt 0.548635 0.925296
vt 0.581508 0.918671
vt 0.948254 0.672049
vt 0.937207 0.700780
vt 0.937207 0.672049
vt 0.948945 0.638522
vt 0.936516 0.638522
vt 0.936516 0.734307
vt 0.948254 0.700780
vt 0.948945 0.734307
vt 0.440899 0.960653
vt 0.408026 0.925296
vt 0.440899 0.918671
vt 0.482890 0.954857
vt 0.482890 0.924467
vt 0.936766 0.776695
vt 0.949195 0.776695
vt 0.936766 0.596134
vt 0.623499 0.954857
vt 0.623499 0.924467
vt 0.933019 0.434924
vt 0.931595 0.362253
vt 0.946179 0.062357
vt 0.675935 0.903565
vt 0.468960 0.863863
vt 0.637351 0.862432
vt 0.548635 0.954027
vt 0.408026 0.954027
vt 0.949195 0.596134
vt 0.946179 0.434924
vt 0.329025 0.844951
vt 0.365757 0.863936
vt 0.317746 0.862946
vt 0.310806 0.881616
vt 0.359377 0.901854
vt 0.307152 0.900763
vt 0.306388 0.920103
vt 0.359095 0.920833
vt 0.308539 0.939351
vt 0.374195 0.844549
vt 0.392543 0.866946
vt 0.361208 0.939794
vt 0.313995 0.958113
vt 0.365276 0.959494
vt 0.323971 0.976125
vt 0.912341 0.875641
vt 0.925710 0.886303
vt 0.912341 0.914065
vt 0.361330 0.882939
vt 0.391424 0.901811
vt 0.392968 0.956267
vt 0.391826 0.920032
vt 0.372397 0.979623
vt 0.395381 0.974166
vt 0.391543 0.884145
vt 0.391578 0.938226
vt 0.395381 0.850385
vt 0.925710 0.903403
vt 0.895669 0.910260
vt 0.888249 0.894853
vt 0.895669 0.879446
vt 0.888249 0.930831
vt 0.894592 0.917659
vt 0.908844 0.914406
vt 0.188137 0.961390
vt 0.008783 0.949735
vt 0.011222 0.935008
vt 0.190429 0.983834
vt 0.186835 0.938737
vt 0.013036 0.920253
vt 0.186628 0.916012
vt 0.014246 0.905470
vt 0.187558 0.893299
vt 0.014860 0.890657
vt 0.189589 0.870701
vt 0.014873 0.875811
vt 0.014267 0.860926
vt 0.192611 0.848348
vt 0.196420 0.826425
vt 0.013017 0.846184
vt 0.920274 0.923521
vt 0.920274 0.938140
vt 0.908844 0.947255
vt 0.894592 0.944002
vn -0.8507 -0.4566 -0.2606
vn 0.0000 -1.0000 0.0000
vn 0.8507 -0.4566 -0.2606
vn 0.6647 -0.7188 0.2036
vn 0.0000 -0.7538 -0.6571
vn 0.0000 -0.6937 0.7202
vn 0.0000 -0.9560 0.2932
vn 0.0000 -0.9393 -0.3431
vn -0.5154 -0.8391 0.1740
vn 0.9995 0.0318 0.0085
vn 0.0000 -0.2782 0.9605
vn 0.0000 0.2768 -0.9609
vn 0.0000 -0.2596 0.9657
vn 0.0000 -0.9662 -0.2579
vn 0.9803 -0.1909 -0.0510
vn -0.9803 -0.1909 -0.0510
vn 0.0000 0.2376 -0.9714
vn 0.0000 0.2570 -0.9664
vn -0.9932 0.1125 0.0300
vn 0.9932 0.1125 0.0300
vn 0.0000 -0.2570 0.9664
vn 0.0000 0.2717 -0.9624
vn -0.9906 0.1358 0.0191
vn 0.9900 0.1361 0.0363
vn 0.0000 -0.2623 0.9650
vn -0.9995 0.0318 0.0085
vn -0.8980 -0.3515 -0.2648
vn 0.8980 -0.3515 -0.2648
vn 0.5154 -0.8391 0.1740
vn -0.6647 -0.7188 0.2036
vn -0.9900 0.1361 0.0363
vn 0.9906 0.1358 0.0191
vn 0.0000 0.9611 0.2763
vn 0.7802 0.5741 0.2482
vn 0.7816 0.6020 0.1633
vn 0.9746 -0.2047 -0.0905
vn 0.4330 -0.8770 -0.2083
vn 0.4337 -0.8517 -0.2941
vn -0.4337 -0.8517 -0.2941
vn -0.4330 -0.8770 -0.2083
vn -0.9746 -0.2047 -0.0905
vn 0.0000 0.9326 0.3610
vn 0.5538 0.2094 0.8058
vn -0.9729 -0.2311 -0.0052
vn -0.7816 0.6020 0.1633
vn -0.7802 0.5741 0.2482
vn 0.3074 -0.8206 0.4817
vn 0.6906 -0.3622 0.6260
vn 0.0000 0.4639 0.8859
vn 0.9729 -0.2311 -0.0052
vn -0.5538 0.2094 0.8058
vn -0.3074 -0.8206 0.4817
vn -0.6906 -0.3622 0.6260
vn 0.3331 -0.4674 -0.8189
vn -0.3331 -0.4674 -0.8189
vn -0.7484 0.0294 -0.6625
vn -0.7818 0.5956 0.1844
vn 0.0000 0.9246 -0.3809
vn -0.6002 0.6489 -0.4676
vn 0.0000 0.9547 0.2974
vn -0.9749 -0.2114 -0.0695
vn -0.4339 -0.8585 -0.2731
vn 0.4339 -0.8585 -0.2731
vn 0.9749 -0.2114 -0.0695
vn 0.7484 0.0294 -0.6625
vn 0.6002 0.6489 -0.4676
vn 0.7818 0.5956 0.1844
s off
f 16/1/1 17/2/1 15/3/1
f 26/4/2 23/5/2 25/6/2
f 21/7/3 20/8/3 19/9/3
f 15/3/4 24/10/4 16/1/4
f 21/7/5 15/3/5 17/2/5
f 18/11/6 20/8/6 22/12/6
f 19/9/7 23/5/7 15/3/7
f 16/1/8 26/4/8 20/8/8
f 19/9/9 26/4/9 25/6/9
f 74/13/10 51/14/10 50/15/10
f 57/16/11 53/17/11 55/18/11
f 72/19/12 50/20/12 48/21/12
f 73/22/13 51/23/13 75/24/13
f 55/25/14 52/26/14 54/27/14
f 57/28/15 54/27/15 58/29/15
f 56/30/16 52/26/16 53/31/16
f 58/32/17 52/33/17 59/34/17
f 50/20/18 59/34/18 48/21/18
f 49/35/19 59/36/19 56/30/19
f 51/14/20 58/29/20 50/15/20
f 49/37/21 57/16/21 51/23/21
f 68/38/11 67/39/11 69/40/11
f 67/41/14 64/42/14 66/43/14
f 69/44/15 66/43/15 70/45/15
f 71/46/16 65/47/16 68/48/16
f 70/49/17 64/50/17 71/51/17
f 62/52/22 71/51/22 60/53/22
f 60/54/23 68/48/23 61/55/23
f 62/56/24 69/44/24 70/45/24
f 61/57/25 69/40/25 63/58/25
f 49/35/26 72/59/26 48/60/26
f 16/1/27 18/11/27 17/2/27
f 26/4/2 24/10/2 23/5/2
f 21/7/28 22/12/28 20/8/28
f 15/3/29 23/5/29 24/10/29
f 21/7/5 19/9/5 15/3/5
f 18/11/6 16/1/6 20/8/6
f 19/9/7 25/6/7 23/5/7
f 16/1/8 24/10/8 26/4/8
f 19/9/30 20/8/30 26/4/30
f 74/13/10 75/61/10 51/14/10
f 57/16/11 56/62/11 53/17/11
f 72/19/12 74/63/12 50/20/12
f 73/22/13 49/37/13 51/23/13
f 55/25/14 53/31/14 52/26/14
f 57/28/15 55/25/15 54/27/15
f 56/30/16 59/36/16 52/26/16
f 58/32/17 54/64/17 52/33/17
f 50/20/18 58/32/18 59/34/18
f 49/35/19 48/60/19 59/36/19
f 51/14/20 57/28/20 58/29/20
f 49/37/21 56/62/21 57/16/21
f 68/38/11 65/65/11 67/39/11
f 67/41/14 65/47/14 64/42/14
f 69/44/15 67/41/15 66/43/15
f 71/46/16 64/42/16 65/47/16
f 70/49/17 66/66/17 64/50/17
f 62/52/22 70/49/22 71/51/22
f 60/54/31 71/46/31 68/48/31
f 62/56/32 63/67/32 69/44/32
f 61/57/25 68/38/25 69/40/25
f 49/35/26 73/68/26 72/59/26
s 1
f 28/69/33 4/70/34 29/71/35
f 4/70/34 31/72/36 29/71/35
f 31/72/36 8/73/37 33/74/38
f 8/73/37 35/75/39 33/74/38
f 10/76/40 37/77/41 35/75/39
f 2/78/42 42/79/43 4/70/34
f 12/80/44 39/81/45 37/77/41
f 14/82/46 28/83/33 39/81/45
f 44/84/47 43/85/48 41/86/49
f 6/87/50 44/88/47 8/73/37
f 12/80/44 47/89/51 14/82/46
f 8/73/37 45/90/52 10/76/40
f 2/91/42 47/89/51 41/92/49
f 6/87/50 42/79/43 43/93/48
f 12/80/44 45/90/52 46/94/53
f 28/69/33 2/78/42 4/70/34
f 4/70/34 6/87/50 31/72/36
f 31/72/36 6/87/50 8/73/37
f 8/73/37 10/76/40 35/75/39
f 10/76/40 12/80/44 37/77/41
f 2/78/42 41/95/49 42/79/43
f 12/80/44 14/82/46 39/81/45
f 14/82/46 2/91/42 28/83/33
f 43/85/48 42/96/43 41/86/49
f 41/86/49 47/97/51 46/98/53
f 46/98/53 45/99/52 41/86/49
f 45/99/52 44/84/47 41/86/49
f 6/87/50 43/93/48 44/88/47
f 12/80/44 46/94/53 47/89/51
f 8/73/37 44/88/47 45/90/52
f 2/91/42 14/82/46 47/89/51
f 6/87/50 4/70/34 42/79/43
f 12/80/44 10/76/40 45/90/52
f 7/100/54 9/101/55 11/102/56
f 40/103/57 1/104/58 13/105/59
f 39/81/45 27/106/60 40/103/57
f 38/107/61 13/105/59 11/108/56
f 38/107/61 39/81/45 40/103/57
f 36/109/62 11/108/56 9/110/55
f 35/75/39 38/107/61 36/109/62
f 34/111/63 9/110/55 7/112/54
f 33/74/38 36/109/62 34/111/63
f 32/113/64 7/112/54 5/114/65
f 31/72/36 34/111/63 32/113/64
f 3/115/66 32/113/64 5/114/65
f 29/71/35 32/113/64 30/116/67
f 27/117/60 3/115/66 1/118/58
f 28/69/33 30/116/67 27/117/60
f 13/119/59 1/120/58 11/102/56
f 1/120/58 3/121/66 11/102/56
f 3/121/66 5/122/65 11/102/56
f 5/122/65 7/100/54 11/102/56
f 40/103/57 27/106/60 1/104/58
f 39/81/45 28/83/33 27/106/60
f 38/107/61 40/103/57 13/105/59
f 38/107/61 37/77/41 39/81/45
f 36/109/62 38/107/61 11/108/56
f 35/75/39 37/77/41 38/107/61
f 34/111/63 36/109/62 9/110/55
f 33/74/38 35/75/39 36/109/62
f 32/113/64 34/111/63 7/112/54
f 31/72/36 33/74/38 34/111/63
f 3/115/66 30/116/67 32/113/64
f 29/71/35 31/72/36 32/113/64
f 27/117/60 30/116/67 3/115/66
f 28/69/33 29/71/35 30/116/67
